SplineFontDB: 3.0
FontName: Estedad-Medium
FullName: Estedad Medium
FamilyName: Estedad Medium
Weight: Medium
Copyright: Copyright (c) 2017-2018 by Amin Abedi (@aminabedi68)-www.opentypeshop.com,\nwith Reserved Font Name Estedad.\n\nThis Font Software is licensed under the SIL Open Font License, Version 1.1.
Version: 2.2
StrokeWidth: 100
ItalicAngle: 0
UnderlinePosition: -509
UnderlineWidth: 101
Ascent: 1638
Descent: 410
InvalidEm: 0
sfntRevision: 0x00023334
LayerCount: 2
Layer: 0 0 "Back" 1
Layer: 1 0 "Fore" 0
XUID: [1021 89 1101065813 28845]
StyleMap: 0x0000
FSType: 0
OS2Version: 0
OS2_WeightWidthSlopeOnly: 0
OS2_UseTypoMetrics: 1
CreationTime: 1496828874
ModificationTime: 1545396099
PfmFamily: 17
TTFWeight: 500
TTFWidth: 5
LineGap: 0
VLineGap: 213
OS2TypoAscent: 500
OS2TypoAOffset: 1
OS2TypoDescent: -600
OS2TypoDOffset: 1
OS2TypoLinegap: 0
OS2WinAscent: 200
OS2WinAOffset: 1
OS2WinDescent: -200
OS2WinDOffset: 1
HheadAscent: 500
HheadAOffset: 1
HheadDescent: -600
HheadDOffset: 1
OS2CapHeight: 1400
OS2XHeight: 1012
OS2Vendor: 'AA68'
Lookup: 2 0 0 "Multiple substitution 0" { "Multiple substitution 0 subtable"  } []
Lookup: 2 0 0 "Multiple substitution 1" { "Multiple substitution 1 subtable"  } []
Lookup: 1 9 0 "'fina' Terminal Forms in Arabic lookup 2" { "'fina' Terminal Forms in Arabic lookup 2 subtable"  } ['fina' ('arab' <'FAR ' 'KUR ' 'dflt' > ) ]
Lookup: 1 9 0 "'medi' Medial Forms in Arabic lookup 3" { "'medi' Medial Forms in Arabic lookup 3 subtable"  } ['medi' ('arab' <'FAR ' 'KUR ' 'dflt' > ) ]
Lookup: 1 9 0 "'init' Initial Forms in Arabic lookup 4" { "'init' Initial Forms in Arabic lookup 4 subtable"  } ['init' ('arab' <'FAR ' 'KUR ' 'dflt' > ) ]
Lookup: 4 9 1 "'rlig' Required Ligatures in Arabic lookup 5" { "'rlig' Required Ligatures in Arabic lookup 5 subtable"  } ['rlig' ('arab' <'FAR ' 'KUR ' 'dflt' > ) ]

StartChar: period
Encoding: 46 46 0
Width: 453
VWidth: 1647
Flags: HMW
LayerCount: 2
Fore
SplineSet
120 84 m 0
 120 143 168 189 227 189 c 0
 286 189 333 143 333 84 c 0
 333 25 286 -22 227 -22 c 0
 168 -22 120 25 120 84 c 0
EndSplineSet
Colour: ff0000
EndChar

StartChar: slash
Encoding: 47 47 1
Width: 1050
VWidth: 1647
Flags: HMW
LayerCount: 2
Fore
SplineSet
759 1453 m 1
 941 1369 l 1
 291 -42 l 1
 109 42 l 1
 759 1453 l 1
EndSplineSet
Colour: ffff
EndChar

StartChar: asterisk
Encoding: 42 42 2
Width: 1133
VWidth: 1647
Flags: HMW
LayerCount: 2
Fore
SplineSet
177 1097 m 1
 223 1239 l 1
 491 1152 l 1
 491 1434 l 1
 641 1434 l 1
 641 1151 l 1
 910 1239 l 1
 956 1097 l 1
 688 1009 l 1
 855 780 l 1
 733 692 l 1
 566 921 l 1
 400 692 l 1
 278 780 l 1
 445 1009 l 1
 177 1097 l 1
EndSplineSet
Colour: ff00ff
EndChar

StartChar: parenleft
Encoding: 40 40 3
Width: 598
VWidth: 1647
Flags: HMW
LayerCount: 2
Fore
SplineSet
482 54 m 1
 314 -54 l 1
 175 163 100 410 100 706 c 0
 100 1002 175 1248 314 1465 c 1
 482 1357 l 1
 363 1170 300 968 300 706 c 0
 300 444 363 241 482 54 c 1
EndSplineSet
Colour: ffff
EndChar

StartChar: parenright
Encoding: 41 41 4
Width: 598
VWidth: 1647
Flags: HMW
LayerCount: 2
Fore
SplineSet
116 1357 m 1
 284 1465 l 1
 423 1248 498 1001 498 705 c 0
 498 409 423 163 284 -54 c 1
 116 54 l 1
 235 241 298 443 298 705 c 0
 298 967 235 1170 116 1357 c 1
EndSplineSet
Colour: ffff
EndChar

StartChar: uni0660
Encoding: 1632 1632 5
Width: 845
VWidth: 1954
Flags: HMW
LayerCount: 2
Fore
SplineSet
422 623 m 0
 325 623 250 548 250 451 c 0
 250 354 326 277 422 277 c 0
 518 277 595 354 595 451 c 0
 595 547 519 623 422 623 c 0
422 773 m 0
 600 773 745 630 745 451 c 0
 745 272 602 127 422 127 c 0
 242 127 100 273 100 451 c 0
 100 630 243 773 422 773 c 0
EndSplineSet
PairPos2: "'kern' Horizontal Kerning in Arabic lookup 3 per glyph data 0" uni0662 dx=-125 dy=0 dh=-125 dv=0 dx=0 dy=0 dh=0 dv=0
PairPos2: "'kern' Horizontal Kerning in Arabic lookup 3 per glyph data 0" uni0666 dx=-25 dy=0 dh=-25 dv=0 dx=0 dy=0 dh=0 dv=0
PairPos2: "'kern' Horizontal Kerning in Arabic lookup 3 per glyph data 0" uni0667 dx=-100 dy=0 dh=-100 dv=0 dx=0 dy=0 dh=0 dv=0
PairPos2: "'kern' Horizontal Kerning in Arabic lookup 3 per glyph data 0" uni0661 dx=50 dy=0 dh=50 dv=0 dx=0 dy=0 dh=0 dv=0
Colour: ffff
EndChar

StartChar: uni0661
Encoding: 1633 1633 6
Width: 618
VWidth: 1854
Flags: HMW
LayerCount: 2
Fore
SplineSet
518 -25 m 1
 318 -25 l 1
 318 450 246 776 97 1201 c 1
 286 1268 l 1
 442 828 518 472 518 -25 c 1
EndSplineSet
PairPos2: "'kern' Horizontal Kerning in Arabic lookup 3 per glyph data 0" uni0660 dx=-50 dy=0 dh=-50 dv=0 dx=0 dy=0 dh=0 dv=0
PairPos2: "'kern' Horizontal Kerning in Arabic lookup 3 per glyph data 0" uni0665 dx=-50 dy=0 dh=-50 dv=0 dx=0 dy=0 dh=0 dv=0
Colour: ffff
EndChar

StartChar: uni0662
Encoding: 1634 1634 7
Width: 1086
VWidth: 1854
Flags: HMW
LayerCount: 2
Fore
SplineSet
289 1268 m 1
 321 1147 367 1011 421 920 c 0
 470 835 508 825 587 825 c 0
 765 825 786 980 786 1268 c 1
 986 1268 l 1
 986 1029 985 625 587 625 c 0
 545 625 502 630 461 643 c 1
 498 432 518 220 518 -22 c 1
 318 -22 l 1
 318 465 228 834 97 1210 c 1
 289 1268 l 1
EndSplineSet
Colour: ffff
EndChar

StartChar: uni0663
Encoding: 1635 1635 8
Width: 1473
VWidth: 1854
Flags: HMW
LayerCount: 2
Fore
SplineSet
904 1051 m 0
 904 891 924 830 1031 830 c 0
 1138 830 1168 881 1168 1059 c 0
 1168 1134 1164 1155 1152 1215 c 1
 1348 1256 l 1
 1363 1181 1369 1147 1369 1059 c 0
 1369 860 1300 630 1031 630 c 0
 923 630 835 673 779 744 c 1
 723 675 641 630 538 630 c 0
 513 630 486 632 462 637 c 1
 499 427 518 218 518 -22 c 1
 318 -22 l 1
 318 466 213 824 97 1210 c 1
 289 1268 l 1
 324 1137 367 1012 406 925 c 0
 438 855 476 830 538 830 c 0
 613 830 649 873 680 1022 c 0
 697 1101 708 1153 715 1246 c 1
 916 1229 l 1
 907 1157 904 1122 904 1051 c 0
EndSplineSet
PairPos2: "'kern' Horizontal Kerning in Arabic lookup 3 per glyph data 0" uni0668 dx=-50 dy=0 dh=-50 dv=0 dx=0 dy=0 dh=0 dv=0
Colour: ffff
EndChar

StartChar: uni0664
Encoding: 1636 1636 9
Width: 997
VWidth: 1854
Flags: HMW
LayerCount: 2
Fore
SplineSet
689 1268 m 1
 689 1068 l 1
 448 1068 361 1013 361 911 c 0
 361 804 453 744 696 744 c 1
 696 544 l 1
 433 544 300 439 300 316 c 0
 300 212 383 175 533 175 c 2
 822 175 l 1
 822 -25 l 1
 533 -25 l 2
 245 -25 100 90 100 280 c 0
 100 452 170 562 273 634 c 1
 204 687 161 803 161 905 c 0
 161 1193 424 1268 689 1268 c 1
EndSplineSet
PairPos2: "'kern' Horizontal Kerning in Arabic lookup 3 per glyph data 0" uni0666 dx=50 dy=0 dh=50 dv=0 dx=0 dy=0 dh=0 dv=0
Colour: ffff
EndChar

StartChar: uni0665
Encoding: 1637 1637 10
Width: 1196
VWidth: 1854
Flags: HMW
LayerCount: 2
Fore
SplineSet
526 1252 m 2
 773 1046 1096 735 1096 369 c 0
 1096 71 877 -45 601 -45 c 0
 336 -45 100 69 100 366 c 0
 100 618 233 821 459 1044 c 1
 379 1114 l 1
 507 1268 l 1
 526 1252 l 2
602 904 m 1
 394 699 300 543 300 366 c 0
 300 208 392 155 601 155 c 0
 816 155 896 201 896 369 c 0
 896 544 768 723 602 904 c 1
EndSplineSet
PairPos2: "'kern' Horizontal Kerning in Arabic lookup 3 per glyph data 0" uni0667 dx=-100 dy=0 dh=-100 dv=0 dx=0 dy=0 dh=0 dv=0
PairPos2: "'kern' Horizontal Kerning in Arabic lookup 3 per glyph data 0" uni0661 dx=50 dy=0 dh=50 dv=0 dx=0 dy=0 dh=0 dv=0
Colour: ffff
EndChar

StartChar: uni0666
Encoding: 1638 1638 11
Width: 1168
VWidth: 1854
Flags: HMW
LayerCount: 2
Fore
SplineSet
960 1149 m 1
 956 1054 954 961 954 873 c 0
 954 503 985 345 1071 -0 c 1
 877 -48 l 1
 789 305 754 493 754 873 c 0
 754 924 755 977 756 1029 c 1
 712 1025 665 1023 618 1023 c 0
 461 1023 298 1044 154 1073 c 1
 197 1268 l 1
 320 1237 476 1223 618 1223 c 0
 706 1223 789 1231 856 1242 c 1
 960 1149 l 1
EndSplineSet
PairPos2: "'kern' Horizontal Kerning in Arabic lookup 3 per glyph data 0" uni0668 dx=-200 dy=0 dh=-200 dv=0 dx=0 dy=0 dh=0 dv=0
PairPos2: "'kern' Horizontal Kerning in Arabic lookup 3 per glyph data 0" uni066B dx=-150 dy=0 dh=-150 dv=0 dx=0 dy=0 dh=0 dv=0
PairPos2: "'kern' Horizontal Kerning in Arabic lookup 3 per glyph data 0" uni0660 dx=-200 dy=0 dh=-200 dv=0 dx=0 dy=0 dh=0 dv=0
PairPos2: "'kern' Horizontal Kerning in Arabic lookup 3 per glyph data 0" uni0665 dx=-175 dy=0 dh=-175 dv=0 dx=0 dy=0 dh=0 dv=0
PairPos2: "'kern' Horizontal Kerning in Arabic lookup 3 per glyph data 0" uni0664 dx=-50 dy=0 dh=-50 dv=0 dx=0 dy=0 dh=0 dv=0
Colour: ffff
EndChar

StartChar: uni0667
Encoding: 1639 1639 12
Width: 1315
VWidth: 1854
Flags: HMW
LayerCount: 2
Fore
SplineSet
1052 1268 m 1
 1209 1145 l 1
 964 834 854 576 747 -22 c 1
 569 -22 l 1
 462 579 346 827 106 1146 c 1
 265 1268 l 1
 445 1029 566 847 658 514 c 1
 748 843 867 1037 1052 1268 c 1
EndSplineSet
PairPos2: "'kern' Horizontal Kerning in Arabic lookup 3 per glyph data 0" uni066B dx=-125 dy=0 dh=-125 dv=0 dx=0 dy=0 dh=0 dv=0
PairPos2: "'kern' Horizontal Kerning in Arabic lookup 3 per glyph data 0" uni0668 dx=-150 dy=0 dh=-150 dv=0 dx=0 dy=0 dh=0 dv=0
PairPos2: "'kern' Horizontal Kerning in Arabic lookup 3 per glyph data 0" uni0665 dx=-100 dy=0 dh=-100 dv=0 dx=0 dy=0 dh=0 dv=0
PairPos2: "'kern' Horizontal Kerning in Arabic lookup 3 per glyph data 0" uni0660 dx=-100 dy=0 dh=-100 dv=0 dx=0 dy=0 dh=0 dv=0
Colour: ffff
EndChar

StartChar: uni0668
Encoding: 1640 1640 13
Width: 1315
VWidth: 1854
Flags: HMW
LayerCount: 2
Fore
SplineSet
263 -42 m 1
 106 81 l 1
 351 392 461 650 568 1248 c 1
 746 1248 l 1
 853 647 969 399 1209 80 c 1
 1050 -42 l 1
 870 197 749 379 657 712 c 1
 567 383 448 189 263 -42 c 1
EndSplineSet
PairPos2: "'kern' Horizontal Kerning in Arabic lookup 3 per glyph data 0" uni0667 dx=-150 dy=0 dh=-150 dv=0 dx=0 dy=0 dh=0 dv=0
PairPos2: "'kern' Horizontal Kerning in Arabic lookup 3 per glyph data 0" uni0662 dx=-175 dy=0 dh=-175 dv=0 dx=0 dy=0 dh=0 dv=0
PairPos2: "'kern' Horizontal Kerning in Arabic lookup 3 per glyph data 0" uni0663 dx=-200 dy=0 dh=-200 dv=0 dx=0 dy=0 dh=0 dv=0
Colour: ffff
EndChar

StartChar: uni0669
Encoding: 1641 1641 14
Width: 1035
VWidth: 1854
Flags: HMW
LayerCount: 2
Fore
SplineSet
628 705 m 1
 628 790 l 2
 628 994 579 1068 467 1068 c 0
 383 1068 300 973 300 817 c 0
 300 727 343 691 501 691 c 0
 547 691 587 696 628 705 c 1
633 502 m 1
 590 495 547 491 501 491 c 0
 311 491 100 571 100 817 c 0
 100 1023 220 1268 467 1268 c 0
 752 1268 828 1010 828 790 c 0
 828 723 828.826163024 661.996500875 830 608 c 0
 837 286 866 202 937 38 c 1
 753 -42 l 1
 681 123 644 225 633 502 c 1
EndSplineSet
PairPos2: "'kern' Horizontal Kerning in Arabic lookup 3 per glyph data 0" uni0665 dx=-50 dy=0 dh=-50 dv=0 dx=0 dy=0 dh=0 dv=0
PairPos2: "'kern' Horizontal Kerning in Arabic lookup 3 per glyph data 0" uni0668 dx=-150 dy=0 dh=-150 dv=0 dx=0 dy=0 dh=0 dv=0
PairPos2: "'kern' Horizontal Kerning in Arabic lookup 3 per glyph data 0" uni066B dx=200 dy=0 dh=200 dv=0 dx=0 dy=0 dh=0 dv=0
Colour: ffff
EndChar

StartChar: uni06F4
Encoding: 1780 1780 19
Width: 1179
VWidth: 1854
Flags: HMW
LayerCount: 2
Fore
SplineSet
978 520 m 1
 921 515 868 512 818 512 c 0
 684 512 572 533 467 589 c 1
 507 338 518 221 518 -22 c 1
 318 -22 l 1
 318 434 228 816 107 1207 c 9
 297 1268 l 1
 377 1027 l 1
 449 1172 590 1268 742 1268 c 0
 816 1268 878 1260 948 1244 c 1
 904 1050 l 1
 844 1064 804 1068 742 1068 c 0
 624 1068 523 995 523 843 c 0
 523 715 620 708 761 708 c 0
 814 708 902 715 960 720 c 1
 978 520 l 1
EndSplineSet
PairPos2: "'kern' Horizontal Kerning in Arabic lookup 3 per glyph data 1" uni06F8 dx=-50 dy=0 dh=-50 dv=0 dx=0 dy=0 dh=0 dv=0
PairPos2: "'kern' Horizontal Kerning in Arabic lookup 3 per glyph data 1" uni06F0 dx=-25 dy=0 dh=-25 dv=0 dx=0 dy=0 dh=0 dv=0
Colour: ffff
EndChar

StartChar: uni06F5
Encoding: 1781 1781 20
Width: 1276
VWidth: 1854
Flags: HMW
LayerCount: 2
Fore
SplineSet
548 250 m 2
 548 304 l 1
 748 304 l 1
 748 250 l 2
 748 192 796 155 852 155 c 0
 902 155 976 161 976 331 c 0
 976 495 860 700 644 914 c 1
 385 699 300 495 300 346 c 0
 300 166 381 155 434 155 c 0
 496 155 548 195 548 250 c 2
646 33 m 1
 586 -18 511 -45 434 -45 c 0
 256 -45 100 86 100 346 c 0
 100 558 212 803 490 1046 c 1
 464 1067 437 1087 411 1106 c 1
 525 1268 l 1
 586 1225 648 1180 704 1130 c 0
 992 878 1176 603 1176 331 c 0
 1176 81 1024 -45 852 -45 c 0
 776 -45 703 -17 646 33 c 1
EndSplineSet
PairPos2: "'kern' Horizontal Kerning in Arabic lookup 3 per glyph data 1" uni06F9 dx=-75 dy=0 dh=-75 dv=0 dx=0 dy=0 dh=0 dv=0
PairPos2: "'kern' Horizontal Kerning in Arabic lookup 3 per glyph data 1" uni06F7 dx=-100 dy=0 dh=-100 dv=0 dx=0 dy=0 dh=0 dv=0
PairPos2: "'kern' Horizontal Kerning in Arabic lookup 3 per glyph data 1" uni06F3 dx=-25 dy=0 dh=-25 dv=0 dx=0 dy=0 dh=0 dv=0
PairPos2: "'kern' Horizontal Kerning in Arabic lookup 3 per glyph data 1" uni06F2 dx=-25 dy=0 dh=-25 dv=0 dx=0 dy=0 dh=0 dv=0
PairPos2: "'kern' Horizontal Kerning in Arabic lookup 3 per glyph data 1" uni06F1 dx=50 dy=0 dh=50 dv=0 dx=0 dy=0 dh=0 dv=0
Colour: ffff
EndChar

StartChar: uni06F6
Encoding: 1782 1782 21
Width: 1034
VWidth: 1854
Flags: HMW
LayerCount: 2
Fore
SplineSet
828 1134 m 1
 692 987 l 1
 651 1028 598 1068 514 1068 c 0
 396 1068 306 986 306 846 c 0
 306 743 402 677 565 677 c 0
 695 677 772 721 850 775 c 1
 981 618 l 1
 696 418 466 231 274 -42 c 1
 101 57 l 1
 220 225 334 349 478 483 c 1
 301 507 106 612 106 846 c 0
 106 1090 286 1268 514 1268 c 0
 656 1268 754 1204 828 1134 c 1
EndSplineSet
Colour: ffff
EndChar

StartChar: uni0654
Encoding: 1620 1620 25
Width: 0
VWidth: 1854
Flags: HMW
AnchorPoint: "Anchor-1" 0 1598 basemark 0
AnchorPoint: "Anchor-1" 1 1209 mark 0
AnchorPoint: "Anchor-4" 1 1209 mark 0
AnchorPoint: "Anchor-5" 1 1209 mark 0
LayerCount: 2
Fore
SplineSet
-200 1517 m 1
 -242 1609 l 1
 -157 1647 l 1
 -194 1696 -213 1752 -213 1806 c 0
 -213 1911 -134 2002 0 2002 c 2
 82 2002 l 1
 82 1902 l 1
 0 1902 l 2
 -84 1902 -113 1857 -113 1806 c 0
 -113 1771 -97 1726 -62 1690 c 1
 155 1789 l 1
 197 1697 l 1
 -200 1517 l 1
EndSplineSet
Colour: ff00
EndChar

StartChar: uni0653
Encoding: 1619 1619 27
Width: 0
VWidth: 1854
Flags: HMW
AnchorPoint: "Anchor-1" 0 1598 basemark 0
AnchorPoint: "Anchor-1" 1 1209 mark 0
AnchorPoint: "Anchor-4" 1 1209 mark 0
AnchorPoint: "Anchor-5" 1 1209 mark 0
LayerCount: 2
Fore
SplineSet
-257 1561 m 1
 -228 1620 -168 1689 -79 1689 c 0
 -40 1689 0 1674 37 1646 c 0
 61 1627 80 1622 94 1622 c 0
 125 1622 160 1650 180 1697 c 1
 272 1659 l 1
 244 1592 183 1522 94 1522 c 0
 54 1522 13 1537 -25 1566 c 0
 -48 1584 -66 1589 -79 1589 c 0
 -110 1589 -146 1560 -167 1517 c 1
 -257 1561 l 1
EndSplineSet
Colour: ff00
EndChar

StartChar: uni0652
Encoding: 1618 1618 28
Width: 0
VWidth: 1854
Flags: HMW
AnchorPoint: "Anchor-1" 0 1598 basemark 0
AnchorPoint: "Anchor-1" 1 1209 mark 0
AnchorPoint: "Anchor-4" 1 1209 mark 0
AnchorPoint: "Anchor-5" 1 1209 mark 0
LayerCount: 2
Fore
SplineSet
0 1802 m 0
 -58 1802 -103 1757 -103 1699 c 0
 -103 1641 -58 1595 0 1595 c 0
 57 1595 104 1642 104 1699 c 0
 104 1756 58 1802 0 1802 c 0
0 1902 m 0
 112 1902 204 1812 204 1699 c 0
 204 1586 113 1495 0 1495 c 0
 -114 1495 -203 1587 -203 1699 c 0
 -203 1811 -114 1902 0 1902 c 0
EndSplineSet
Colour: ff00
EndChar

StartChar: uni0651
Encoding: 1617 1617 29
Width: 0
VWidth: 1854
Flags: HMW
AnchorPoint: "Anchor-1" 0 1598 basemark 0
AnchorPoint: "Anchor-1" 0 1209 mark 0
AnchorPoint: "Anchor-4" 0 1209 mark 0
AnchorPoint: "Anchor-5" 0 1209 mark 0
LayerCount: 2
Fore
SplineSet
138 1870 m 1
 232 1904 l 1
 252 1849 266 1795 266 1726 c 0
 266 1626 205 1554 124 1554 c 0
 77 1554 32 1579 0 1619 c 1
 -33 1577 -77 1554 -124 1554 c 0
 -205 1554 -266 1626 -266 1726 c 0
 -266 1795 -252 1849 -232 1904 c 1
 -138 1870 l 1
 -156 1821 -166 1781 -166 1726 c 0
 -166 1662 -139 1654 -124 1654 c 0
 -106 1654 -75 1669 -59 1720 c 0
 -54 1737 -50 1757 -50 1782 c 2
 -50 1857 l 1
 50 1857 l 1
 50 1782 l 2
 50 1757 54 1736 59 1719 c 0
 75 1668 106 1654 124 1654 c 0
 139 1654 166 1662 166 1726 c 0
 166 1781 156 1821 138 1870 c 1
EndSplineSet
Colour: ff00
EndChar

StartChar: uni064E
Encoding: 1614 1614 30
Width: 0
VWidth: 1854
Flags: HMW
AnchorPoint: "Anchor-1" 0 1598 basemark 0
AnchorPoint: "Anchor-1" 1 1209 mark 0
AnchorPoint: "Anchor-4" 1 1209 mark 0
AnchorPoint: "Anchor-5" 1 1209 mark 0
LayerCount: 2
Fore
SplineSet
155 1789 m 1
 197 1697 l 1
 -200 1517 l 1
 -242 1609 l 1
 155 1789 l 1
EndSplineSet
Colour: ff00
EndChar

StartChar: uni064F
Encoding: 1615 1615 31
Width: 0
VWidth: 1854
Flags: HMW
AnchorPoint: "Anchor-1" 0 1598 basemark 0
AnchorPoint: "Anchor-1" 1 1209 mark 0
AnchorPoint: "Anchor-4" 1 1209 mark 0
AnchorPoint: "Anchor-5" 1 1209 mark 0
LayerCount: 2
Fore
SplineSet
-17 1670 m 1
 -79 1699 -148 1751 -148 1836 c 0
 -148 1936 -59 2009 26 2009 c 0
 132 2009 177 1910 177 1845 c 0
 177 1768 145 1699 98 1644 c 0
 23 1556 -91 1496 -200 1477 c 1
 -218 1575 l 1
 -149 1587 -73 1622 -17 1670 c 1
51 1750 m 1
 68 1780 77 1812 77 1845 c 0
 77 1878 54 1909 26 1909 c 0
 -5 1909 -48 1872 -48 1836 c 0
 -48 1809 -18 1775 51 1750 c 1
EndSplineSet
Colour: ff00
EndChar

StartChar: uni064C
Encoding: 1612 1612 34
Width: 0
VWidth: 1854
Flags: HMW
AnchorPoint: "Anchor-1" 0 1598 basemark 0
AnchorPoint: "Anchor-1" 1 1209 mark 0
AnchorPoint: "Anchor-4" 1 1209 mark 0
AnchorPoint: "Anchor-5" 1 1209 mark 0
LayerCount: 2
Fore
SplineSet
-171 1710 m 1
 -253 1654 l 1
 -291 1711 -314 1779 -314 1852 c 0
 -314 2049 -155 2208 42 2208 c 1
 42 2108 l 1
 -100 2108 -214 1993 -214 1852 c 0
 -214 1799 -199 1751 -171 1710 c 1
EndSplineSet
Refer: 31 1615 N 1 0 0 1 0 0 2
Colour: ff00
EndChar

StartChar: GAFbar
Encoding: 1114122 -1 44
Width: 999
VWidth: 1804
Flags: HMW
LayerCount: 2
Fore
SplineSet
814 1921 m 1
 844 1775 l 1
 591 1723 332 1620 116 1482 c 1
 35 1608 l 1
 269 1758 543 1865 814 1921 c 1
EndSplineSet
Colour: ff00ff
EndChar

StartChar: dotlessfinalBEH
Encoding: 1114123 -1 45
Width: 1973
VWidth: 1854
Flags: HMW
AnchorPoint: "Anchor-5" 944 823 basechar 0
AnchorPoint: "Anchor-3" 767 -4 basechar 0
LayerCount: 2
Fore
SplineSet
143 717 m 1
 329 641 l 1
 298 566 277 466 277 413 c 0
 277 260 406 177 767 177 c 0
 1327 177 1524 293 1606 619 c 1
 1800 570 l 1
 1769 451 1751 367 1751 308 c 0
 1751 200 1813 175 1973 175 c 1
 1973 -25 l 1
 1774 -25 1634 36 1577 169 c 1
 1380 18 1089 -23 767 -23 c 0
 412 -23 77 70 77 413 c 0
 77 505 103 618 143 717 c 1
EndSplineSet
Colour: ffff
EndChar

StartChar: dotlessinitialFEH
Encoding: 1114124 -1 46
Width: 921
VWidth: 1854
Flags: HMW
AnchorPoint: "Anchor-5" 463 1073 basechar 0
AnchorPoint: "Anchor-3" 422 -4 basechar 0
LayerCount: 2
Fore
SplineSet
0 -25 m 1
 -55 -25 -100 20 -100 75 c 0
 -100 130 -55 177 0 177 c 1
 357 177 582 206 627 336 c 1
 581 327 533 322 481 322 c 0
 296 322 105 413 105 651 c 0
 105 855 239 1098 463 1098 c 0
 815 1098 843 611 843 446 c 0
 843 -8 378 -25 0 -25 c 1
639 544 m 1
 621 752 547 898 463 898 c 0
 407 898 305 797 305 651 c 0
 305 553 344 522 481 522 c 0
 539 522 589 530 639 544 c 1
EndSplineSet
Colour: ffff
EndChar

StartChar: dotlessfinalFEH
Encoding: 1114125 -1 47
Width: 1876
VWidth: 2374
Flags: HMW
AnchorPoint: "Anchor-5" 1406 887 basechar 0
AnchorPoint: "Anchor-3" 891 0 basechar 0
LayerCount: 2
Fore
SplineSet
1417 40 m 1
 1268 -8 1088 -25 891 -25 c 0
 509 -25 79 11 79 400 c 0
 79 519 114 626 142 710 c 1
 332 648 l 1
 305 565 279 479 279 400 c 0
 279 235 457 175 891 175 c 0
 993 175 1089 180 1174 191 c 1
 1103 268 1062 371 1062 489 c 0
 1062 718 1217 865 1422 865 c 0
 1623 865 1782 719 1782 489 c 0
 1782 370 1741 266 1667 188 c 1
 1733 179 1803 175 1876 175 c 1
 1876 -25 l 1
 1712 -25 1548 -6 1417 40 c 1
1419 256 m 1
 1521 303 1582 370 1582 489 c 0
 1582 619 1521 665 1422 665 c 0
 1321 665 1262 620 1262 489 c 0
 1262 373 1322 304 1419 256 c 1
EndSplineSet
Colour: ffff
EndChar

StartChar: dotlessmedialFEH
Encoding: 1114126 -1 48
Width: 908
VWidth: 1870
Flags: HMW
LayerCount: 2
Fore
SplineSet
0 175 m 0
 73 175 143 179 209 188 c 1
 136 266 94 369 94 489 c 0
 94 718 249 865 454 865 c 0
 655 865 814 719 814 489 c 0
 814 369 772 266 699 188 c 1
 765 179 835 175 908 175 c 1
 908 -25 l 1
 746 -25 584 -6 454 39 c 1
 324 -6 162 -25 0 -25 c 0
 -55 -25 -100 20 -100 75 c 0
 -100 130 -55 175 0 175 c 0
454 254 m 1
 553 302 614 372 614 489 c 0
 614 619 553 665 454 665 c 0
 353 665 294 620 294 489 c 0
 294 372 355 302 454 254 c 1
EndSplineSet
Colour: ffff
EndChar

StartChar: dotlessfinalQAF
Encoding: 1114127 -1 49
Width: 1505
VWidth: 1854
Flags: HMW
AnchorPoint: "Anchor-3" 728 -504 basechar 0
AnchorPoint: "Anchor-5" 1047 726 basechar 0
LayerCount: 2
Fore
SplineSet
278 -3 m 0
 278 -200 465 -329 728 -329 c 0
 968 -329 1158 -220 1211 -25 c 1
 1065 -25 l 2
 880 -25 689 66 689 304 c 0
 689 508 823 751 1047 751 c 0
 1362 751 1414 354 1425 175 c 1
 1505 175 l 1
 1505 -25 l 1
 1416 -25 l 1
 1354 -369 1039 -529 728 -529 c 0
 417 -529 78 -360 78 -3 c 0
 78 180 164 379 269 565 c 1
 436 461 l 1
 345 300 278 128 278 -3 c 0
1047 551 m 0
 955 551 889 436 889 304 c 0
 889 209 945 175 1065 175 c 2
 1225 175 l 1
 1201.4140625 355.826171875 1155.99902344 551 1047 551 c 0
EndSplineSet
Colour: ffff
EndChar

StartChar: uniFEFB
Encoding: 65275 65275 51
Width: 1082
VWidth: 1854
Flags: HMW
AnchorPoint: "Anchor-4" 178 1146 baselig 1
AnchorPoint: "Anchor-4" 882 1211 baselig 0
AnchorPoint: "Anchor-2" 256 0 baselig 1
AnchorPoint: "Anchor-2" 845 0 baselig 0
LayerCount: 2
Fore
SplineSet
673 465 m 1
 583 357 486 268 396 196 c 1
 445 183 503 175 552 175 c 0
 701 175 745 212 745 253 c 0
 745 290 721 372 673 465 c 1
162 270 m 1
 298 367 437 483 562 648 c 1
 430 839 257 966 100 1078 c 1
 215 1243 l 1
 381 1126 542 962 677 781 c 1
 747 919 782 1060 782 1236 c 1
 982 1236 l 1
 982 982 912 826 801 645 c 1
 884 505 945 372 945 253 c 0
 945 10 687 -25 552 -25 c 0
 400 -25 265 23 162 87 c 1
 162 270 l 1
EndSplineSet
PairPos2: "'kern' Horizontal Kerning in Arabic lookup 2 per glyph data 0" uni0686 dx=-150 dy=0 dh=-150 dv=0 dx=0 dy=0 dh=0 dv=0
PairPos2: "'kern' Horizontal Kerning in Arabic lookup 2 per glyph data 0" uni063A dx=-150 dy=0 dh=-150 dv=0 dx=0 dy=0 dh=0 dv=0
PairPos2: "'kern' Horizontal Kerning in Arabic lookup 2 per glyph data 0" uni0639 dx=-150 dy=0 dh=-150 dv=0 dx=0 dy=0 dh=0 dv=0
PairPos2: "'kern' Horizontal Kerning in Arabic lookup 2 per glyph data 0" uni062E dx=-150 dy=0 dh=-150 dv=0 dx=0 dy=0 dh=0 dv=0
PairPos2: "'kern' Horizontal Kerning in Arabic lookup 2 per glyph data 0" uni062D dx=-150 dy=0 dh=-150 dv=0 dx=0 dy=0 dh=0 dv=0
PairPos2: "'kern' Horizontal Kerning in Arabic lookup 2 per glyph data 0" uni062C dx=-150 dy=0 dh=-150 dv=0 dx=0 dy=0 dh=0 dv=0
Ligature2: "'rlig' Required Ligatures in Arabic lookup 5 subtable" uniFEDF uniFE8E
LCarets2: 1 0
Colour: ffff
EndChar

StartChar: uniFEFC
Encoding: 65276 65276 52
Width: 1372
VWidth: 1854
Flags: HMW
AnchorPoint: "Anchor-2" 976 0 baselig 0
AnchorPoint: "Anchor-2" 266 0 baselig 1
AnchorPoint: "Anchor-4" 988 1211 baselig 0
AnchorPoint: "Anchor-4" 151 1211 baselig 1
LayerCount: 2
Back
SplineSet
1450 75 m 17
 1303 75 1206 111 1147 185 c 0
 1088 259 1066 370 1066 517 c 2
 1066 1411 l 1
 1066 517 l 2
 1066 222 977 75 683 75 c 2
 178 75 l 17
 178 85 l 17
 386 85 477 299 477 579 c 0
 477 859 386 1193 229 1411 c 1024
EndSplineSet
Fore
SplineSet
499 365 m 1
 299 365 l 1
 299 676 244 917 124 1196 c 1
 308 1276 l 1
 440 971 499 700 499 365 c 1
1372 -25 m 1
 1188 -25 1035 34 959 169 c 1
 803 20 510 -25 100 -25 c 1
 100 175 l 1
 754 175 888 267 888 516 c 2
 888 1234 l 1
 1088 1234 l 1
 1088 517 l 2
 1088 378 1111 292 1147 247 c 0
 1180 206 1239 175 1372 175 c 1
 1372 -25 l 1
EndSplineSet
PairPos2: "'kern' Horizontal Kerning in Arabic lookup 2 per glyph data 0" uni0686 dx=-150 dy=0 dh=-150 dv=0 dx=0 dy=0 dh=0 dv=0
PairPos2: "'kern' Horizontal Kerning in Arabic lookup 2 per glyph data 0" uni063A dx=-180 dy=0 dh=-180 dv=0 dx=0 dy=0 dh=0 dv=0
PairPos2: "'kern' Horizontal Kerning in Arabic lookup 2 per glyph data 0" uni0639 dx=-180 dy=0 dh=-180 dv=0 dx=0 dy=0 dh=0 dv=0
PairPos2: "'kern' Horizontal Kerning in Arabic lookup 2 per glyph data 0" uni062E dx=-150 dy=0 dh=-150 dv=0 dx=0 dy=0 dh=0 dv=0
PairPos2: "'kern' Horizontal Kerning in Arabic lookup 2 per glyph data 0" uni062D dx=-150 dy=0 dh=-150 dv=0 dx=0 dy=0 dh=0 dv=0
PairPos2: "'kern' Horizontal Kerning in Arabic lookup 2 per glyph data 0" uni062C dx=-150 dy=0 dh=-150 dv=0 dx=0 dy=0 dh=0 dv=0
Ligature2: "'rlig' Required Ligatures in Arabic lookup 5 subtable" uniFEE0 uniFE8E
LCarets2: 1 0
Colour: ffff
EndChar

StartChar: uni060C
Encoding: 1548 1548 59
Width: 530
VWidth: 1700
Flags: HMW
LayerCount: 2
Fore
SplineSet
276 571 m 1
 346 523 l 1
 298 468 239 351 239 265 c 1
 332 265 422 228 422 136 c 0
 422 73 387 0 285 0 c 0
 187 0 136 69 136 171 c 0
 136 353 204 483 276 571 c 1
EndSplineSet
EndChar

StartChar: uni0615
Encoding: 1557 1557 61
Width: 0
VWidth: 1854
Flags: HMW
AnchorPoint: "Anchor-5" 1 1209 mark 0
AnchorPoint: "Anchor-4" 1 1209 mark 0
AnchorPoint: "Anchor-1" 1 1209 mark 0
AnchorPoint: "Anchor-1" 0 1598 basemark 0
LayerCount: 2
Fore
SplineSet
552 1516 m 0
 552 1332 329 1326 119 1324 c 2
 0 1324 l 1
 0 1424 l 1
 100 1424 l 1
 100 1837 l 1
 200 1837 l 1
 200 1573 l 1
 260 1636 327 1670 394 1670 c 0
 479 1670 552 1610 552 1516 c 0
215 1426 m 1
 404 1434 452 1464 452 1516 c 0
 452 1552 433 1570 394 1570 c 0
 350 1570 278 1533 215 1426 c 1
EndSplineSet
Colour: ff00
EndChar

StartChar: less
Encoding: 60 60 63
Width: 775
VWidth: 1819
Flags: HMW
LayerCount: 2
Fore
SplineSet
545 1179 m 1
 649 1071 l 1
 287 728 l 1
 649 384 l 1
 545 276 l 1
 69 728 l 1
 545 1179 l 1
EndSplineSet
Colour: ff00ff
EndChar

StartChar: greater
Encoding: 62 62 65
Width: 775
VWidth: 1819
Flags: HMW
LayerCount: 2
Fore
SplineSet
173 276 m 1
 69 384 l 1
 431 727 l 1
 69 1071 l 1
 173 1179 l 1
 649 727 l 1
 173 276 l 1
EndSplineSet
Colour: ff00
EndChar

StartChar: braceleft
Encoding: 123 123 66
Width: 656
VWidth: 1647
Flags: HMW
LayerCount: 2
Fore
SplineSet
606 152 m 1
 606 -22 l 1
 472 -22 l 2
 338 -22 235 69 235 189 c 2
 235 465 l 2
 235 547 183 599 119 617 c 2
 50 637 l 1
 50 773 l 1
 119 793 l 2
 183 811 235 863 235 945 c 2
 235 1221 l 2
 235 1340 337 1434 472 1434 c 2
 606 1434 l 1
 606 1258 l 1
 472 1258 l 2
 445 1258 435 1254 435 1221 c 2
 435 945 l 2
 435 849 394 765 326 705 c 1
 393 646 435 561 435 465 c 2
 435 189 l 2
 435 157 444 152 472 152 c 2
 606 152 l 1
EndSplineSet
Colour: ffff00
EndChar

StartChar: braceright
Encoding: 125 125 67
Width: 656
VWidth: 1647
Flags: HMW
LayerCount: 2
Fore
SplineSet
50 1258 m 1
 50 1434 l 1
 184 1434 l 2
 318 1434 421 1342 421 1222 c 2
 421 946 l 2
 421 864 473 812 537 794 c 2
 606 774 l 1
 606 638 l 1
 537 618 l 2
 473 600 421 548 421 466 c 2
 421 190 l 2
 421 71 319 -22 184 -22 c 2
 50 -22 l 1
 50 152 l 1
 184 152 l 2
 211 152 221 157 221 190 c 2
 221 466 l 2
 221 562 262 646 330 706 c 1
 263 765 221 850 221 946 c 2
 221 1222 l 2
 221 1254 212 1258 184 1258 c 2
 50 1258 l 1
EndSplineSet
Colour: ffff00
EndChar

StartChar: uni061F
Encoding: 1567 1567 70
Width: 1067
VWidth: 1854
Flags: HMW
LayerCount: 2
Fore
SplineSet
750 960 m 1
 948 936 l 1
 953 967 954 997 954 1024 c 0
 954 1236 812 1434 526 1434 c 0
 241 1434 100 1229 100 1022 c 0
 100 866 188 785 275 705 c 0
 359 628 441 550 441 405 c 1
 641 405 l 1
 641 599 543 682 451 757 c 0
 370 824 294 887 294 1017 c 0
 294 1143 382 1268 526 1268 c 0
 680 1268 754 1174 754 1024 c 0
 754 1001 753 981 750 960 c 1
EndSplineSet
Refer: 0 46 N -1 0 0 1 765 0 2
Colour: ffff00
EndChar

StartChar: uni0621
Encoding: 1569 1569 71
Width: 878
VWidth: 1854
Flags: HMW
AnchorPoint: "Anchor-5" 431 831 basechar 0
AnchorPoint: "Anchor-3" 431 65 basechar 0
LayerCount: 2
Fore
SplineSet
697 631 m 1
 583 535 l 1
 551 573 504 606 431 606 c 0
 348 606 259 539 259 410 c 0
 259 335 330 296 505 295 c 1
 718 383 l 1
 776 245 l 1
 161 -9 l 1
 103 129 l 1
 251 190 l 1
 170 228 109 295 109 410 c 0
 109 617 264 756 431 756 c 0
 556 756 645 693 697 631 c 1
EndSplineSet
Colour: ff00ff
EndChar

StartChar: uni0627
Encoding: 1575 1575 72
Width: 500
VWidth: 1854
Flags: HMW
AnchorPoint: "Anchor-5" 251 1211 basechar 0
AnchorPoint: "Anchor-3" 251 0 basechar 0
LayerCount: 2
Fore
SplineSet
350 -22 m 1
 150 -22 l 1
 150 1234 l 1
 350 1234 l 1
 350 -22 l 1
EndSplineSet
PairPos2: "'kern' Horizontal Kerning in Arabic lookup 2 per glyph data 1" uni063A dx=-225 dy=0 dh=-225 dv=0 dx=0 dy=0 dh=0 dv=0
PairPos2: "'kern' Horizontal Kerning in Arabic lookup 2 per glyph data 1" uni0639 dx=-225 dy=0 dh=-225 dv=0 dx=0 dy=0 dh=0 dv=0
PairPos2: "'kern' Horizontal Kerning in Arabic lookup 2 per glyph data 0" uni0639 dx=-200 dy=0 dh=-200 dv=0 dx=0 dy=0 dh=0 dv=0
PairPos2: "'kern' Horizontal Kerning in Arabic lookup 2 per glyph data 0" uni063A dx=-200 dy=0 dh=-200 dv=0 dx=0 dy=0 dh=0 dv=0
PairPos2: "'kern' Horizontal Kerning in Arabic lookup 2 per glyph data 0" uni0622 dx=200 dy=0 dh=200 dv=0 dx=0 dy=0 dh=0 dv=0
Substitution2: "'medi' Medial Forms in Arabic lookup 3 subtable" uniFE8E
Substitution2: "'fina' Terminal Forms in Arabic lookup 2 subtable" uniFE8E
Colour: ffff
EndChar

StartChar: uni062D
Encoding: 1581 1581 73
Width: 1464
VWidth: 1854
Flags: HMW
AnchorPoint: "Anchor-5" 507 853 basechar 0
AnchorPoint: "Anchor-3" 805 -736 basechar 0
LayerCount: 2
Fore
SplineSet
1344 -657 m 1
 1182 -717 1014 -761 805 -761 c 0
 477 -761 76 -620 76 -226 c 0
 76 210 532 399 972 530 c 1
 597 662 l 18
 560 674 531 678 507 678 c 0
 397 678 346 602 325 412 c 1
 126 434 l 1
 152 667 254 878 507 878 c 0
 556 878 607 872 662 852 c 10
 1297 623 l 1
 1295 415 l 1
 728 273 276 92 276 -226 c 0
 276 -438 499 -561 805 -561 c 0
 990 -561 1130 -525 1275 -470 c 1
 1344 -657 l 1
EndSplineSet
Substitution2: "'init' Initial Forms in Arabic lookup 4 subtable" uniFEA3
Substitution2: "'medi' Medial Forms in Arabic lookup 3 subtable" uniFEA4
Substitution2: "'fina' Terminal Forms in Arabic lookup 2 subtable" uniFEA2
Colour: ffff
EndChar

StartChar: uni062F
Encoding: 1583 1583 74
Width: 936
VWidth: 1854
Flags: HMW
AnchorPoint: "Anchor-5" 485 904 basechar 0
AnchorPoint: "Anchor-3" 469 0 basechar 0
LayerCount: 2
Fore
SplineSet
496 928 m 1
 724 736 858 545 858 327 c 0
 858 51 572 -25 352 -25 c 0
 267 -25 179 -14 94 9 c 1
 143 201 l 1
 212 184 283 175 352 175 c 0
 566 175 658 243 658 327 c 0
 658 457 580 598 368 776 c 1
 496 928 l 1
EndSplineSet
PairPos2: "'kern' Horizontal Kerning in Arabic lookup 2 per glyph data 3" uniFEDB dx=-300 dy=0 dh=-300 dv=0 dx=0 dy=0 dh=0 dv=0
PairPos2: "'kern' Horizontal Kerning in Arabic lookup 2 per glyph data 3" uniFB94 dx=-300 dy=0 dh=-300 dv=0 dx=0 dy=0 dh=0 dv=0
PairPos2: "'kern' Horizontal Kerning in Arabic lookup 2 per glyph data 3" uniFB90 dx=-300 dy=0 dh=-300 dv=0 dx=0 dy=0 dh=0 dv=0
PairPos2: "'kern' Horizontal Kerning in Arabic lookup 2 per glyph data 3" uni06AF dx=-300 dy=0 dh=-300 dv=0 dx=0 dy=0 dh=0 dv=0
PairPos2: "'kern' Horizontal Kerning in Arabic lookup 2 per glyph data 3" uni06A9 dx=-300 dy=0 dh=-300 dv=0 dx=0 dy=0 dh=0 dv=0
PairPos2: "'kern' Horizontal Kerning in Arabic lookup 2 per glyph data 1" uni063A dx=-250 dy=0 dh=-250 dv=0 dx=0 dy=0 dh=0 dv=0
PairPos2: "'kern' Horizontal Kerning in Arabic lookup 2 per glyph data 1" uni0639 dx=-250 dy=0 dh=-250 dv=0 dx=0 dy=0 dh=0 dv=0
Substitution2: "'fina' Terminal Forms in Arabic lookup 2 subtable" uniFEAA
Colour: ffff
EndChar

StartChar: uni0631
Encoding: 1585 1585 75
Width: 834
VWidth: 1854
Flags: HMW
AnchorPoint: "Anchor-3" 488 -402 basechar 0
AnchorPoint: "Anchor-5" 556 571 basechar 0
LayerCount: 2
Fore
SplineSet
463 534 m 1
 649 608 l 1
 716 440 756 281 756 131 c 0
 756 -175 531 -413 184 -540 c 1
 116 -352 l 1
 405 -247 556 -87 556 131 c 0
 556 245 524 382 463 534 c 1
EndSplineSet
PairPos2: "'kern' Horizontal Kerning in Arabic lookup 2 per glyph data 7" uni06CE dx=-100 dy=0 dh=-100 dv=0 dx=0 dy=0 dh=0 dv=0
PairPos2: "'kern' Horizontal Kerning in Arabic lookup 2 per glyph data 7" uni06C6 dx=-150 dy=0 dh=-150 dv=0 dx=0 dy=0 dh=0 dv=0
PairPos2: "'kern' Horizontal Kerning in Arabic lookup 2 per glyph data 7" uni06BE dx=-250 dy=0 dh=-250 dv=0 dx=0 dy=0 dh=0 dv=0
PairPos2: "'kern' Horizontal Kerning in Arabic lookup 2 per glyph data 7" uniFBE8 dx=-225 dy=0 dh=-225 dv=0 dx=0 dy=0 dh=0 dv=0
PairPos2: "'kern' Horizontal Kerning in Arabic lookup 2 per glyph data 7" uni06BA dx=-150 dy=0 dh=-150 dv=0 dx=0 dy=0 dh=0 dv=0
PairPos2: "'kern' Horizontal Kerning in Arabic lookup 2 per glyph data 7" uniE017 dx=-325 dy=0 dh=-325 dv=0 dx=0 dy=0 dh=0 dv=0
PairPos2: "'kern' Horizontal Kerning in Arabic lookup 2 per glyph data 7" uniE015 dx=-250 dy=0 dh=-250 dv=0 dx=0 dy=0 dh=0 dv=0
PairPos2: "'kern' Horizontal Kerning in Arabic lookup 2 per glyph data 7" uni06B5 dx=-112 dy=0 dh=-112 dv=0 dx=0 dy=0 dh=0 dv=0
PairPos2: "'kern' Horizontal Kerning in Arabic lookup 2 per glyph data 7" uniFB6C dx=-250 dy=0 dh=-250 dv=0 dx=0 dy=0 dh=0 dv=0
PairPos2: "'kern' Horizontal Kerning in Arabic lookup 2 per glyph data 7" uni06A4 dx=-250 dy=0 dh=-250 dv=0 dx=0 dy=0 dh=0 dv=0
PairPos2: "'kern' Horizontal Kerning in Arabic lookup 2 per glyph data 7" uni0695 dx=-150 dy=0 dh=-150 dv=0 dx=0 dy=0 dh=0 dv=0
PairPos2: "'kern' Horizontal Kerning in Arabic lookup 2 per glyph data 7" uni06D5 dx=-250 dy=0 dh=-250 dv=0 dx=0 dy=0 dh=0 dv=0
PairPos2: "'kern' Horizontal Kerning in Arabic lookup 2 per glyph data 7" uniE012 dx=-150 dy=0 dh=-150 dv=0 dx=0 dy=0 dh=0 dv=0
PairPos2: "'kern' Horizontal Kerning in Arabic lookup 2 per glyph data 4" parenleft dx=-300 dy=0 dh=-300 dv=0 dx=0 dy=0 dh=0 dv=0
PairPos2: "'kern' Horizontal Kerning in Arabic lookup 2 per glyph data 4" less dx=-420 dy=0 dh=-420 dv=0 dx=0 dy=0 dh=0 dv=0
PairPos2: "'kern' Horizontal Kerning in Arabic lookup 2 per glyph data 4" guillemotleft dx=-420 dy=0 dh=-420 dv=0 dx=0 dy=0 dh=0 dv=0
PairPos2: "'kern' Horizontal Kerning in Arabic lookup 2 per glyph data 4" bracketleft dx=-300 dy=0 dh=-300 dv=0 dx=0 dy=0 dh=0 dv=0
PairPos2: "'kern' Horizontal Kerning in Arabic lookup 2 per glyph data 3" uniFEDB dx=-300 dy=0 dh=-300 dv=0 dx=0 dy=0 dh=0 dv=0
PairPos2: "'kern' Horizontal Kerning in Arabic lookup 2 per glyph data 3" uniFB94 dx=-300 dy=0 dh=-300 dv=0 dx=0 dy=0 dh=0 dv=0
PairPos2: "'kern' Horizontal Kerning in Arabic lookup 2 per glyph data 3" uniFB90 dx=-300 dy=0 dh=-300 dv=0 dx=0 dy=0 dh=0 dv=0
PairPos2: "'kern' Horizontal Kerning in Arabic lookup 2 per glyph data 3" uni06AF dx=-300 dy=0 dh=-300 dv=0 dx=0 dy=0 dh=0 dv=0
PairPos2: "'kern' Horizontal Kerning in Arabic lookup 2 per glyph data 3" uni06A9 dx=-300 dy=0 dh=-300 dv=0 dx=0 dy=0 dh=0 dv=0
PairPos2: "'kern' Horizontal Kerning in Arabic lookup 2 per glyph data 2" uni0621 dx=-200 dy=0 dh=-200 dv=0 dx=0 dy=0 dh=0 dv=0
PairPos2: "'kern' Horizontal Kerning in Arabic lookup 2 per glyph data 2" uni064A dx=-100 dy=0 dh=-100 dv=0 dx=0 dy=0 dh=0 dv=0
PairPos2: "'kern' Horizontal Kerning in Arabic lookup 2 per glyph data 2" uni0649 dx=-100 dy=0 dh=-100 dv=0 dx=0 dy=0 dh=0 dv=0
PairPos2: "'kern' Horizontal Kerning in Arabic lookup 2 per glyph data 2" uni06CC dx=-100 dy=0 dh=-100 dv=0 dx=0 dy=0 dh=0 dv=0
PairPos2: "'kern' Horizontal Kerning in Arabic lookup 2 per glyph data 2" uniFEFB dx=-325 dy=0 dh=-325 dv=0 dx=0 dy=0 dh=0 dv=0
PairPos2: "'kern' Horizontal Kerning in Arabic lookup 2 per glyph data 2" uniFEF9 dx=-325 dy=0 dh=-325 dv=0 dx=0 dy=0 dh=0 dv=0
PairPos2: "'kern' Horizontal Kerning in Arabic lookup 2 per glyph data 2" uniFEF7 dx=-325 dy=0 dh=-325 dv=0 dx=0 dy=0 dh=0 dv=0
PairPos2: "'kern' Horizontal Kerning in Arabic lookup 2 per glyph data 2" uniFEF5 dx=-325 dy=0 dh=-325 dv=0 dx=0 dy=0 dh=0 dv=0
PairPos2: "'kern' Horizontal Kerning in Arabic lookup 2 per glyph data 2" uniFEEB dx=-250 dy=0 dh=-250 dv=0 dx=0 dy=0 dh=0 dv=0
PairPos2: "'kern' Horizontal Kerning in Arabic lookup 2 per glyph data 2" uniFEE7 dx=-225 dy=0 dh=-225 dv=0 dx=0 dy=0 dh=0 dv=0
PairPos2: "'kern' Horizontal Kerning in Arabic lookup 2 per glyph data 2" uniFEE3 dx=-250 dy=0 dh=-250 dv=0 dx=0 dy=0 dh=0 dv=0
PairPos2: "'kern' Horizontal Kerning in Arabic lookup 2 per glyph data 2" uniFEDF dx=-250 dy=0 dh=-250 dv=0 dx=0 dy=0 dh=0 dv=0
PairPos2: "'kern' Horizontal Kerning in Arabic lookup 2 per glyph data 2" uniFEDB dx=-500 dy=0 dh=-500 dv=0 dx=0 dy=0 dh=0 dv=0
PairPos2: "'kern' Horizontal Kerning in Arabic lookup 2 per glyph data 2" uniFED7 dx=-250 dy=0 dh=-250 dv=0 dx=0 dy=0 dh=0 dv=0
PairPos2: "'kern' Horizontal Kerning in Arabic lookup 2 per glyph data 2" uniFED3 dx=-250 dy=0 dh=-250 dv=0 dx=0 dy=0 dh=0 dv=0
PairPos2: "'kern' Horizontal Kerning in Arabic lookup 2 per glyph data 2" uniFECF dx=-300 dy=0 dh=-300 dv=0 dx=0 dy=0 dh=0 dv=0
PairPos2: "'kern' Horizontal Kerning in Arabic lookup 2 per glyph data 2" uniFECB dx=-300 dy=0 dh=-300 dv=0 dx=0 dy=0 dh=0 dv=0
PairPos2: "'kern' Horizontal Kerning in Arabic lookup 2 per glyph data 2" uniFEC7 dx=-300 dy=0 dh=-300 dv=0 dx=0 dy=0 dh=0 dv=0
PairPos2: "'kern' Horizontal Kerning in Arabic lookup 2 per glyph data 2" uniFEC3 dx=-300 dy=0 dh=-300 dv=0 dx=0 dy=0 dh=0 dv=0
PairPos2: "'kern' Horizontal Kerning in Arabic lookup 2 per glyph data 2" uniFEBF dx=-300 dy=0 dh=-300 dv=0 dx=0 dy=0 dh=0 dv=0
PairPos2: "'kern' Horizontal Kerning in Arabic lookup 2 per glyph data 2" uniFEBB dx=-300 dy=0 dh=-300 dv=0 dx=0 dy=0 dh=0 dv=0
PairPos2: "'kern' Horizontal Kerning in Arabic lookup 2 per glyph data 2" uniFEB7 dx=-200 dy=0 dh=-200 dv=0 dx=0 dy=0 dh=0 dv=0
PairPos2: "'kern' Horizontal Kerning in Arabic lookup 2 per glyph data 2" uniFEB3 dx=-200 dy=0 dh=-200 dv=0 dx=0 dy=0 dh=0 dv=0
PairPos2: "'kern' Horizontal Kerning in Arabic lookup 2 per glyph data 2" uniFEA7 dx=-250 dy=0 dh=-250 dv=0 dx=0 dy=0 dh=0 dv=0
PairPos2: "'kern' Horizontal Kerning in Arabic lookup 2 per glyph data 2" uniFEA3 dx=-250 dy=0 dh=-250 dv=0 dx=0 dy=0 dh=0 dv=0
PairPos2: "'kern' Horizontal Kerning in Arabic lookup 2 per glyph data 2" uniFE9F dx=-250 dy=0 dh=-250 dv=0 dx=0 dy=0 dh=0 dv=0
PairPos2: "'kern' Horizontal Kerning in Arabic lookup 2 per glyph data 2" uniFE9B dx=-225 dy=0 dh=-225 dv=0 dx=0 dy=0 dh=0 dv=0
PairPos2: "'kern' Horizontal Kerning in Arabic lookup 2 per glyph data 2" uniFE97 dx=-225 dy=0 dh=-225 dv=0 dx=0 dy=0 dh=0 dv=0
PairPos2: "'kern' Horizontal Kerning in Arabic lookup 2 per glyph data 2" uniFE91 dx=-225 dy=0 dh=-225 dv=0 dx=0 dy=0 dh=0 dv=0
PairPos2: "'kern' Horizontal Kerning in Arabic lookup 2 per glyph data 2" uniFE8B dx=-225 dy=0 dh=-225 dv=0 dx=0 dy=0 dh=0 dv=0
PairPos2: "'kern' Horizontal Kerning in Arabic lookup 2 per glyph data 2" uniFB94 dx=-400 dy=0 dh=-400 dv=0 dx=0 dy=0 dh=0 dv=0
PairPos2: "'kern' Horizontal Kerning in Arabic lookup 2 per glyph data 2" uniFB90 dx=-400 dy=0 dh=-400 dv=0 dx=0 dy=0 dh=0 dv=0
PairPos2: "'kern' Horizontal Kerning in Arabic lookup 2 per glyph data 2" uniFB7C dx=-250 dy=0 dh=-250 dv=0 dx=0 dy=0 dh=0 dv=0
PairPos2: "'kern' Horizontal Kerning in Arabic lookup 2 per glyph data 2" uni06CA dx=-150 dy=0 dh=-150 dv=0 dx=0 dy=0 dh=0 dv=0
PairPos2: "'kern' Horizontal Kerning in Arabic lookup 2 per glyph data 2" uni06C0 dx=-250 dy=0 dh=-250 dv=0 dx=0 dy=0 dh=0 dv=0
PairPos2: "'kern' Horizontal Kerning in Arabic lookup 2 per glyph data 2" uni06AF dx=-400 dy=0 dh=-400 dv=0 dx=0 dy=0 dh=0 dv=0
PairPos2: "'kern' Horizontal Kerning in Arabic lookup 2 per glyph data 2" uni06A9 dx=-400 dy=0 dh=-400 dv=0 dx=0 dy=0 dh=0 dv=0
PairPos2: "'kern' Horizontal Kerning in Arabic lookup 2 per glyph data 2" uni0698 dx=-150 dy=0 dh=-150 dv=0 dx=0 dy=0 dh=0 dv=0
PairPos2: "'kern' Horizontal Kerning in Arabic lookup 2 per glyph data 2" uni0686 dx=-125 dy=0 dh=-125 dv=0 dx=0 dy=0 dh=0 dv=0
PairPos2: "'kern' Horizontal Kerning in Arabic lookup 2 per glyph data 2" uni067E dx=-250 dy=0 dh=-250 dv=0 dx=0 dy=0 dh=0 dv=0
PairPos2: "'kern' Horizontal Kerning in Arabic lookup 2 per glyph data 2" uni0648 dx=-150 dy=0 dh=-150 dv=0 dx=0 dy=0 dh=0 dv=0
PairPos2: "'kern' Horizontal Kerning in Arabic lookup 2 per glyph data 2" uni0647 dx=-250 dy=0 dh=-250 dv=0 dx=0 dy=0 dh=0 dv=0
PairPos2: "'kern' Horizontal Kerning in Arabic lookup 2 per glyph data 2" uni0646 dx=-150 dy=0 dh=-150 dv=0 dx=0 dy=0 dh=0 dv=0
PairPos2: "'kern' Horizontal Kerning in Arabic lookup 2 per glyph data 2" uni0645 dx=-250 dy=0 dh=-250 dv=0 dx=0 dy=0 dh=0 dv=0
PairPos2: "'kern' Horizontal Kerning in Arabic lookup 2 per glyph data 2" uni0644 dx=-112 dy=0 dh=-112 dv=0 dx=0 dy=0 dh=0 dv=0
PairPos2: "'kern' Horizontal Kerning in Arabic lookup 2 per glyph data 2" uni0643 dx=-300 dy=0 dh=-300 dv=0 dx=0 dy=0 dh=0 dv=0
PairPos2: "'kern' Horizontal Kerning in Arabic lookup 2 per glyph data 2" uni0642 dx=-150 dy=0 dh=-150 dv=0 dx=0 dy=0 dh=0 dv=0
PairPos2: "'kern' Horizontal Kerning in Arabic lookup 2 per glyph data 2" uni0641 dx=-250 dy=0 dh=-250 dv=0 dx=0 dy=0 dh=0 dv=0
PairPos2: "'kern' Horizontal Kerning in Arabic lookup 2 per glyph data 2" uni0638 dx=-300 dy=0 dh=-300 dv=0 dx=0 dy=0 dh=0 dv=0
PairPos2: "'kern' Horizontal Kerning in Arabic lookup 2 per glyph data 2" uni0637 dx=-300 dy=0 dh=-300 dv=0 dx=0 dy=0 dh=0 dv=0
PairPos2: "'kern' Horizontal Kerning in Arabic lookup 2 per glyph data 2" uni0636 dx=-300 dy=0 dh=-300 dv=0 dx=0 dy=0 dh=0 dv=0
PairPos2: "'kern' Horizontal Kerning in Arabic lookup 2 per glyph data 2" uni0635 dx=-300 dy=0 dh=-300 dv=0 dx=0 dy=0 dh=0 dv=0
PairPos2: "'kern' Horizontal Kerning in Arabic lookup 2 per glyph data 2" uni0634 dx=-200 dy=0 dh=-200 dv=0 dx=0 dy=0 dh=0 dv=0
PairPos2: "'kern' Horizontal Kerning in Arabic lookup 2 per glyph data 2" uni0633 dx=-200 dy=0 dh=-200 dv=0 dx=0 dy=0 dh=0 dv=0
PairPos2: "'kern' Horizontal Kerning in Arabic lookup 2 per glyph data 2" uni0632 dx=-150 dy=0 dh=-150 dv=0 dx=0 dy=0 dh=0 dv=0
PairPos2: "'kern' Horizontal Kerning in Arabic lookup 2 per glyph data 2" uni0631 dx=-150 dy=0 dh=-150 dv=0 dx=0 dy=0 dh=0 dv=0
PairPos2: "'kern' Horizontal Kerning in Arabic lookup 2 per glyph data 2" uni0630 dx=-250 dy=0 dh=-250 dv=0 dx=0 dy=0 dh=0 dv=0
PairPos2: "'kern' Horizontal Kerning in Arabic lookup 2 per glyph data 2" uni062F dx=-250 dy=0 dh=-250 dv=0 dx=0 dy=0 dh=0 dv=0
PairPos2: "'kern' Horizontal Kerning in Arabic lookup 2 per glyph data 2" uni062E dx=-125 dy=0 dh=-125 dv=0 dx=0 dy=0 dh=0 dv=0
PairPos2: "'kern' Horizontal Kerning in Arabic lookup 2 per glyph data 2" uni062D dx=-125 dy=0 dh=-125 dv=0 dx=0 dy=0 dh=0 dv=0
PairPos2: "'kern' Horizontal Kerning in Arabic lookup 2 per glyph data 2" uni062C dx=-125 dy=0 dh=-125 dv=0 dx=0 dy=0 dh=0 dv=0
PairPos2: "'kern' Horizontal Kerning in Arabic lookup 2 per glyph data 2" uni062B dx=-250 dy=0 dh=-250 dv=0 dx=0 dy=0 dh=0 dv=0
PairPos2: "'kern' Horizontal Kerning in Arabic lookup 2 per glyph data 2" uni062A dx=-250 dy=0 dh=-250 dv=0 dx=0 dy=0 dh=0 dv=0
PairPos2: "'kern' Horizontal Kerning in Arabic lookup 2 per glyph data 2" uni0629 dx=-250 dy=0 dh=-250 dv=0 dx=0 dy=0 dh=0 dv=0
PairPos2: "'kern' Horizontal Kerning in Arabic lookup 2 per glyph data 2" uni0628 dx=-250 dy=0 dh=-250 dv=0 dx=0 dy=0 dh=0 dv=0
PairPos2: "'kern' Horizontal Kerning in Arabic lookup 2 per glyph data 2" uni0627 dx=-250 dy=0 dh=-250 dv=0 dx=0 dy=0 dh=0 dv=0
PairPos2: "'kern' Horizontal Kerning in Arabic lookup 2 per glyph data 2" uni0624 dx=-150 dy=0 dh=-150 dv=0 dx=0 dy=0 dh=0 dv=0
PairPos2: "'kern' Horizontal Kerning in Arabic lookup 2 per glyph data 2" uni0623 dx=-250 dy=0 dh=-250 dv=0 dx=0 dy=0 dh=0 dv=0
PairPos2: "'kern' Horizontal Kerning in Arabic lookup 2 per glyph data 2" uni0622 dx=-250 dy=0 dh=-250 dv=0 dx=0 dy=0 dh=0 dv=0
PairPos2: "'kern' Horizontal Kerning in Arabic lookup 2 per glyph data 2" uniFB58 dx=-100 dy=0 dh=-100 dv=0 dx=0 dy=0 dh=0 dv=0
PairPos2: "'kern' Horizontal Kerning in Arabic lookup 2 per glyph data 2" uniFEF3 dx=-100 dy=0 dh=-100 dv=0 dx=0 dy=0 dh=0 dv=0
PairPos2: "'kern' Horizontal Kerning in Arabic lookup 2 per glyph data 2" uniFBFE dx=-100 dy=0 dh=-100 dv=0 dx=0 dy=0 dh=0 dv=0
PairPos2: "'kern' Horizontal Kerning in Arabic lookup 2 per glyph data 1" uni063A dx=-200 dy=0 dh=-200 dv=0 dx=0 dy=0 dh=0 dv=0
PairPos2: "'kern' Horizontal Kerning in Arabic lookup 2 per glyph data 1" uni0639 dx=-200 dy=0 dh=-200 dv=0 dx=0 dy=0 dh=0 dv=0
Substitution2: "'fina' Terminal Forms in Arabic lookup 2 subtable" uniFEAE
Colour: ffff
EndChar

StartChar: uni0633
Encoding: 1587 1587 76
Width: 2448
VWidth: 1854
Flags: HMW
AnchorPoint: "Anchor-3" 721 -502 basechar 0
AnchorPoint: "Anchor-5" 1820 574 basechar 0
LayerCount: 2
Fore
SplineSet
1263 607 m 1
 1352 374 l 2
 1413 213 1486 175 1543 175 c 0
 1588 175 1661 215 1686 364 c 2
 1722 590 l 1
 1918 558 l 1
 1892 392 l 2
 1890 376 1890 358 1890 337 c 0
 1890 205 1958 175 2033 175 c 0
 2131 175 2170 232 2170 387 c 0
 2170 477 2149 584 2119 676 c 1
 2311 736 l 1
 2345 628 2370 505 2370 387 c 0
 2370 201 2291 -25 2033 -25 c 0
 1941 -25 1845 11 1777 87 c 1
 1716 16 1634 -25 1543 -25 c 0
 1496 -25 1450 -13 1409 5 c 1
 1369 -360 1031 -526 719 -526 c 0
 402 -526 78 -354 78 11 c 0
 78 194 169 402 366 635 c 1
 518 507 l 1
 337 294 278 126 278 11 c 0
 278 -202 457 -326 719 -326 c 0
 994 -326 1213 -188 1213 74 c 0
 1213 139 1198 212 1164 302 c 2
 1075 535 l 1
 1263 607 l 1
EndSplineSet
Substitution2: "'init' Initial Forms in Arabic lookup 4 subtable" uniFEB3
Substitution2: "'medi' Medial Forms in Arabic lookup 3 subtable" uniFEB4
Substitution2: "'fina' Terminal Forms in Arabic lookup 2 subtable" uniFEB2
Colour: ffff
EndChar

StartChar: uni0635
Encoding: 1589 1589 77
Width: 2392
VWidth: 1854
Flags: HMW
AnchorPoint: "Anchor-5" 1933 695 basechar 0
AnchorPoint: "Anchor-3" 719 -502 basechar 0
LayerCount: 2
Fore
SplineSet
1521 203 m 1
 1592 184 1667 175 1741 175 c 0
 1982 175 2113 267 2113 367 c 0
 2113 463 2050 524 1934 524 c 0
 1824 524 1662 452 1521 203 c 1
1366 335 m 1
 1530 603 1742 724 1934 724 c 0
 2136 724 2313 587 2313 367 c 0
 2313 72 1990 -25 1741 -25 c 0
 1630 -25 1514 -6 1412 29 c 1
 1386 -352 1038 -526 720 -526 c 0
 403 -526 79 -354 79 11 c 0
 79 193 170 403 367 635 c 1
 519 507 l 1
 338 295 279 127 279 11 c 0
 279 -202 459 -326 720 -326 c 0
 995 -326 1214 -187 1214 74 c 0
 1214 138 1200 213 1166 302 c 2
 1076 535 l 1
 1262 607 l 1
 1352 374 l 2
 1357 361 1362 347 1366 335 c 1
EndSplineSet
Substitution2: "'init' Initial Forms in Arabic lookup 4 subtable" uniFEBB
Substitution2: "'medi' Medial Forms in Arabic lookup 3 subtable" uniFEBC
Substitution2: "'fina' Terminal Forms in Arabic lookup 2 subtable" uniFEBA
Colour: ffff
EndChar

StartChar: uni0637
Encoding: 1591 1591 78
Width: 1515
VWidth: 1854
Flags: HMW
AnchorPoint: "Anchor-5" 1088 764 basechar 0
AnchorPoint: "Anchor-3" 768 0 basechar 0
LayerCount: 2
Back
SplineSet
378 175 m 1
 378 1411 l 1
 578 1411 l 1
 578 522 l 1
 730 689 917 765 1060 765 c 0
 1235 765 1415 648 1415 434 c 0
 1415 134 1170 -25 478 -25 c 2
 105 -25 l 1
 105 175 l 1
 378 175 l 1
592 176 m 1
 1183 192 1215 317 1215 434 c 0
 1215 514 1157 565 1060 565 c 0
 948 565 719 467 592 176 c 1
EndSplineSet
Fore
SplineSet
378 175 m 1
 378 1234 l 1
 578 1234 l 1
 578 502 l 1
 730 669 917 765 1060 765 c 0
 1235 765 1415 648 1415 434 c 0
 1415 134 1170 -25 478 -25 c 2
 105 -25 l 1
 105 175 l 1
 378 175 l 1
592 176 m 1
 1183 192 1215 317 1215 434 c 0
 1215 514 1157 565 1060 565 c 0
 948 565 719 467 592 176 c 1
EndSplineSet
Substitution2: "'init' Initial Forms in Arabic lookup 4 subtable" uniFEC3
Substitution2: "'medi' Medial Forms in Arabic lookup 3 subtable" uniFEC4
Substitution2: "'fina' Terminal Forms in Arabic lookup 2 subtable" uniFEC2
Colour: ffff
EndChar

StartChar: uni0639
Encoding: 1593 1593 79
Width: 1299
VWidth: 1906
Flags: HMW
AnchorPoint: "Anchor-3" 772 -734 basechar 0
AnchorPoint: "Anchor-5" 596 1079 basechar 0
LayerCount: 2
Fore
SplineSet
980 915 m 1
 828 787 l 1
 778 847 713 906 596 906 c 0
 479 906 354 810 354 629 c 0
 354 532 471 462 696 462 c 0
 797 462 899 478 993 495 c 1
 1034 291 l 1
 626 231 281 122 281 -217 c 0
 281 -422 481 -559 772 -559 c 0
 911 -559 1038 -525 1132 -484 c 1
 1212 -668 l 1
 1088 -722 937 -759 772 -759 c 0
 438 -759 81 -587 81 -217 c 0
 81 27 213 201 393 311 c 1
 267 361 154 462 154 629 c 0
 154 914 365 1106 596 1106 c 0
 783 1106 901 1009 980 915 c 1
EndSplineSet
Substitution2: "'init' Initial Forms in Arabic lookup 4 subtable" uniFECB
Substitution2: "'medi' Medial Forms in Arabic lookup 3 subtable" uniFECC
Substitution2: "'fina' Terminal Forms in Arabic lookup 2 subtable" uniFECA
Colour: ffff
EndChar

StartChar: uni0640
Encoding: 1600 1600 80
Width: 811
VWidth: 1854
Flags: HMW
AnchorPoint: "Anchor-5" 406 904 basechar 0
AnchorPoint: "Anchor-3" 406 0 basechar 0
LayerCount: 2
Fore
SplineSet
0 175 m 0
 811 175 l 1
 811 -25 l 1
 0 -25 l 0
 -55 -25 -100 20 -100 75 c 0
 -100 130 -55 175 0 175 c 0
EndSplineSet
Colour: ffff
EndChar

StartChar: uni0644
Encoding: 1604 1604 81
Width: 1378
VWidth: 1854
Flags: HMW
AnchorPoint: "Anchor-5" 631 712 basechar 0
AnchorPoint: "Anchor-3" 663 -502 basechar 0
LayerCount: 2
Fore
SplineSet
1067 1234 m 1
 1267 1234 l 1
 1267 126 l 2
 1267 -316 961 -528 663 -528 c 0
 383 -528 78 -341 78 -5 c 0
 78 147 129 321 234 510 c 1
 408 412 l 1
 315 245 278 103 278 -5 c 0
 278 -197 455 -328 663 -328 c 0
 865 -328 1067 -206 1067 126 c 2
 1067 1234 l 1
EndSplineSet
Substitution2: "'init' Initial Forms in Arabic lookup 4 subtable" uniFEDF
Substitution2: "'medi' Medial Forms in Arabic lookup 3 subtable" uniFEE0
Substitution2: "'fina' Terminal Forms in Arabic lookup 2 subtable" uniFEDE
Colour: ffff
EndChar

StartChar: uni0645
Encoding: 1605 1605 82
Width: 1199
VWidth: 2374
Flags: HMW
AnchorPoint: "Anchor-5" 750 696 basechar 0
AnchorPoint: "Anchor-3" 668 -50 basechar 0
LayerCount: 2
Fore
SplineSet
351 256 m 1
 377 440 474 721 760 721 c 0
 996 721 1119 501 1119 302 c 0
 1119 69 953 -24 793 -24 c 0
 687 -24 584 5 504 36 c 0
 458 54 441 60 401 60 c 0
 332 60 278 13 278 -99 c 2
 278 -783 l 1
 78 -783 l 1
 78 -99 l 2
 78 74 180 229 351 256 c 1
549 232 m 1
 633 206 716 176 793 176 c 0
 883 176 919 188 919 302 c 0
 919 437 844 521 760 521 c 0
 645 521 572 394 549 232 c 1
EndSplineSet
Substitution2: "'init' Initial Forms in Arabic lookup 4 subtable" uniFEE3
Substitution2: "'medi' Medial Forms in Arabic lookup 3 subtable" uniFEE4
Substitution2: "'fina' Terminal Forms in Arabic lookup 2 subtable" uniFEE2
Colour: ffff
EndChar

StartChar: uni0647
Encoding: 1607 1607 83
Width: 869
VWidth: 1854
Flags: HMW
AnchorPoint: "Anchor-5" 435 872 basechar 0
AnchorPoint: "Anchor-3" 435 75 basechar 0
LayerCount: 2
Fore
SplineSet
435 175 m 0
 539 175 578 221 578 306 c 0
 578 393 524 503 435 600 c 1
 347 504 291 392 291 306 c 0
 291 222 330 175 435 175 c 0
435 -25 m 0
 234 -25 91 114 91 306 c 0
 91 506 224 687 369 814 c 2
 435 872 l 1
 501 814 l 2
 646 687 778 506 778 306 c 0
 778 115 637 -25 435 -25 c 0
EndSplineSet
Substitution2: "'init' Initial Forms in Arabic lookup 4 subtable" uniFEEB
Substitution2: "'medi' Medial Forms in Arabic lookup 3 subtable" uniFEEC
Substitution2: "'fina' Terminal Forms in Arabic lookup 2 subtable" uniFEEA
Colour: ffff
EndChar

StartChar: uni0648
Encoding: 1608 1608 84
Width: 888
VWidth: 1854
Flags: HMW
AnchorPoint: "Anchor-5" 440 725 basechar 0
AnchorPoint: "Anchor-3" 444 -502 basechar 0
LayerCount: 2
Fore
SplineSet
604 -12 m 1
 558 -21 510 -26 458 -26 c 0
 273 -26 82 65 82 303 c 0
 82 507 216 750 440 750 c 0
 792 750 820 263 820 98 c 0
 820 -241 561 -432 148 -538 c 1
 98 -344 l 1
 416 -263 560 -146 604 -12 c 1
616 196 m 1
 598 404 524 550 440 550 c 0
 384 550 282 449 282 303 c 0
 282 205 321 174 458 174 c 0
 517 174 564 182 616 196 c 1
EndSplineSet
PairPos2: "'kern' Horizontal Kerning in Arabic lookup 2 per glyph data 3" uniFEDB dx=-200 dy=0 dh=-200 dv=0 dx=0 dy=0 dh=0 dv=0
PairPos2: "'kern' Horizontal Kerning in Arabic lookup 2 per glyph data 3" uniFB94 dx=-200 dy=0 dh=-200 dv=0 dx=0 dy=0 dh=0 dv=0
PairPos2: "'kern' Horizontal Kerning in Arabic lookup 2 per glyph data 3" uniFB90 dx=-200 dy=0 dh=-200 dv=0 dx=0 dy=0 dh=0 dv=0
PairPos2: "'kern' Horizontal Kerning in Arabic lookup 2 per glyph data 3" uni06AF dx=-200 dy=0 dh=-200 dv=0 dx=0 dy=0 dh=0 dv=0
PairPos2: "'kern' Horizontal Kerning in Arabic lookup 2 per glyph data 3" uni06A9 dx=-200 dy=0 dh=-200 dv=0 dx=0 dy=0 dh=0 dv=0
PairPos2: "'kern' Horizontal Kerning in Arabic lookup 2 per glyph data 1" uni063A dx=-100 dy=0 dh=-100 dv=0 dx=0 dy=0 dh=0 dv=0
PairPos2: "'kern' Horizontal Kerning in Arabic lookup 2 per glyph data 1" uni0639 dx=-100 dy=0 dh=-100 dv=0 dx=0 dy=0 dh=0 dv=0
Substitution2: "'fina' Terminal Forms in Arabic lookup 2 subtable" uniFEEE
Colour: ffff
EndChar

StartChar: uni065A
Encoding: 1626 1626 86
Width: 0
VWidth: 1854
Flags: HMW
AnchorPoint: "Anchor-1" 0 1598 basemark 0
AnchorPoint: "Anchor-1" 1 1209 mark 0
AnchorPoint: "Anchor-4" 1 1209 mark 0
AnchorPoint: "Anchor-5" 1 1209 mark 0
LayerCount: 2
Fore
SplineSet
-246 1810 m 1
 -166 1870 l 1
 -0 1648 l 1
 166 1870 l 1
 246 1810 l 1
 -0 1482 l 1
 -246 1810 l 1
EndSplineSet
Colour: ff00
EndChar

StartChar: uni066C
Encoding: 1644 1644 88
Width: 587
VWidth: 1854
Flags: HMW
LayerCount: 2
Fore
SplineSet
179 760 m 1
 121 829 l 1
 193 887 271 994 301 1065 c 1
 228 1065 120 1128 120 1237 c 0
 120 1329 189 1411 283 1411 c 0
 379 1411 467 1350 467 1202 c 0
 467 1046 293 851 179 760 c 1
EndSplineSet
EndChar

StartChar: uni066D
Encoding: 1645 1645 89
Width: 910
VWidth: 1854
Flags: HMW
LayerCount: 2
Fore
SplineSet
530 624 m 1
 380 624 l 1
 380 899 l 1
 143 762 l 1
 67 892 l 1
 305 1029 l 1
 67 1167 l 1
 143 1297 l 1
 380 1160 l 1
 380 1434 l 1
 530 1434 l 1
 530 1160 l 1
 767 1297 l 1
 843 1167 l 1
 605 1029 l 1
 843 892 l 1
 767 762 l 1
 530 899 l 1
 530 624 l 1
EndSplineSet
Colour: ff00ff
EndChar

StartChar: uni066E
Encoding: 1646 1646 90
Width: 1782
VWidth: 1854
Flags: HMW
AnchorPoint: "Anchor-5" 892 528 basechar 0
AnchorPoint: "Anchor-3" 892 0 basechar 0
LayerCount: 2
Back
SplineSet
1545 679 m 0
 1572.62207031 595.350585938 1603 499.030273438 1603 400 c 0
 1603 123 1299 75 891 75 c 0
 483 75 179 123 179 400 c 0
 179 499.030654358 209.377920874 595.350916719 237 679 c 1024
EndSplineSet
Fore
SplineSet
1451 653 m 1
 1645 705 l 1
 1687 547 l 2
 1703 489 1705 440 1705 400 c 0
 1705 11 1274 -25 892 -25 c 0
 510 -25 78 10 78 400 c 0
 78 441 82 493 97 547 c 2
 139 705 l 1
 333 653 l 1
 289 494 l 2
 280 462 278 431 278 400 c 0
 278 236 458 175 892 175 c 0
 1326 175 1505 235 1505 400 c 0
 1505 433 1504 463 1495 494 c 2
 1451 653 l 1
EndSplineSet
Substitution2: "'init' Initial Forms in Arabic lookup 4 subtable" uniFBE8
Substitution2: "'medi' Medial Forms in Arabic lookup 3 subtable" uniFBE9
Substitution2: "'fina' Terminal Forms in Arabic lookup 2 subtable" dotlessfinalBEH
Colour: ffff
EndChar

StartChar: uni066F
Encoding: 1647 1647 91
Width: 1505
VWidth: 1854
Flags: HMW
AnchorPoint: "Anchor-5" 1047 726 basechar 0
AnchorPoint: "Anchor-3" 728 -504 basechar 0
LayerCount: 2
Fore
SplineSet
278 -3 m 0
 278 -200 465 -329 728 -329 c 0
 974 -329 1167 -216 1215 -11 c 1
 1168 -20 1118 -25 1065 -25 c 0
 880 -25 689 66 689 304 c 0
 689 508 823 751 1047 751 c 0
 1399 751 1427 264 1427 99 c 0
 1427 -324 1078 -529 728 -529 c 0
 417 -529 78 -360 78 -3 c 0
 78 180 164 379 269 565 c 1
 436 461 l 1
 345 300 278 128 278 -3 c 0
1047 551 m 0
 955 551 889 436 889 304 c 0
 889 209 945 175 1065 175 c 0
 1125.69726562 175 1173.98046875 183.126953125 1225 195 c 1
 1201.4140625 375.826171875 1155.99902344 551 1047 551 c 0
EndSplineSet
Substitution2: "'init' Initial Forms in Arabic lookup 4 subtable" dotlessinitialFEH
Substitution2: "'medi' Medial Forms in Arabic lookup 3 subtable" dotlessmedialFEH
Substitution2: "'fina' Terminal Forms in Arabic lookup 2 subtable" dotlessfinalQAF
Colour: ffff
EndChar

StartChar: uni0670
Encoding: 1648 1648 92
Width: 0
VWidth: 1854
Flags: HMW
AnchorPoint: "Anchor-1" 0 1598 basemark 0
AnchorPoint: "Anchor-1" 1 1209 mark 0
AnchorPoint: "Anchor-4" 1 1209 mark 0
AnchorPoint: "Anchor-5" 1 1209 mark 0
LayerCount: 2
Fore
SplineSet
-50 1834 m 1
 50 1834 l 1
 50 1505 l 1
 -50 1505 l 1
 -50 1834 l 1
EndSplineSet
Colour: ff00
EndChar

StartChar: uni06A1
Encoding: 1697 1697 93
Width: 1752
VWidth: 1854
Flags: HMW
AnchorPoint: "Anchor-3" 892 0 basechar 0
AnchorPoint: "Anchor-5" 1313 1111 basechar 0
LayerCount: 2
Fore
SplineSet
1674 446 m 0
 1674 48 1284 -25 891 -25 c 0
 509 -25 79 11 79 400 c 0
 79 519 113 625 142 710 c 1
 332 648 l 1
 305 565 279 479 279 400 c 0
 279 235 457 175 891 175 c 0
 1213 175 1395 235 1449 334 c 1
 1406 326 1360 322 1312 322 c 0
 1127 322 936 413 936 651 c 0
 936 855 1070 1098 1294 1098 c 0
 1646 1098 1674 611 1674 446 c 0
1470 544 m 1
 1452 752 1378 898 1294 898 c 0
 1238 898 1136 797 1136 651 c 0
 1136 553 1175 522 1312 522 c 0
 1371 522 1418 530 1470 544 c 1
EndSplineSet
Substitution2: "'init' Initial Forms in Arabic lookup 4 subtable" dotlessinitialFEH
Substitution2: "'medi' Medial Forms in Arabic lookup 3 subtable" dotlessmedialFEH
Substitution2: "'fina' Terminal Forms in Arabic lookup 2 subtable" dotlessfinalFEH
Colour: ffff
EndChar

StartChar: uni06A9
Encoding: 1705 1705 94
Width: 1848
VWidth: 1854
Flags: HMW
AnchorPoint: "Anchor-5" 1304 1258 basechar 0
AnchorPoint: "Anchor-3" 868 0 basechar 0
LayerCount: 2
Fore
SplineSet
142 710 m 1
 332 648 l 1
 305 565 279 479 279 400 c 0
 279 235 457 175 891 175 c 0
 1179 175 1293 211 1293 298 c 0
 1293 408 1091 672 884 827 c 2
 844 857 l 1
 844 1048 l 1
 890 1077 l 2
 1127 1228 1404 1338 1678 1394 c 1
 1718 1198 l 1
 1491 1151 1258 1063 1057 945 c 1
 1260 779 1493 527 1493 298 c 0
 1493 -27 1111 -25 891 -25 c 0
 509 -25 79 11 79 400 c 0
 79 519 114 626 142 710 c 1
EndSplineSet
Substitution2: "'init' Initial Forms in Arabic lookup 4 subtable" uniFB90
Substitution2: "'medi' Medial Forms in Arabic lookup 3 subtable" uniFB91
Substitution2: "'fina' Terminal Forms in Arabic lookup 2 subtable" uniFB8F
Colour: ffff
EndChar

StartChar: uni06BA
Encoding: 1722 1722 95
Width: 1542
VWidth: 1854
Flags: HMW
AnchorPoint: "Anchor-3" 734 -502 basechar 0
AnchorPoint: "Anchor-5" 792 539 basechar 0
LayerCount: 2
Fore
SplineSet
278 1 m 0
 278 -201 458 -328 729 -328 c 0
 1023 -328 1264 -178 1264 86 c 0
 1264 221 1189 406 1127 543 c 1
 1311 623 l 1
 1374 485 1464 283 1464 86 c 0
 1464 -334 1077 -528 729 -528 c 0
 408 -528 78 -358 78 1 c 0
 78 184 164 413 269 599 c 1
 436 495 l 1
 345 334 278 132 278 1 c 0
EndSplineSet
Substitution2: "'init' Initial Forms in Arabic lookup 4 subtable" uniFBE8
Substitution2: "'medi' Medial Forms in Arabic lookup 3 subtable" uniFBE9
Substitution2: "'fina' Terminal Forms in Arabic lookup 2 subtable" uniFB9F
Colour: ffff
EndChar

StartChar: uni06CC
Encoding: 1740 1740 96
Width: 1449
VWidth: 1854
Flags: HMW
AnchorPoint: "Anchor-3" 775 -502 basechar 0
AnchorPoint: "Anchor-5" 463 696 basechar 0
LayerCount: 2
Fore
SplineSet
1357 781 m 1
 1283 595 l 1
 1218 621 1128 636 1035 636 c 0
 863 636 774 533 774 384 c 0
 774 298 789 274 797 267 c 0
 810 255 857 235 980 229 c 0
 1100 223 1207 207 1284 130 c 0
 1341 73 1362 -6 1362 -88 c 0
 1362 -379 1086 -528 754 -528 c 0
 349 -528 78 -338 78 -5 c 0
 78 132 103 283 152 434 c 2
 163 469 l 1
 353 409 l 1
 342 374 l 2
 299 239 278 108 278 -5 c 0
 278 -196 403 -328 754 -328 c 0
 1048 -328 1162 -213 1162 -88 c 0
 1162 -36 1151 -21 1142 -12 c 0
 1127 3 1082 23 970 29 c 0
 843 35 738 49 661 121 c 0
 587 190 574 286 574 384 c 0
 574 635 757 836 1035 836 c 0
 1148 836 1260 819 1357 781 c 1
EndSplineSet
Substitution2: "'init' Initial Forms in Arabic lookup 4 subtable" uniFEF3
Substitution2: "'medi' Medial Forms in Arabic lookup 3 subtable" uniFEF4
Substitution2: "'fina' Terminal Forms in Arabic lookup 2 subtable" uniFBFD
Colour: ffff
EndChar

StartChar: uniFBE8
Encoding: 64488 64488 100
Width: 547
VWidth: 1854
Flags: HMW
AnchorPoint: "Anchor-5" 303 791 basechar 0
AnchorPoint: "Anchor-3" 274 0 basechar 0
LayerCount: 2
Fore
SplineSet
0 175 m 0
 118 175 197 210 218 235 c 0
 249 272 269 344 269 443 c 0
 269 525 244 650 208 760 c 1
 398 822 l 1
 440 696 469 559 469 443 c 0
 469 326 452 203 372 107 c 0
 287 6 142 -25 0 -25 c 0
 -55 -25 -100 20 -100 75 c 0
 -100 130 -55 175 0 175 c 0
EndSplineSet
Colour: ffff
EndChar

StartChar: uniFBE9
Encoding: 64489 64489 101
Width: 767
VWidth: 1854
Flags: HMW
AnchorPoint: "Anchor-5" 384 594 basechar 0
AnchorPoint: "Anchor-3" 184 0 basechar 0
LayerCount: 2
Fore
SplineSet
0 175 m 0
 120 175 180 202 214 236 c 0
 256 278 284 365 284 517 c 2
 284 594 l 1
 484 594 l 1
 484 517 l 2
 484 370 510 284 550 240 c 0
 584 203 642 175 767 175 c 1
 767 -25 l 1
 597 -25 474 22 384 127 c 1
 298 22 167 -25 0 -25 c 0
 -55 -25 -100 20 -100 75 c 0
 -100 130 -55 175 0 175 c 0
EndSplineSet
Colour: ffff
EndChar

StartChar: uniFBFD
Encoding: 64509 64509 102
Width: 1473
VWidth: 1854
Flags: HMW
AnchorPoint: "Anchor-5" 883 149 basechar 0
AnchorPoint: "Anchor-3" 739 -573 basechar 0
LayerCount: 2
Fore
SplineSet
1473 175 m 1
 1473 -25 l 1
 1348 -25 l 1
 1377 -70 1391 -121 1391 -172 c 0
 1391 -458 1120 -598 739 -598 c 0
 395 -598 78 -416 78 -52 c 0
 78 120 141 322 286 557 c 1
 456 453 l 1
 324 240 278 70 278 -52 c 0
 278 -246 437 -398 739 -398 c 0
 1114 -398 1191 -260 1191 -172 c 0
 1191 -134 1141 -26 812 -26 c 2
 712 -26 l 1
 712 175 l 1
 1473 175 l 1
EndSplineSet
Colour: ffff
EndChar

StartChar: uniFE8E
Encoding: 65166 65166 109
Width: 596
VWidth: 1854
Flags: HMW
AnchorPoint: "Anchor-3" 346 0 basechar 0
AnchorPoint: "Anchor-5" 250 1211 basechar 0
LayerCount: 2
Fore
SplineSet
350 1236 m 1
 350 391 l 0
 350 307 361 257 385 228 c 0
 415 192 474 175 596 175 c 1
 596 -25 l 1
 440 -25 319 15 241 102 c 0
 180 172 150 269 150 391 c 0
 150 1236 l 1
 350 1236 l 1
EndSplineSet
PairPos2: "'kern' Horizontal Kerning in Arabic lookup 2 per glyph data 1" uni063A dx=-225 dy=0 dh=-225 dv=0 dx=0 dy=0 dh=0 dv=0
PairPos2: "'kern' Horizontal Kerning in Arabic lookup 2 per glyph data 1" uni0639 dx=-225 dy=0 dh=-225 dv=0 dx=0 dy=0 dh=0 dv=0
Colour: ffff
EndChar

StartChar: uniFEA2
Encoding: 65186 65186 110
Width: 1398
VWidth: 1854
Flags: HMW
AnchorPoint: "Anchor-3" 805 -736 basechar 0
AnchorPoint: "Anchor-5" 507 853 basechar 0
LayerCount: 2
Fore
SplineSet
1344 -657 m 1
 1182 -717 1014 -761 805 -761 c 0
 477 -761 76 -620 76 -226 c 0
 76 210 562 399 1002 530 c 1
 597 662 l 2
 560 674 531 678 507 678 c 0
 397 678 346 602 325 412 c 1
 126 434 l 1
 152 667 254 878 507 878 c 0
 556 878 607 872 662 852 c 2
 1297 623 l 1
 1295 415 l 1
 1222 397 1151 378 1082 358 c 1
 1158 248 1230 175 1398 175 c 1
 1398 -25 l 1
 1137 -25 984 125 882 295 c 1
 518 169 276 8 276 -226 c 0
 276 -438 499 -561 805 -561 c 0
 990 -561 1130 -525 1275 -470 c 1
 1344 -657 l 1
EndSplineSet
Colour: ffff
EndChar

StartChar: uniFEA3
Encoding: 65187 65187 111
Width: 1366
VWidth: 1854
Flags: HMW
AnchorPoint: "Anchor-5" 480 852 basechar 0
AnchorPoint: "Anchor-3" 708 0 basechar 0
LayerCount: 2
Fore
SplineSet
76 447 m 1
 106 629 187 877 436 877 c 0
 501 877 569 859 642 825 c 0
 847 726 1052 627 1257 528 c 1
 1257 334 l 1
 1111 304 1005 266 892 199 c 0
 703 86 444 -25 0 -25 c 0
 -55 -25 -100 20 -100 75 c 0
 -100 130 -55 175 0 175 c 0
 412 175 607 261 788 370 c 0
 839 401 894 430 951 454 c 1
 554 645 l 2
 502 671 464 677 436 677 c 0
 363 677 304 601 274 415 c 1
 76 447 l 1
EndSplineSet
Colour: ffff
EndChar

StartChar: uniFEA4
Encoding: 65188 65188 112
Width: 1366
VWidth: 1854
Flags: HMW
AnchorPoint: "Anchor-5" 480 852 basechar 0
AnchorPoint: "Anchor-3" 708 0 basechar 0
LayerCount: 2
Fore
SplineSet
1099 294 m 1
 1164 225 1217 175 1366 175 c 1
 1366 -25 l 1
 1142 -25 1005 82 908 208 c 1
 703 83 457 -25 0 -25 c 0
 -55 -25 -100 20 -100 75 c 0
 -100 130 -55 175 0 175 c 0
 412 175 607 261 788 370 c 0
 839 400 894 429 951 453 c 1
 554 645 l 2
 502 671 464 677 436 677 c 0
 363 677 304 601 274 415 c 1
 76 447 l 1
 106 629 187 877 436 877 c 0
 501 877 569 859 642 825 c 0
 847 726 1052 627 1257 528 c 1
 1257 334 l 1
 1203 322 1147 309 1099 294 c 1
EndSplineSet
Colour: ffff
EndChar

StartChar: uniFEAA
Encoding: 65194 65194 113
Width: 1180
VWidth: 1854
Flags: HMW
AnchorPoint: "Anchor-3" 421 0 basechar 0
AnchorPoint: "Anchor-5" 570 857 basechar 0
LayerCount: 2
Fore
SplineSet
1180 -25 m 1
 1028 -25 900 10 798 134 c 1
 713 21 568 -25 429 -25 c 0
 298 -25 157 16 41 107 c 1
 163 265 l 1
 239 206 338 175 429 175 c 0
 583 175 665 247 665 336 c 0
 665 361 659 392 641 434 c 2
 468 840 l 1
 652 920 l 1
 861 430 l 2
 965 184 1010 175 1180 175 c 1
 1180 -25 l 1
EndSplineSet
PairPos2: "'kern' Horizontal Kerning in Arabic lookup 2 per glyph data 3" uniFEDB dx=-300 dy=0 dh=-300 dv=0 dx=0 dy=0 dh=0 dv=0
PairPos2: "'kern' Horizontal Kerning in Arabic lookup 2 per glyph data 3" uniFB94 dx=-300 dy=0 dh=-300 dv=0 dx=0 dy=0 dh=0 dv=0
PairPos2: "'kern' Horizontal Kerning in Arabic lookup 2 per glyph data 3" uniFB90 dx=-300 dy=0 dh=-300 dv=0 dx=0 dy=0 dh=0 dv=0
PairPos2: "'kern' Horizontal Kerning in Arabic lookup 2 per glyph data 3" uni06AF dx=-300 dy=0 dh=-300 dv=0 dx=0 dy=0 dh=0 dv=0
PairPos2: "'kern' Horizontal Kerning in Arabic lookup 2 per glyph data 3" uni06A9 dx=-300 dy=0 dh=-300 dv=0 dx=0 dy=0 dh=0 dv=0
PairPos2: "'kern' Horizontal Kerning in Arabic lookup 2 per glyph data 1" uni063A dx=-250 dy=0 dh=-250 dv=0 dx=0 dy=0 dh=0 dv=0
PairPos2: "'kern' Horizontal Kerning in Arabic lookup 2 per glyph data 1" uni0639 dx=-250 dy=0 dh=-250 dv=0 dx=0 dy=0 dh=0 dv=0
Colour: ffff
EndChar

StartChar: uniFEAE
Encoding: 65198 65198 114
Width: 960
VWidth: 1854
Flags: HMW
AnchorPoint: "Anchor-5" 556 571 basechar 0
AnchorPoint: "Anchor-3" 488 -402 basechar 0
LayerCount: 2
Fore
SplineSet
463 534 m 1
 649 608 l 1
 692 501 724 398 741 298 c 1
 776 208 810 175 960 175 c 1
 960 -25 l 1
 877 -25 806 -11 747 16 c 1
 708 -235 486 -430 184 -540 c 1
 116 -352 l 1
 405 -247 556 -87 556 131 c 0
 556 245 524 382 463 534 c 1
EndSplineSet
PairPos2: "'kern' Horizontal Kerning in Arabic lookup 2 per glyph data 7" uniE017 dx=-325 dy=0 dh=-325 dv=0 dx=0 dy=0 dh=0 dv=0
PairPos2: "'kern' Horizontal Kerning in Arabic lookup 2 per glyph data 7" uniE015 dx=-250 dy=0 dh=-250 dv=0 dx=0 dy=0 dh=0 dv=0
PairPos2: "'kern' Horizontal Kerning in Arabic lookup 2 per glyph data 7" uniE012 dx=-150 dy=0 dh=-150 dv=0 dx=0 dy=0 dh=0 dv=0
PairPos2: "'kern' Horizontal Kerning in Arabic lookup 2 per glyph data 7" uni06D5 dx=-250 dy=0 dh=-250 dv=0 dx=0 dy=0 dh=0 dv=0
PairPos2: "'kern' Horizontal Kerning in Arabic lookup 2 per glyph data 7" uni06CE dx=-100 dy=0 dh=-100 dv=0 dx=0 dy=0 dh=0 dv=0
PairPos2: "'kern' Horizontal Kerning in Arabic lookup 2 per glyph data 7" uni06C6 dx=-150 dy=0 dh=-150 dv=0 dx=0 dy=0 dh=0 dv=0
PairPos2: "'kern' Horizontal Kerning in Arabic lookup 2 per glyph data 7" uni06BE dx=-250 dy=0 dh=-250 dv=0 dx=0 dy=0 dh=0 dv=0
PairPos2: "'kern' Horizontal Kerning in Arabic lookup 2 per glyph data 7" uni06BA dx=-150 dy=0 dh=-150 dv=0 dx=0 dy=0 dh=0 dv=0
PairPos2: "'kern' Horizontal Kerning in Arabic lookup 2 per glyph data 7" uni06B5 dx=-112 dy=0 dh=-112 dv=0 dx=0 dy=0 dh=0 dv=0
PairPos2: "'kern' Horizontal Kerning in Arabic lookup 2 per glyph data 7" uniFB6C dx=-250 dy=0 dh=-250 dv=0 dx=0 dy=0 dh=0 dv=0
PairPos2: "'kern' Horizontal Kerning in Arabic lookup 2 per glyph data 7" uni06A4 dx=-250 dy=0 dh=-250 dv=0 dx=0 dy=0 dh=0 dv=0
PairPos2: "'kern' Horizontal Kerning in Arabic lookup 2 per glyph data 7" uni0695 dx=-150 dy=0 dh=-150 dv=0 dx=0 dy=0 dh=0 dv=0
PairPos2: "'kern' Horizontal Kerning in Arabic lookup 2 per glyph data 7" uniFBE8 dx=-225 dy=0 dh=-225 dv=0 dx=0 dy=0 dh=0 dv=0
PairPos2: "'kern' Horizontal Kerning in Arabic lookup 2 per glyph data 4" parenleft dx=-300 dy=0 dh=-300 dv=0 dx=0 dy=0 dh=0 dv=0
PairPos2: "'kern' Horizontal Kerning in Arabic lookup 2 per glyph data 4" less dx=-420 dy=0 dh=-420 dv=0 dx=0 dy=0 dh=0 dv=0
PairPos2: "'kern' Horizontal Kerning in Arabic lookup 2 per glyph data 4" guillemotleft dx=-420 dy=0 dh=-420 dv=0 dx=0 dy=0 dh=0 dv=0
PairPos2: "'kern' Horizontal Kerning in Arabic lookup 2 per glyph data 4" bracketleft dx=-300 dy=0 dh=-300 dv=0 dx=0 dy=0 dh=0 dv=0
PairPos2: "'kern' Horizontal Kerning in Arabic lookup 2 per glyph data 3" uniFEDB dx=-300 dy=0 dh=-300 dv=0 dx=0 dy=0 dh=0 dv=0
PairPos2: "'kern' Horizontal Kerning in Arabic lookup 2 per glyph data 3" uniFB94 dx=-300 dy=0 dh=-300 dv=0 dx=0 dy=0 dh=0 dv=0
PairPos2: "'kern' Horizontal Kerning in Arabic lookup 2 per glyph data 3" uniFB90 dx=-300 dy=0 dh=-300 dv=0 dx=0 dy=0 dh=0 dv=0
PairPos2: "'kern' Horizontal Kerning in Arabic lookup 2 per glyph data 3" uni06AF dx=-300 dy=0 dh=-300 dv=0 dx=0 dy=0 dh=0 dv=0
PairPos2: "'kern' Horizontal Kerning in Arabic lookup 2 per glyph data 3" uni06A9 dx=-300 dy=0 dh=-300 dv=0 dx=0 dy=0 dh=0 dv=0
PairPos2: "'kern' Horizontal Kerning in Arabic lookup 2 per glyph data 2" uni0621 dx=-200 dy=0 dh=-200 dv=0 dx=0 dy=0 dh=0 dv=0
PairPos2: "'kern' Horizontal Kerning in Arabic lookup 2 per glyph data 2" uni064A dx=-100 dy=0 dh=-100 dv=0 dx=0 dy=0 dh=0 dv=0
PairPos2: "'kern' Horizontal Kerning in Arabic lookup 2 per glyph data 2" uni0649 dx=-100 dy=0 dh=-100 dv=0 dx=0 dy=0 dh=0 dv=0
PairPos2: "'kern' Horizontal Kerning in Arabic lookup 2 per glyph data 2" uni06CC dx=-100 dy=0 dh=-100 dv=0 dx=0 dy=0 dh=0 dv=0
PairPos2: "'kern' Horizontal Kerning in Arabic lookup 2 per glyph data 2" uniFEFB dx=-325 dy=0 dh=-325 dv=0 dx=0 dy=0 dh=0 dv=0
PairPos2: "'kern' Horizontal Kerning in Arabic lookup 2 per glyph data 2" uniFEF9 dx=-325 dy=0 dh=-325 dv=0 dx=0 dy=0 dh=0 dv=0
PairPos2: "'kern' Horizontal Kerning in Arabic lookup 2 per glyph data 2" uniFEF7 dx=-325 dy=0 dh=-325 dv=0 dx=0 dy=0 dh=0 dv=0
PairPos2: "'kern' Horizontal Kerning in Arabic lookup 2 per glyph data 2" uniFEF5 dx=-325 dy=0 dh=-325 dv=0 dx=0 dy=0 dh=0 dv=0
PairPos2: "'kern' Horizontal Kerning in Arabic lookup 2 per glyph data 2" uniFEEB dx=-250 dy=0 dh=-250 dv=0 dx=0 dy=0 dh=0 dv=0
PairPos2: "'kern' Horizontal Kerning in Arabic lookup 2 per glyph data 2" uniFEE7 dx=-225 dy=0 dh=-225 dv=0 dx=0 dy=0 dh=0 dv=0
PairPos2: "'kern' Horizontal Kerning in Arabic lookup 2 per glyph data 2" uniFEE3 dx=-250 dy=0 dh=-250 dv=0 dx=0 dy=0 dh=0 dv=0
PairPos2: "'kern' Horizontal Kerning in Arabic lookup 2 per glyph data 2" uniFEDF dx=-250 dy=0 dh=-250 dv=0 dx=0 dy=0 dh=0 dv=0
PairPos2: "'kern' Horizontal Kerning in Arabic lookup 2 per glyph data 2" uniFEDB dx=-400 dy=0 dh=-400 dv=0 dx=0 dy=0 dh=0 dv=0
PairPos2: "'kern' Horizontal Kerning in Arabic lookup 2 per glyph data 2" uniFED7 dx=-250 dy=0 dh=-250 dv=0 dx=0 dy=0 dh=0 dv=0
PairPos2: "'kern' Horizontal Kerning in Arabic lookup 2 per glyph data 2" uniFED3 dx=-250 dy=0 dh=-250 dv=0 dx=0 dy=0 dh=0 dv=0
PairPos2: "'kern' Horizontal Kerning in Arabic lookup 2 per glyph data 2" uniFECF dx=-300 dy=0 dh=-300 dv=0 dx=0 dy=0 dh=0 dv=0
PairPos2: "'kern' Horizontal Kerning in Arabic lookup 2 per glyph data 2" uniFECB dx=-300 dy=0 dh=-300 dv=0 dx=0 dy=0 dh=0 dv=0
PairPos2: "'kern' Horizontal Kerning in Arabic lookup 2 per glyph data 2" uniFEC7 dx=-300 dy=0 dh=-300 dv=0 dx=0 dy=0 dh=0 dv=0
PairPos2: "'kern' Horizontal Kerning in Arabic lookup 2 per glyph data 2" uniFEC3 dx=-300 dy=0 dh=-300 dv=0 dx=0 dy=0 dh=0 dv=0
PairPos2: "'kern' Horizontal Kerning in Arabic lookup 2 per glyph data 2" uniFEBF dx=-300 dy=0 dh=-300 dv=0 dx=0 dy=0 dh=0 dv=0
PairPos2: "'kern' Horizontal Kerning in Arabic lookup 2 per glyph data 2" uniFEBB dx=-300 dy=0 dh=-300 dv=0 dx=0 dy=0 dh=0 dv=0
PairPos2: "'kern' Horizontal Kerning in Arabic lookup 2 per glyph data 2" uniFEB7 dx=-200 dy=0 dh=-200 dv=0 dx=0 dy=0 dh=0 dv=0
PairPos2: "'kern' Horizontal Kerning in Arabic lookup 2 per glyph data 2" uniFEB3 dx=-200 dy=0 dh=-200 dv=0 dx=0 dy=0 dh=0 dv=0
PairPos2: "'kern' Horizontal Kerning in Arabic lookup 2 per glyph data 2" uniFEA7 dx=-250 dy=0 dh=-250 dv=0 dx=0 dy=0 dh=0 dv=0
PairPos2: "'kern' Horizontal Kerning in Arabic lookup 2 per glyph data 2" uniFEA3 dx=-250 dy=0 dh=-250 dv=0 dx=0 dy=0 dh=0 dv=0
PairPos2: "'kern' Horizontal Kerning in Arabic lookup 2 per glyph data 2" uniFE9F dx=-250 dy=0 dh=-250 dv=0 dx=0 dy=0 dh=0 dv=0
PairPos2: "'kern' Horizontal Kerning in Arabic lookup 2 per glyph data 2" uniFE9B dx=-225 dy=0 dh=-225 dv=0 dx=0 dy=0 dh=0 dv=0
PairPos2: "'kern' Horizontal Kerning in Arabic lookup 2 per glyph data 2" uniFE97 dx=-225 dy=0 dh=-225 dv=0 dx=0 dy=0 dh=0 dv=0
PairPos2: "'kern' Horizontal Kerning in Arabic lookup 2 per glyph data 2" uniFE91 dx=-225 dy=0 dh=-225 dv=0 dx=0 dy=0 dh=0 dv=0
PairPos2: "'kern' Horizontal Kerning in Arabic lookup 2 per glyph data 2" uniFE8B dx=-225 dy=0 dh=-225 dv=0 dx=0 dy=0 dh=0 dv=0
PairPos2: "'kern' Horizontal Kerning in Arabic lookup 2 per glyph data 2" uniFB94 dx=-400 dy=0 dh=-400 dv=0 dx=0 dy=0 dh=0 dv=0
PairPos2: "'kern' Horizontal Kerning in Arabic lookup 2 per glyph data 2" uniFB90 dx=-400 dy=0 dh=-400 dv=0 dx=0 dy=0 dh=0 dv=0
PairPos2: "'kern' Horizontal Kerning in Arabic lookup 2 per glyph data 2" uniFB7C dx=-250 dy=0 dh=-250 dv=0 dx=0 dy=0 dh=0 dv=0
PairPos2: "'kern' Horizontal Kerning in Arabic lookup 2 per glyph data 2" uni06CA dx=-150 dy=0 dh=-150 dv=0 dx=0 dy=0 dh=0 dv=0
PairPos2: "'kern' Horizontal Kerning in Arabic lookup 2 per glyph data 2" uni06C0 dx=-250 dy=0 dh=-250 dv=0 dx=0 dy=0 dh=0 dv=0
PairPos2: "'kern' Horizontal Kerning in Arabic lookup 2 per glyph data 2" uni06AF dx=-400 dy=0 dh=-400 dv=0 dx=0 dy=0 dh=0 dv=0
PairPos2: "'kern' Horizontal Kerning in Arabic lookup 2 per glyph data 2" uni06A9 dx=-400 dy=0 dh=-400 dv=0 dx=0 dy=0 dh=0 dv=0
PairPos2: "'kern' Horizontal Kerning in Arabic lookup 2 per glyph data 2" uni0698 dx=-150 dy=0 dh=-150 dv=0 dx=0 dy=0 dh=0 dv=0
PairPos2: "'kern' Horizontal Kerning in Arabic lookup 2 per glyph data 2" uni0686 dx=-125 dy=0 dh=-125 dv=0 dx=0 dy=0 dh=0 dv=0
PairPos2: "'kern' Horizontal Kerning in Arabic lookup 2 per glyph data 2" uni067E dx=-250 dy=0 dh=-250 dv=0 dx=0 dy=0 dh=0 dv=0
PairPos2: "'kern' Horizontal Kerning in Arabic lookup 2 per glyph data 2" uni0648 dx=-150 dy=0 dh=-150 dv=0 dx=0 dy=0 dh=0 dv=0
PairPos2: "'kern' Horizontal Kerning in Arabic lookup 2 per glyph data 2" uni0647 dx=-250 dy=0 dh=-250 dv=0 dx=0 dy=0 dh=0 dv=0
PairPos2: "'kern' Horizontal Kerning in Arabic lookup 2 per glyph data 2" uni0646 dx=-150 dy=0 dh=-150 dv=0 dx=0 dy=0 dh=0 dv=0
PairPos2: "'kern' Horizontal Kerning in Arabic lookup 2 per glyph data 2" uni0645 dx=-250 dy=0 dh=-250 dv=0 dx=0 dy=0 dh=0 dv=0
PairPos2: "'kern' Horizontal Kerning in Arabic lookup 2 per glyph data 2" uni0644 dx=-112 dy=0 dh=-112 dv=0 dx=0 dy=0 dh=0 dv=0
PairPos2: "'kern' Horizontal Kerning in Arabic lookup 2 per glyph data 2" uni0643 dx=-300 dy=0 dh=-300 dv=0 dx=0 dy=0 dh=0 dv=0
PairPos2: "'kern' Horizontal Kerning in Arabic lookup 2 per glyph data 2" uni0642 dx=-150 dy=0 dh=-150 dv=0 dx=0 dy=0 dh=0 dv=0
PairPos2: "'kern' Horizontal Kerning in Arabic lookup 2 per glyph data 2" uni0641 dx=-250 dy=0 dh=-250 dv=0 dx=0 dy=0 dh=0 dv=0
PairPos2: "'kern' Horizontal Kerning in Arabic lookup 2 per glyph data 2" uni0638 dx=-300 dy=0 dh=-300 dv=0 dx=0 dy=0 dh=0 dv=0
PairPos2: "'kern' Horizontal Kerning in Arabic lookup 2 per glyph data 2" uni0637 dx=-300 dy=0 dh=-300 dv=0 dx=0 dy=0 dh=0 dv=0
PairPos2: "'kern' Horizontal Kerning in Arabic lookup 2 per glyph data 2" uni0636 dx=-300 dy=0 dh=-300 dv=0 dx=0 dy=0 dh=0 dv=0
PairPos2: "'kern' Horizontal Kerning in Arabic lookup 2 per glyph data 2" uni0635 dx=-300 dy=0 dh=-300 dv=0 dx=0 dy=0 dh=0 dv=0
PairPos2: "'kern' Horizontal Kerning in Arabic lookup 2 per glyph data 2" uni0634 dx=-200 dy=0 dh=-200 dv=0 dx=0 dy=0 dh=0 dv=0
PairPos2: "'kern' Horizontal Kerning in Arabic lookup 2 per glyph data 2" uni0633 dx=-200 dy=0 dh=-200 dv=0 dx=0 dy=0 dh=0 dv=0
PairPos2: "'kern' Horizontal Kerning in Arabic lookup 2 per glyph data 2" uni0632 dx=-150 dy=0 dh=-150 dv=0 dx=0 dy=0 dh=0 dv=0
PairPos2: "'kern' Horizontal Kerning in Arabic lookup 2 per glyph data 2" uni0631 dx=-150 dy=0 dh=-150 dv=0 dx=0 dy=0 dh=0 dv=0
PairPos2: "'kern' Horizontal Kerning in Arabic lookup 2 per glyph data 2" uni0630 dx=-250 dy=0 dh=-250 dv=0 dx=0 dy=0 dh=0 dv=0
PairPos2: "'kern' Horizontal Kerning in Arabic lookup 2 per glyph data 2" uni062F dx=-250 dy=0 dh=-250 dv=0 dx=0 dy=0 dh=0 dv=0
PairPos2: "'kern' Horizontal Kerning in Arabic lookup 2 per glyph data 2" uni062E dx=-125 dy=0 dh=-125 dv=0 dx=0 dy=0 dh=0 dv=0
PairPos2: "'kern' Horizontal Kerning in Arabic lookup 2 per glyph data 2" uni062D dx=-125 dy=0 dh=-125 dv=0 dx=0 dy=0 dh=0 dv=0
PairPos2: "'kern' Horizontal Kerning in Arabic lookup 2 per glyph data 2" uni062C dx=-125 dy=0 dh=-125 dv=0 dx=0 dy=0 dh=0 dv=0
PairPos2: "'kern' Horizontal Kerning in Arabic lookup 2 per glyph data 2" uni062B dx=-250 dy=0 dh=-250 dv=0 dx=0 dy=0 dh=0 dv=0
PairPos2: "'kern' Horizontal Kerning in Arabic lookup 2 per glyph data 2" uni062A dx=-250 dy=0 dh=-250 dv=0 dx=0 dy=0 dh=0 dv=0
PairPos2: "'kern' Horizontal Kerning in Arabic lookup 2 per glyph data 2" uni0629 dx=-250 dy=0 dh=-250 dv=0 dx=0 dy=0 dh=0 dv=0
PairPos2: "'kern' Horizontal Kerning in Arabic lookup 2 per glyph data 2" uni0628 dx=-250 dy=0 dh=-250 dv=0 dx=0 dy=0 dh=0 dv=0
PairPos2: "'kern' Horizontal Kerning in Arabic lookup 2 per glyph data 2" uni0627 dx=-250 dy=0 dh=-250 dv=0 dx=0 dy=0 dh=0 dv=0
PairPos2: "'kern' Horizontal Kerning in Arabic lookup 2 per glyph data 2" uni0624 dx=-150 dy=0 dh=-150 dv=0 dx=0 dy=0 dh=0 dv=0
PairPos2: "'kern' Horizontal Kerning in Arabic lookup 2 per glyph data 2" uni0623 dx=-250 dy=0 dh=-250 dv=0 dx=0 dy=0 dh=0 dv=0
PairPos2: "'kern' Horizontal Kerning in Arabic lookup 2 per glyph data 2" uni0622 dx=-250 dy=0 dh=-250 dv=0 dx=0 dy=0 dh=0 dv=0
PairPos2: "'kern' Horizontal Kerning in Arabic lookup 2 per glyph data 2" uniFB58 dx=-100 dy=0 dh=-100 dv=0 dx=0 dy=0 dh=0 dv=0
PairPos2: "'kern' Horizontal Kerning in Arabic lookup 2 per glyph data 2" uniFEF3 dx=-100 dy=0 dh=-100 dv=0 dx=0 dy=0 dh=0 dv=0
PairPos2: "'kern' Horizontal Kerning in Arabic lookup 2 per glyph data 2" uniFBFE dx=-100 dy=0 dh=-100 dv=0 dx=0 dy=0 dh=0 dv=0
PairPos2: "'kern' Horizontal Kerning in Arabic lookup 2 per glyph data 1" uni063A dx=-200 dy=0 dh=-200 dv=0 dx=0 dy=0 dh=0 dv=0
PairPos2: "'kern' Horizontal Kerning in Arabic lookup 2 per glyph data 1" uni0639 dx=-200 dy=0 dh=-200 dv=0 dx=0 dy=0 dh=0 dv=0
Colour: ffff
EndChar

StartChar: uniFEB2
Encoding: 65202 65202 115
Width: 2684
VWidth: 1854
Flags: HMW
AnchorPoint: "Anchor-5" 1768 594 basechar 0
AnchorPoint: "Anchor-3" 719 -502 basechar 0
LayerCount: 2
Fore
SplineSet
2322 725 m 1
 2370 491 l 2
 2419 250 2435 175 2684 175 c 1
 2684 -25 l 1
 2498 -25 2379 26 2303 116 c 1
 2250 32 2161 -25 2033 -25 c 0
 1943 -25 1846 10 1779 83 c 1
 1721 15 1641 -25 1543 -25 c 0
 1495 -25 1449 -14 1409 3 c 1
 1369 -360 1030 -526 719 -526 c 0
 402 -526 78 -354 78 11 c 0
 78 194 169 402 366 635 c 1
 518 507 l 1
 337 294 278 126 278 11 c 0
 278 -202 457 -326 719 -326 c 0
 994 -326 1213 -188 1213 74 c 0
 1213 137 1200 210 1167 296 c 2
 1075 535 l 1
 1263 607 l 1
 1354 367 l 2
 1414 208 1476 175 1543 175 c 0
 1610 175 1661 207 1686 364 c 2
 1722 590 l 1
 1918 558 l 1
 1892 391 l 2
 1890 374 1890 357 1890 337 c 0
 1890 205 1958 175 2033 175 c 0
 2133 175 2169 232 2169 385 c 0
 2169 435 2166 487 2158 532 c 2
 2126 685 l 1
 2322 725 l 1
EndSplineSet
Colour: ffff
EndChar

StartChar: uniFEB3
Encoding: 65203 65203 116
Width: 1538
VWidth: 2374
Flags: HMW
AnchorPoint: "Anchor-5" 880 594 basechar 0
AnchorPoint: "Anchor-3" 881 0 basechar 0
LayerCount: 2
Back
SplineSet
1306 706 m 1
 1344 461 l 2
 1351 419 1353 383 1353 350 c 0
 1353 175 1268 75 1116 75 c 0
 924 75 849.03103855 275.994537215 883 469 c 2
 905 594 l 1
 883 469 l 2
 852.59765625 297.071289062 808 75 620 75 c 0
 452 75 402.770507812 281.970703125 380 463 c 2
 364 594 l 1
 380 463 l 2
 406.340820312 265.447265625 281.860023333 75 0 75 c 1025
EndSplineSet
Fore
SplineSet
0 175 m 0
 116 175 187 194 229 245 c 0
 271 297 284 383 284 517 c 2
 284 594 l 1
 484 594 l 1
 484 541 484 488 484 435 c 0
 484 333 508 254 540 216 c 0
 563 189 586 175 632 175 c 0
 678 175 701 189 724 216 c 0
 756 254 780 333 780 435 c 2
 780 594 l 1
 980 594 l 1
 980 435 l 2
 980 333 1004 254 1036 216 c 0
 1059 189 1082 175 1128 175 c 0
 1182 175 1208 193 1228 222 c 0
 1247 249 1260 293 1260 343 c 0
 1260 363 1258 386 1254 412 c 2
 1211 691 l 1
 1409 721 l 1
 1452 442 l 2
 1457 410 1460 378 1460 343 c 0
 1460 245 1431 157 1378 91 c 0
 1320 20 1234 -25 1128 -25 c 0
 1026 -25 937 22 880 91 c 1
 823 22 734 -25 632 -25 c 0
 516 -25 421 33 366 115 c 1
 289 26 170 -25 0 -25 c 0
 -55 -25 -100 20 -100 75 c 0
 -100 130 -55 175 0 175 c 0
EndSplineSet
Colour: ffff
EndChar

StartChar: uniFEB4
Encoding: 65204 65204 117
Width: 1735
VWidth: 2374
Flags: HMW
AnchorPoint: "Anchor-3" 881 0 basechar 0
AnchorPoint: "Anchor-5" 880 594 basechar 0
LayerCount: 2
Back
SplineSet
1731 75 m 16
 1594 75 1500 107 1440 173 c 0
 1397 220 1368 305 1344 461 c 2
 1306 706 l 1
 1344 461 l 2
 1351 419 1353 383 1353 350 c 0
 1353 175 1268 75 1116 75 c 0
 924 75 849.03103855 275.994537215 883 469 c 2
 905 594 l 1
 883 469 l 2
 852.59765625 297.071289062 808 75 620 75 c 0
 452 75 402.770507812 281.970703125 380 463 c 2
 364 594 l 1
 380 463 l 2
 406.340820312 265.447265625 281.860023333 75 0 75 c 1025
EndSplineSet
Fore
SplineSet
632 175 m 0
 685 175 721 201 743 240 c 0
 772 290 780 364 780 435 c 2
 780 594 l 1
 980 594 l 25
 980 435 l 2
 980 346 999 261 1036 216 c 0
 1059 189 1082 175 1128 175 c 0
 1179 175 1211 194 1231 226 c 0
 1249 256 1256 297 1256 343 c 0
 1256 413 1245 487 1234 551 c 2
 1211 691 l 1
 1409 721 l 1
 1441 510 l 2
 1459 392 1480 277 1547 222 c 0
 1582 194 1638 175 1735 175 c 1
 1735 -25 l 1
 1594 -25 1469 12 1386 99 c 1
 1329 23 1237 -25 1128 -25 c 0
 1024 -25 937 21 880 91 c 1
 823 21 736 -25 632 -25 c 0
 516 -25 421 33 366 115 c 1
 289 26 170 -25 0 -25 c 0
 -55 -25 -100 20 -100 75 c 0
 -100 130 -55 175 0 175 c 0
 116 175 187 194 229 245 c 0
 271 297 284 383 284 517 c 2
 284 594 l 1
 484 594 l 1
 484 541 484 488 484 435 c 0
 484 333 508 254 540 216 c 0
 563 189 586 175 632 175 c 0
EndSplineSet
Colour: ffff
EndChar

StartChar: uniFEBA
Encoding: 65210 65210 118
Width: 2486
VWidth: 1854
Flags: HMW
AnchorPoint: "Anchor-5" 1934 729 basechar 0
AnchorPoint: "Anchor-3" 719 -502 basechar 0
LayerCount: 2
Fore
SplineSet
1521 203 m 1
 1591 184 1667 175 1741 175 c 0
 1982 175 2113 267 2113 367 c 0
 2113 463 2049 524 1934 524 c 0
 1825 524 1663 453 1521 203 c 1
1076 535 m 1
 1262 607 l 1
 1352 374 l 2
 1357 361 1362 348 1366 335 c 1
 1530 604 1741 724 1934 724 c 0
 2136 724 2313 586 2313 367 c 0
 2313 312 2302 265 2283 223 c 1
 2315 195 2371 175 2486 175 c 1
 2486 -25 l 1
 2339 -25 2226 10 2149 77 c 1
 2034 4 1876 -25 1741 -25 c 0
 1631 -25 1515 -7 1412 28 c 1
 1386 -351 1039 -526 720 -526 c 0
 404 -526 79 -354 79 11 c 0
 79 194 169 403 367 636 c 1
 519 506 l 1
 339 293 279 126 279 11 c 0
 279 -202 458 -326 720 -326 c 0
 994 -326 1214 -187 1214 74 c 0
 1214 139 1201 213 1166 302 c 2
 1076 535 l 1
EndSplineSet
Colour: ffff
EndChar

StartChar: uniFEBB
Encoding: 65211 65211 119
Width: 1612
VWidth: 1854
Flags: HMW
AnchorPoint: "Anchor-5" 1167 769 basechar 0
AnchorPoint: "Anchor-3" 821 0 basechar 0
LayerCount: 2
Fore
SplineSet
0 175 m 0
 120 175 180 202 214 236 c 0
 254 277 282 359 284 502 c 2
 284 594 l 1
 484 594 l 1
 484 519 484 444 484 369 c 0
 484 324 491 293 500 272 c 1
 692 619 947 765 1157 765 c 0
 1332 765 1512 648 1512 434 c 0
 1512 120 1103 -25 829 -25 c 0
 634 -25 464 1 370 111 c 1
 291 12 151 -25 0 -25 c 0
 -55 -25 -100 20 -100 75 c 0
 -100 130 -55 175 0 175 c 0
679 183 m 1
 721 178 772 175 829 175 c 0
 1085 175 1312 326 1312 434 c 0
 1312 514 1254 565 1157 565 c 0
 1043 565 847 482 679 183 c 1
EndSplineSet
Colour: ffff
EndChar

StartChar: uniFEBC
Encoding: 65212 65212 120
Width: 1635
VWidth: 1854
Flags: HMW
AnchorPoint: "Anchor-3" 821 0 basechar 0
AnchorPoint: "Anchor-5" 1167 769 basechar 0
LayerCount: 2
Fore
SplineSet
0 175 m 0
 120 175 180 202 214 236 c 0
 268 290 284 395 284 517 c 2
 284 594 l 1
 484 594 l 1
 484 369 l 0
 484 331 490 295 500 272 c 1
 692 619 947 765 1157 765 c 0
 1332 765 1512 648 1512 434 c 0
 1512 352 1484 281 1438 222 c 1
 1473 194 1531 175 1635 175 c 1
 1635 -25 l 1
 1489 -25 1366 12 1283 92 c 1
 1145 13 969 -25 829 -25 c 0
 633 -25 467 2 370 110 c 1
 285 14 155 -25 0 -25 c 0
 -55 -25 -100 20 -100 75 c 0
 -100 130 -55 175 0 175 c 0
679 183 m 1
 721 178 772 175 829 175 c 0
 1085 175 1312 326 1312 434 c 0
 1312 514 1254 565 1157 565 c 0
 1043 565 847 482 679 183 c 1
EndSplineSet
Colour: ffff
EndChar

StartChar: uniFEC2
Encoding: 65218 65218 121
Width: 1538
VWidth: 1854
Flags: HMW
AnchorPoint: "Anchor-3" 768 0 basechar 0
AnchorPoint: "Anchor-5" 1088 764 basechar 0
LayerCount: 2
Back
SplineSet
592 176 m 1
 1183 192 1215 317 1215 434 c 0
 1215 514 1157 565 1060 565 c 0
 948 565 719 467 592 176 c 1
378 175 m 1
 378 1411 l 1
 578 1411 l 1
 578 522 l 1
 730 689 917 765 1060 765 c 0
 1235 765 1415 648 1415 434 c 0
 1415 349 1395 275 1351 213 c 1
 1389 189 1446 175 1538 175 c 1
 1538 -25 l 1
 1398 -25 1278 5 1193 85 c 1
 1045 12 814 -25 478 -25 c 2
 105 -25 l 1
 105 175 l 1
 378 175 l 1
EndSplineSet
Fore
SplineSet
592 176 m 1
 1183 192 1215 317 1215 434 c 0
 1215 514 1157 565 1060 565 c 0
 948 565 719 467 592 176 c 1
378 175 m 1
 378 1234 l 1
 578 1234 l 1
 578 502 l 1
 730 669 917 765 1060 765 c 0
 1235 765 1415 648 1415 434 c 0
 1415 349 1395 275 1351 213 c 1
 1389 189 1446 175 1538 175 c 1
 1538 -25 l 1
 1398 -25 1278 5 1193 85 c 1
 1045 12 814 -25 478 -25 c 2
 105 -25 l 1
 105 175 l 1
 378 175 l 1
EndSplineSet
Colour: ffff
EndChar

StartChar: uniFEC3
Encoding: 65219 65219 122
Width: 1317
VWidth: 1854
Flags: HMW
AnchorPoint: "Anchor-3" 548 0 basechar 0
AnchorPoint: "Anchor-5" 868 764 basechar 0
LayerCount: 2
Back
SplineSet
0 175 m 0
 158 175 l 1
 158 1411 l 1
 358 1411 l 1
 358 522 l 1
 510 689 697 765 840 765 c 0
 1015 765 1195 648 1195 434 c 0
 1195 134 950 -25 258 -25 c 2
 0 -25 l 0
 -55 -25 -100 20 -100 75 c 0
 -100 130 -55 175 0 175 c 0
372 176 m 1
 963 192 995 317 995 434 c 0
 995 514 937 565 840 565 c 0
 728 565 498 466 372 176 c 1
EndSplineSet
Fore
SplineSet
0 175 m 0
 158 175 l 1
 158 1234 l 1
 358 1234 l 1
 358 502 l 1
 510 669 697 765 840 765 c 0
 1015 765 1195 648 1195 434 c 0
 1195 134 950 -25 258 -25 c 2
 0 -25 l 0
 -55 -25 -100 20 -100 75 c 0
 -100 130 -55 175 0 175 c 0
372 176 m 1
 963 192 995 317 995 434 c 0
 995 514 937 565 840 565 c 0
 728 565 498 466 372 176 c 1
EndSplineSet
Colour: ffff
EndChar

StartChar: uniFEC4
Encoding: 65220 65220 123
Width: 1318
VWidth: 1854
Flags: HMW
AnchorPoint: "Anchor-5" 868 764 basechar 0
AnchorPoint: "Anchor-3" 548 0 basechar 0
LayerCount: 2
Back
SplineSet
0 175 m 0
 158 176 l 1
 158 1411 l 1
 358 1411 l 1
 358 522 l 1
 510 689 695 765 840 765 c 0
 1015 765 1195 648 1195 434 c 0
 1195 349 1175 275 1131 213 c 1
 1169 189 1226 175 1318 175 c 1
 1318 -25 l 1
 1178 -25 1058 5 973 85 c 1
 825 12 594 -25 258 -25 c 2
 0 -25 l 0
 -55 -25 -100 20 -100 75 c 0
 -100 130 -55 175 0 175 c 0
372 176 m 1
 963 192 995 317 995 434 c 0
 995 514 937 565 840 565 c 0
 742 565 552 489 422 274 c 0
 404 244 387 211 372 176 c 1
EndSplineSet
Fore
SplineSet
0 175 m 0
 158 176 l 1
 158 1234 l 1
 358 1234 l 1
 358 502 l 1
 510 669 695 765 840 765 c 0
 1015 765 1195 648 1195 434 c 0
 1195 349 1175 275 1131 213 c 1
 1169 189 1226 175 1318 175 c 1
 1318 -25 l 1
 1178 -25 1058 5 973 85 c 1
 825 12 594 -25 258 -25 c 2
 0 -25 l 0
 -55 -25 -100 20 -100 75 c 0
 -100 130 -55 175 0 175 c 0
372 176 m 1
 963 192 995 317 995 434 c 0
 995 514 937 565 840 565 c 0
 742 565 552 489 422 274 c 0
 404 244 387 211 372 176 c 1
EndSplineSet
Colour: ffff
EndChar

StartChar: uniFECA
Encoding: 65226 65226 124
Width: 1144
VWidth: 2374
Flags: HMW
AnchorPoint: "Anchor-3" 688 -739 basechar 0
AnchorPoint: "Anchor-5" 622 761 basechar 0
LayerCount: 2
Fore
SplineSet
65 -304 m 0
 65 -51 256 103 431 197 c 1
 310 284 218 375 127 468 c 1
 133 633 l 1
 247 723 406 786 594 786 c 0
 795 786 1022 685 1022 474 c 0
 1022 348 940 272 862 208 c 1
 945 187 1038 175 1144 175 c 1
 1144 -25 l 1
 945 -25 776 9 638 74 c 1
 438 -15 265 -131 265 -301 c 0
 265 -424 437 -565 719 -565 c 0
 826 -565 942 -542 1044 -502 c 1
 1116 -688 l 1
 991 -737 848 -765 718 -765 c 0
 398 -765 65 -604 65 -304 c 0
822 472 m 0
 822 507 748 586 597 586 c 0
 505 586 407 565 344 535 c 1
 433 449 532 362 644 296 c 1
 759 354 822 417 822 472 c 0
EndSplineSet
Colour: ffff
EndChar

StartChar: uniFECB
Encoding: 65227 65227 125
Width: 1083
VWidth: 1854
Flags: HMW
AnchorPoint: "Anchor-3" 468 0 basechar 0
AnchorPoint: "Anchor-5" 527 843 basechar 0
LayerCount: 2
Fore
SplineSet
0 175 m 0
 66 175 131 178 193 183 c 1
 137 242 103 320 103 411 c 0
 103 684 306 868 527 868 c 0
 706 868 826 777 897 686 c 1
 743 558 l 1
 702 611 640 668 527 668 c 0
 418 668 303 580 303 411 c 0
 303 298 417 245 537 245 c 0
 562 245 588 247 613 252 c 2
 911 308 l 1
 948 111 l 1
 457 17 l 2
 312 -10 163 -25 0 -25 c 0
 -55 -25 -99 21 -99 75 c 0
 -99 129 -55 175 0 175 c 0
EndSplineSet
Colour: ffff
EndChar

StartChar: uniFECC
Encoding: 65228 65228 126
Width: 996
VWidth: 1853
Flags: HMW
AnchorPoint: "Anchor-5" 519 762 basechar 0
AnchorPoint: "Anchor-3" 488 0 basechar 0
LayerCount: 2
Fore
SplineSet
0 175 m 0
 108 175 215 183 311 199 c 1
 211 270 124 350 38 431 c 1
 38 586 l 1
 148 715 322 786 519 786 c 0
 701 786 932 686 932 439 c 0
 932 339 883 253 814 191 c 1
 870 180 930 175 996 175 c 1
 996 -25 l 1
 834 -25 689 7 567 57 c 1
 406 2 205 -25 0 -25 c 0
 -55 -25 -100 20 -100 75 c 0
 -100 130 -55 175 0 175 c 0
245 511 m 1
 348 417 451 336 573 274 c 1
 668 322 732 381 732 439 c 0
 732 526 655 586 519 586 c 0
 417 586 305 553 245 511 c 1
EndSplineSet
Colour: ffff
EndChar

StartChar: uniFEDB
Encoding: 65243 65243 127
Width: 999
VWidth: 1854
Flags: HMW
AnchorPoint: "Anchor-5" 455 1258 basechar 0
AnchorPoint: "Anchor-3" 355 0 basechar 0
LayerCount: 2
Fore
SplineSet
0 175 m 0
 92 175 l 2
 373 175 444 200 444 298 c 0
 444 408 242 672 35 827 c 2
 -5 857 l 1
 -5 1048 l 1
 41 1077 l 2
 278 1228 555 1338 829 1394 c 1
 869 1198 l 1
 642 1151 407 1062 208 945 c 1
 412 778 644 527 644 298 c 0
 644 -16 319 -25 92 -25 c 2
 0 -25 l 0
 -55 -25 -100 20 -100 75 c 0
 -100 130 -55 175 0 175 c 0
EndSplineSet
MultipleSubs2: "Multiple substitution 0 subtable" uniFEDB uniE000 uniE000
Colour: ffff
EndChar

StartChar: uniFEDC
Encoding: 65244 65244 128
Width: 900
VWidth: 1854
Flags: HMW
AnchorPoint: "Anchor-5" 455 1258 basechar 0
AnchorPoint: "Anchor-3" 355 0 basechar 0
LayerCount: 2
Fore
SplineSet
0 175 m 0
 92 175 l 2
 373 175 444 200 444 298 c 0
 444 408 242 672 35 827 c 2
 -5 857 l 1
 -5 1048 l 1
 41 1077 l 2
 278 1228 555 1338 829 1394 c 1
 869 1198 l 1
 642 1151 407 1062 208 945 c 1
 387 799 587 589 634 385 c 1
 687 240 719 175 900 175 c 1
 900 -25 l 1
 747 -25 646 25 575 97 c 1
 467 -20 255 -25 92 -25 c 2
 0 -25 l 0
 -55 -25 -100 20 -100 75 c 0
 -100 130 -55 175 0 175 c 0
EndSplineSet
MultipleSubs2: "Multiple substitution 0 subtable" uniFEDC uniE000 uniE000
Colour: ffff
EndChar

StartChar: uniFEDE
Encoding: 65246 65246 129
Width: 1549
VWidth: 1854
Flags: HMW
AnchorPoint: "Anchor-3" 663 -502 basechar 0
AnchorPoint: "Anchor-5" 631 712 basechar 0
LayerCount: 2
Fore
SplineSet
1067 1234 m 1
 1267 1234 l 1
 1267 517 l 2
 1267 377 1290 291 1325 247 c 0
 1358 206 1416 175 1549 175 c 1
 1549 -25 l 1
 1438 -25 1341 -5 1263 41 c 1
 1226 -343 941 -528 663 -528 c 0
 383 -528 78 -341 78 -5 c 0
 78 147 129 321 234 510 c 1
 408 412 l 1
 315 245 278 103 278 -5 c 0
 278 -197 455 -328 663 -328 c 0
 865 -328 1067 -206 1067 126 c 2
 1067 1234 l 1
EndSplineSet
Colour: ffff
EndChar

StartChar: uniFEDF
Encoding: 65247 65247 130
Width: 596
VWidth: 1854
Flags: HMW
AnchorPoint: "Anchor-5" 346 1211 basechar 0
AnchorPoint: "Anchor-3" 242 0 basechar 0
LayerCount: 2
Fore
SplineSet
0 175 m 0
 122 175 181 192 211 228 c 0
 235 257 246 307 246 391 c 0
 246 1236 l 1
 446 1236 l 1
 446 391 l 0
 446 269 416 172 355 102 c 0
 277 15 156 -25 0 -25 c 0
 -55 -25 -100 20 -100 75 c 0
 -100 130 -55 175 0 175 c 0
EndSplineSet
Colour: ffff
EndChar

StartChar: uniFEE0
Encoding: 65248 65248 131
Width: 692
VWidth: 1854
Flags: HMW
AnchorPoint: "Anchor-3" 346 0 basechar 0
AnchorPoint: "Anchor-5" 346 1211 basechar 0
LayerCount: 2
Fore
SplineSet
0 175 m 0
 114 175 165 203 193 235 c 0
 234 286 246 370 246 474 c 2
 246 1234 l 25
 446 1234 l 25
 446 474 l 2
 446 370 458 286 499 235 c 0
 526 203 577 175 692 175 c 1
 692 -25 l 1
 547 -25 425 13 346 106 c 1
 265 11 145 -25 0 -25 c 0
 -55 -25 -100 20 -100 75 c 0
 -100 130 -55 175 0 175 c 0
EndSplineSet
Colour: ffff
EndChar

StartChar: uniFEE2
Encoding: 65250 65250 132
Width: 1329
VWidth: 2374
Flags: HMW
AnchorPoint: "Anchor-3" 668 -50 basechar 0
AnchorPoint: "Anchor-5" 750 696 basechar 0
LayerCount: 2
Fore
SplineSet
1329 -25 m 1
 1219 -25 1123 5 1042 76 c 1
 976 3 883 -24 793 -24 c 0
 689 -24 583 4 504 36 c 0
 458 54 441 60 401 60 c 0
 332 60 278 13 278 -99 c 2
 278 -783 l 1
 78 -783 l 1
 78 -99 l 2
 78 74 180 229 351 256 c 1
 377 440 474 721 760 721 c 0
 973 721 1095 539 1116 361 c 0
 1135 217 1192 175 1329 175 c 1
 1329 -25 l 1
549 232 m 1
 633 203 716 176 793 176 c 0
 883 176 919 188 919 302 c 0
 919 437 844 521 760 521 c 0
 645 521 572 394 549 232 c 1
EndSplineSet
Colour: ffff
EndChar

StartChar: uniFEE3
Encoding: 65251 65251 133
Width: 1046
VWidth: 1854
Flags: HMW
AnchorPoint: "Anchor-5" 590 744 basechar 0
AnchorPoint: "Anchor-3" 619 0 basechar 0
LayerCount: 2
Back
SplineSet
291 298 m 5
 346 193 516 75 648 75 c 4
 764 75 868 185 868 322 c 4
 868 474 762 641 605 641 c 4
 466 641 375 534 321.87890625 388.64453125 c 4
 249.257847744 189.931228208 183 75 0 75 c 1029
EndSplineSet
Fore
SplineSet
0 175 m 0
 96 175 129 203 178 303 c 0
 194 336 211 376 228 423 c 0
 286 583 404 741 605 741 c 0
 841 741 968 507 968 322 c 0
 968 138 829 -25 648 -25 c 0
 520 -25 395 45 305 125 c 1
 237 32 133 -25 0 -25 c 0
 -55 -25 -100 20 -100 75 c 0
 -100 130 -55 175 0 175 c 0
400 314 m 1
 457 243 580 175 648 175 c 0
 699 175 768 232 768 322 c 0
 768 441 683 541 605 541 c 0
 528 541 464 485 416 354 c 2
 400 314 l 1
EndSplineSet
Colour: ffff
EndChar

StartChar: uniFEE4
Encoding: 65252 65252 134
Width: 1238
VWidth: 1854
Flags: HMW
AnchorPoint: "Anchor-5" 590 744 basechar 0
AnchorPoint: "Anchor-3" 619 0 basechar 0
LayerCount: 2
Fore
SplineSet
0 175 m 0
 96 175 129 203 178 303 c 0
 194 336 211 376 228 423 c 0
 286 583 404 741 605 741 c 0
 820 741 945 546 965 371 c 1
 972 315 993 274 1014 247 c 0
 1047 206 1105 175 1238 175 c 1
 1238 -25 l 1
 1094 -25 971 8 886 91 c 1
 828 20 744 -25 648 -25 c 0
 520 -25 395 45 305 125 c 1
 237 32 133 -25 0 -25 c 0
 -55 -25 -100 20 -100 75 c 0
 -100 130 -55 175 0 175 c 0
400 314 m 1
 457 243 580 175 648 175 c 0
 699 175 768 232 768 322 c 0
 768 441 683 541 605 541 c 0
 528 541 464 485 416 354 c 2
 400 314 l 1
EndSplineSet
Colour: ffff
EndChar

StartChar: uniFEEA
Encoding: 65258 65258 135
Width: 1041
VWidth: 2374
Flags: HMW
AnchorPoint: "Anchor-5" 493 1003 basechar 0
AnchorPoint: "Anchor-3" 513 0 basechar 0
LayerCount: 2
Fore
SplineSet
581 710 m 1
 389 668 280 574 280 497 c 0
 280 429 335 380 477 380 c 0
 505 380 557 389 600 398 c 1
 598 421 596 444 595 468 c 2
 581 710 l 1
1041 175 m 1
 1041 -25 l 1
 896 -25 774 12 694 107 c 0
 670 136 653 167 640 199 c 1
 585 187 526 180 477 180 c 0
 303 180 80 261 80 497 c 0
 80 746 333 868 569 912 c 1
 563 1007 l 1
 763 1019 l 1
 795 480 l 2
 803 345 820 270 848 235 c 0
 875 203 926 175 1041 175 c 1
EndSplineSet
Colour: ffff
EndChar

StartChar: uniFEEB
Encoding: 65259 65259 136
Width: 1293
VWidth: 1854
Flags: HMW
AnchorPoint: "Anchor-5" 578 952 basechar 0
AnchorPoint: "Anchor-3" 678 28 basechar 0
LayerCount: 2
Fore
SplineSet
0 175 m 0
 79 175 154 180 222 190 c 1
 151 256 97 349 97 461 c 0
 97 623 193 740 300 801 c 1
 250 842 209 883 175 920 c 1
 323 1054 l 1
 395 974 519 871 673 816 c 0
 897 736 1215 606 1215 310 c 0
 1215 129 1085 -25 854 -25 c 0
 760 -25 589 4 473 46 c 1
 339 -3 175 -25 0 -25 c 0
 -55 -25 -100 20 -100 75 c 0
 -100 130 -55 175 0 175 c 0
697 197 m 1
 757 186 819 175 854 175 c 0
 967 175 1015 229 1015 310 c 0
 1015 393 942 475 803 547 c 1
 803 397 780 286 697 197 c 1
474 262 m 1
 548 286 621 422 621 527 c 0
 621 598 588 656 499 656 c 0
 414 656 297 582 297 461 c 0
 297 385 373 308 474 262 c 1
EndSplineSet
Colour: ffff
EndChar

StartChar: uniFEEC
Encoding: 65260 65260 137
Width: 986
VWidth: 1854
Flags: HMW
AnchorPoint: "Anchor-5" 494 782 basechar 0
AnchorPoint: "Anchor-3" 494 -538 basechar 0
LayerCount: 2
Fore
SplineSet
330 203 m 1
 579 252 655 349 655 447 c 0
 655 572 616 592 544 592 c 0
 442 592 347 487 330 203 c 1
693 -527 m 1
 656 -527 l 0
 400 -527 197 -287 143 -21 c 1
 94 -24 50 -25 0 -25 c 0
 -55 -25 -100 20 -100 75 c 0
 -100 130 -55 175 0 175 c 0
 45 175 90 177 129 179 c 1
 141 500 255 792 544 792 c 0
 728 792 855 655 855 447 c 0
 855 197 634 55 342 2 c 1
 381 -166 495 -286 600 -318 c 1
 600 -160 l 2
 600 84 784 175 986 175 c 1
 986 -25 l 1
 831 -25 800 -51 800 -160 c 0
 800 -251 800 -343 800 -434 c 1
 693 -527 l 1
EndSplineSet
Colour: ffff
EndChar

StartChar: zero
Encoding: 48 48 139
Width: 1119
VWidth: 1816
Flags: HMW
LayerCount: 2
Fore
SplineSet
560 122 m 0
 782 122 869 405 869 706 c 0
 869 1007 782 1288 560 1288 c 0
 338 1288 250 1007 250 706 c 0
 250 405 338 122 560 122 c 0
560 -42 m 0
 118 -42 50 431 50 706 c 0
 50 981 118 1454 560 1454 c 0
 1002 1454 1069 981 1069 706 c 0
 1069 431 1002 -42 560 -42 c 0
EndSplineSet
Colour: ffff00
EndChar

StartChar: one
Encoding: 49 49 140
Width: 721
VWidth: 1819
Flags: HMW
LayerCount: 2
Fore
SplineSet
121 1044 m 1
 119 1198 l 1
 211 1199 l 2
 384 1201 401 1242 401 1434 c 1
 601 1434 l 1
 601 -22 l 1
 401 -22 l 1
 401 1070 l 1
 345 1052 282 1046 213 1045 c 2
 121 1044 l 1
EndSplineSet
Colour: ffff00
EndChar

StartChar: two
Encoding: 50 50 141
Width: 1126
VWidth: 1816
Flags: HMW
LayerCount: 2
Fore
SplineSet
1031 142 m 1
 1031 -22 l 1
 50 -22 l 1
 50 185 l 1
 634 637 l 2
 765 732 831 842 831 980 c 0
 831 1195 683 1288 541 1288 c 0
 399 1288 251 1195 251 980 c 1
 51 980 l 1
 51 1285 293 1454 541 1454 c 0
 789 1454 1031 1285 1031 980 c 0
 1031 786 929 624 762 503 c 2
 305 142 l 1
 1031 142 l 1
EndSplineSet
Colour: ffff00
EndChar

StartChar: three
Encoding: 51 51 142
Width: 1079
VWidth: 1816
Flags: HMW
LayerCount: 2
Fore
SplineSet
309 1067 m 1
 109 1067 l 1
 109 1334 348 1454 561 1454 c 0
 778 1454 1010 1321 1010 1058 c 0
 1010 941 955 820 861 754 c 1
 975 681 1049 537 1049 376 c 0
 1049 75 772 -42 548 -42 c 0
 311 -42 50 96 50 388 c 1
 250 388 l 1
 250 208 391 122 548 122 c 0
 708 122 849 197 849 376 c 0
 849 575 712 673 539 673 c 2
 466 673 l 1
 466 828 l 1
 539 828 l 2
 712 828 810 933 810 1058 c 0
 810 1214 693 1289 561 1289 c 0
 423 1289 309 1220 309 1067 c 1
EndSplineSet
Colour: ffff00
EndChar

StartChar: four
Encoding: 52 52 143
Width: 1217
VWidth: 1816
Flags: HMW
LayerCount: 2
Fore
SplineSet
1097 470 m 1
 1097 314 l 1
 934 314 l 1
 934 -22 l 1
 734 -22 l 1
 734 314 l 1
 50 314 l 1
 50 455 l 1
 730 1434 l 1
 934 1434 l 1
 934 470 l 1
 1097 470 l 1
734 470 m 1
 734 1157 l 1
 252 470 l 1
 734 470 l 1
EndSplineSet
Colour: ffff00
EndChar

StartChar: five
Encoding: 53 53 144
Width: 1112
VWidth: 1816
Flags: HMW
LayerCount: 2
Fore
SplineSet
50 351 m 1
 250 351 l 1
 250 220 341 122 498 122 c 0
 710 122 817 221 817 481 c 0
 817 728 676 861 506 861 c 0
 405 861 293 821 195 745 c 1
 65 800 l 1
 126 1434 l 1
 992 1434 l 1
 992 1268 l 1
 310 1268 l 1
 284 977 l 1
 357 1003 428 1014 498 1014 c 0
 836 1014 1017 774 1017 481 c 0
 1017 159 830 -42 498 -42 c 0
 217 -42 50 148 50 351 c 1
EndSplineSet
Colour: ffff00
EndChar

StartChar: six
Encoding: 54 54 145
Width: 1095
VWidth: 1816
Flags: HMW
LayerCount: 2
Fore
SplineSet
564 758 m 0
 472 758 355 717 251 625 c 1
 262 341 335 122 563 122 c 0
 733 122 845 287 845 436 c 0
 845 653 711 758 564 758 c 0
50 689 m 0
 50 1121 241 1454 593 1454 c 0
 758 1454 899 1400 1014 1300 c 1
 914 1186 l 1
 813 1258 713 1293 622 1293 c 0
 434 1293 287 1123 259 833 c 1
 358 886 463 914 564 914 c 0
 837 914 1045 727 1045 436 c 0
 1045 221 875 -42 563 -42 c 0
 106 -42 50 397 50 689 c 0
EndSplineSet
Colour: ffff00
EndChar

StartChar: seven
Encoding: 55 55 146
Width: 1059
VWidth: 1816
Flags: HMW
LayerCount: 2
Fore
SplineSet
120 1268 m 1
 120 1434 l 1
 994 1434 l 1
 1045 1304 l 1
 447 -32 l 1
 261 32 l 1
 814 1268 l 1
 120 1268 l 1
EndSplineSet
Colour: ffff00
EndChar

StartChar: eight
Encoding: 56 56 147
Width: 1057
VWidth: 1816
Flags: HMW
LayerCount: 2
Fore
SplineSet
765 764 m 1
 887 697 1007 516 1007 366 c 0
 1007 134 815 -42 529 -42 c 0
 243 -42 50 133 50 366 c 0
 50 517 168 698 290 765 c 1
 203 815 114 962 114 1084 c 0
 114 1253 244 1454 529 1454 c 0
 814 1454 943 1252 943 1084 c 0
 943 961 853 814 765 764 c 1
250 366 m 0
 250 225 345 122 529 122 c 0
 713 122 807 224 807 366 c 0
 807 535 672 668 528 668 c 0
 378 668 250 539 250 366 c 0
743 1084 m 0
 743 1186 682 1288 529 1288 c 0
 376 1288 314 1185 314 1084 c 0
 314 932 371 862 528 862 c 0
 684 862 743 932 743 1084 c 0
EndSplineSet
Colour: ffff00
EndChar

StartChar: nine
Encoding: 57 57 148
Width: 1095
VWidth: 1816
Flags: HMW
LayerCount: 2
Fore
SplineSet
531 654 m 0
 623 654 740 695 844 787 c 1
 833 1071 760 1290 532 1290 c 0
 362 1290 250 1125 250 976 c 0
 250 759 384 654 531 654 c 0
1045 723 m 0
 1045 291 854 -42 502 -42 c 0
 337 -42 196 12 81 112 c 1
 181 226 l 1
 282 154 382 119 473 119 c 0
 661 119 808 289 836 579 c 1
 737 526 632 498 531 498 c 0
 258 498 50 685 50 976 c 0
 50 1191 220 1454 532 1454 c 0
 989 1454 1045 1015 1045 723 c 0
EndSplineSet
Colour: ffff00
EndChar

StartChar: uni0622
Encoding: 1570 1570 149
Width: 560
VWidth: 1854
Flags: HMW
AnchorPoint: "Anchor-5" 280 1472 basechar 0
AnchorPoint: "Anchor-3" 280 0 basechar 0
LayerCount: 2
Fore
SplineSet
710 1462 m 1
 620 1355 545 1300 427 1300 c 0
 367 1300 311 1316 258 1332 c 0
 207 1348 160 1358 134 1358 c 0
 72 1358 45 1330 -26 1242 c 1
 -150 1342 l 1
 -69 1442 4 1518 134 1518 c 0
 194 1518 249 1502 302 1486 c 0
 353 1471 401 1460 427 1460 c 0
 493 1460 520 1483 588 1564 c 1
 710 1462 l 1
380 0 m 1
 180 0 l 1
 180 1111 l 1
 380 1111 l 1
 380 0 l 1
EndSplineSet
PairPos2: "'kern' Horizontal Kerning in Arabic lookup 2 per glyph data 5" uniE017 dx=100 dy=0 dh=100 dv=0 dx=0 dy=0 dh=0 dv=0
PairPos2: "'kern' Horizontal Kerning in Arabic lookup 2 per glyph data 5" uniE015 dx=100 dy=0 dh=100 dv=0 dx=0 dy=0 dh=0 dv=0
PairPos2: "'kern' Horizontal Kerning in Arabic lookup 2 per glyph data 5" uni06B5 dx=100 dy=0 dh=100 dv=0 dx=0 dy=0 dh=0 dv=0
PairPos2: "'kern' Horizontal Kerning in Arabic lookup 2 per glyph data 5" uniFB6C dx=150 dy=0 dh=150 dv=0 dx=0 dy=0 dh=0 dv=0
PairPos2: "'kern' Horizontal Kerning in Arabic lookup 2 per glyph data 5" uniE012 dx=100 dy=0 dh=100 dv=0 dx=0 dy=0 dh=0 dv=0
PairPos2: "'kern' Horizontal Kerning in Arabic lookup 2 per glyph data 1" uni063A dx=-225 dy=0 dh=-225 dv=0 dx=0 dy=0 dh=0 dv=0
PairPos2: "'kern' Horizontal Kerning in Arabic lookup 2 per glyph data 1" uni0639 dx=-225 dy=0 dh=-225 dv=0 dx=0 dy=0 dh=0 dv=0
PairPos2: "'kern' Horizontal Kerning in Arabic lookup 2 per glyph data 0" uni06AF dx=200 dy=0 dh=200 dv=0 dx=0 dy=0 dh=0 dv=0
PairPos2: "'kern' Horizontal Kerning in Arabic lookup 2 per glyph data 0" uni06A9 dx=200 dy=0 dh=200 dv=0 dx=0 dy=0 dh=0 dv=0
PairPos2: "'kern' Horizontal Kerning in Arabic lookup 2 per glyph data 0" uniFEDB dx=200 dy=0 dh=200 dv=0 dx=0 dy=0 dh=0 dv=0
PairPos2: "'kern' Horizontal Kerning in Arabic lookup 2 per glyph data 0" uniFB94 dx=200 dy=0 dh=200 dv=0 dx=0 dy=0 dh=0 dv=0
PairPos2: "'kern' Horizontal Kerning in Arabic lookup 2 per glyph data 0" uniFB90 dx=200 dy=0 dh=200 dv=0 dx=0 dy=0 dh=0 dv=0
PairPos2: "'kern' Horizontal Kerning in Arabic lookup 2 per glyph data 0" uniFED7 dx=150 dy=0 dh=150 dv=0 dx=0 dy=0 dh=0 dv=0
PairPos2: "'kern' Horizontal Kerning in Arabic lookup 2 per glyph data 0" uniFED3 dx=150 dy=0 dh=150 dv=0 dx=0 dy=0 dh=0 dv=0
PairPos2: "'kern' Horizontal Kerning in Arabic lookup 2 per glyph data 0" uniFE9B dx=150 dy=0 dh=150 dv=0 dx=0 dy=0 dh=0 dv=0
PairPos2: "'kern' Horizontal Kerning in Arabic lookup 2 per glyph data 0" uniFE97 dx=150 dy=0 dh=150 dv=0 dx=0 dy=0 dh=0 dv=0
PairPos2: "'kern' Horizontal Kerning in Arabic lookup 2 per glyph data 0" uni0639 dx=-200 dy=0 dh=-200 dv=0 dx=0 dy=0 dh=0 dv=0
PairPos2: "'kern' Horizontal Kerning in Arabic lookup 2 per glyph data 0" uni063A dx=-200 dy=0 dh=-200 dv=0 dx=0 dy=0 dh=0 dv=0
PairPos2: "'kern' Horizontal Kerning in Arabic lookup 2 per glyph data 0" uni0622 dx=400 dy=0 dh=400 dv=0 dx=0 dy=0 dh=0 dv=0
PairPos2: "'kern' Horizontal Kerning in Arabic lookup 2 per glyph data 0" uni0627 dx=200 dy=0 dh=200 dv=0 dx=0 dy=0 dh=0 dv=0
PairPos2: "'kern' Horizontal Kerning in Arabic lookup 2 per glyph data 0" uni0623 dx=200 dy=0 dh=200 dv=0 dx=0 dy=0 dh=0 dv=0
PairPos2: "'kern' Horizontal Kerning in Arabic lookup 2 per glyph data 0" uni0625 dx=200 dy=0 dh=200 dv=0 dx=0 dy=0 dh=0 dv=0
PairPos2: "'kern' Horizontal Kerning in Arabic lookup 2 per glyph data 0" uniFE8B dx=100 dy=0 dh=100 dv=0 dx=0 dy=0 dh=0 dv=0
PairPos2: "'kern' Horizontal Kerning in Arabic lookup 2 per glyph data 0" uni0644 dx=100 dy=0 dh=100 dv=0 dx=0 dy=0 dh=0 dv=0
PairPos2: "'kern' Horizontal Kerning in Arabic lookup 2 per glyph data 0" uniFEDF dx=100 dy=0 dh=100 dv=0 dx=0 dy=0 dh=0 dv=0
PairPos2: "'kern' Horizontal Kerning in Arabic lookup 2 per glyph data 0" uniFEFB dx=100 dy=0 dh=100 dv=0 dx=0 dy=0 dh=0 dv=0
PairPos2: "'kern' Horizontal Kerning in Arabic lookup 2 per glyph data 0" uniFEF9 dx=100 dy=0 dh=100 dv=0 dx=0 dy=0 dh=0 dv=0
PairPos2: "'kern' Horizontal Kerning in Arabic lookup 2 per glyph data 0" uniFEF7 dx=100 dy=0 dh=100 dv=0 dx=0 dy=0 dh=0 dv=0
PairPos2: "'kern' Horizontal Kerning in Arabic lookup 2 per glyph data 0" uniFEF5 dx=100 dy=0 dh=100 dv=0 dx=0 dy=0 dh=0 dv=0
Ligature2: "'liga' Standard Ligatures in Arabic lookup 9 subtable" uni0627 uni0653
Substitution2: "'fina' Terminal Forms in Arabic lookup 2 subtable" uniFE82
LCarets2: 1 0
Colour: ffff
EndChar

StartChar: uni0643
Encoding: 1603 1603 168
Width: 1585
VWidth: 1854
Flags: HMW
AnchorPoint: "Anchor-5" 810 971 basechar 0
AnchorPoint: "Anchor-3" 868 0 basechar 0
LayerCount: 2
Fore
SplineSet
1265 1234 m 1
 1465 1234 l 1
 1465 517 l 2
 1465 358 1443 220 1358 116 c 0
 1240 -27 1054 -25 868 -25 c 0
 484 -25 78 14 78 400 c 0
 78 484 94 578 112 653 c 1
 306 607 l 1
 291 544 278 458 278 400 c 0
 278 232 436 175 868 175 c 0
 1068 175 1162 193 1204 244 c 0
 1241 288 1265 374 1265 517 c 2
 1265 1234 l 1
EndSplineSet
Refer: 25 1620 N 1 0 0 1 811 -892 2
Substitution2: "'init' Initial Forms in Arabic lookup 4 subtable" uniFEDB
Substitution2: "'medi' Medial Forms in Arabic lookup 3 subtable" uniFEDC
Substitution2: "'fina' Terminal Forms in Arabic lookup 2 subtable" uniFEDA
Colour: ffff
EndChar

StartChar: uniFEEE
Encoding: 65262 65262 194
Width: 898
VWidth: 1854
Flags: HMW
AnchorPoint: "Anchor-3" 412 -502 basechar 0
AnchorPoint: "Anchor-5" 440 726 basechar 0
LayerCount: 2
Fore
SplineSet
807 -25 m 1
 749 -288 509 -446 148 -538 c 1
 98 -344 l 1
 406 -265 551 -153 599 -25 c 1
 458 -25 l 2
 273 -25 82 66 82 304 c 0
 82 508 216 751 440 751 c 0
 754 751 807 354 818 175 c 1
 898 175 l 1
 898 -25 l 1
 807 -25 l 1
617 175 m 1
 602 389 528 551 440 551 c 0
 384 551 282 450 282 304 c 0
 282 206 321 175 458 175 c 2
 617 175 l 1
EndSplineSet
PairPos2: "'kern' Horizontal Kerning in Arabic lookup 2 per glyph data 3" uniFEDB dx=-200 dy=0 dh=-200 dv=0 dx=0 dy=0 dh=0 dv=0
PairPos2: "'kern' Horizontal Kerning in Arabic lookup 2 per glyph data 3" uniFB94 dx=-200 dy=0 dh=-200 dv=0 dx=0 dy=0 dh=0 dv=0
PairPos2: "'kern' Horizontal Kerning in Arabic lookup 2 per glyph data 3" uniFB90 dx=-200 dy=0 dh=-200 dv=0 dx=0 dy=0 dh=0 dv=0
PairPos2: "'kern' Horizontal Kerning in Arabic lookup 2 per glyph data 3" uni06AF dx=-200 dy=0 dh=-200 dv=0 dx=0 dy=0 dh=0 dv=0
PairPos2: "'kern' Horizontal Kerning in Arabic lookup 2 per glyph data 3" uni06A9 dx=-200 dy=0 dh=-200 dv=0 dx=0 dy=0 dh=0 dv=0
PairPos2: "'kern' Horizontal Kerning in Arabic lookup 2 per glyph data 1" uni063A dx=-100 dy=0 dh=-100 dv=0 dx=0 dy=0 dh=0 dv=0
PairPos2: "'kern' Horizontal Kerning in Arabic lookup 2 per glyph data 1" uni0639 dx=-100 dy=0 dh=-100 dv=0 dx=0 dy=0 dh=0 dv=0
Colour: ffff
EndChar

StartChar: uniFEDA
Encoding: 65242 65242 231
Width: 1748
VWidth: 1854
Flags: HMW
AnchorPoint: "Anchor-5" 809 971 basechar 0
AnchorPoint: "Anchor-3" 868 0 basechar 0
LayerCount: 2
Fore
SplineSet
1366 126 m 1
 1250 -24 1060 -25 868 -25 c 0
 484 -25 78 14 78 400 c 0
 78 484 94 578 112 653 c 1
 306 607 l 1
 291 544 278 458 278 400 c 0
 278 232 436 175 868 175 c 0
 1068 175 1162 193 1204 244 c 0
 1251 301 1265 401 1265 517 c 2
 1265 1234 l 25
 1465 1234 l 25
 1465 517 l 2
 1465 402 1479 304 1525 247 c 0
 1558 205 1615 175 1748 175 c 1
 1748 -25 l 1
 1585 -25 1450 18 1366 126 c 1
EndSplineSet
Refer: 25 1620 N 1 0 0 1 824 -892 2
Colour: ffff
EndChar

StartChar: uniFB8F
Encoding: 64399 64399 238
Width: 1744
VWidth: 1854
Flags: HMW
AnchorPoint: "Anchor-3" 868 0 basechar 0
AnchorPoint: "Anchor-5" 1304 1258 basechar 0
LayerCount: 2
Fore
SplineSet
1678 1394 m 1
 1718 1198 l 1
 1491 1151 1256 1062 1057 945 c 1
 1234 800 1432 592 1481 390 c 1
 1536 238 1561 175 1744 175 c 1
 1744 -25 l 1
 1589 -25 1488 26 1419 99 c 1
 1297 -26 1051 -25 891 -25 c 0
 509 -25 79 11 79 400 c 0
 79 519 113 625 142 710 c 1
 332 648 l 1
 305 565 279 479 279 400 c 0
 279 235 457 175 891 175 c 0
 1179 175 1293 211 1293 298 c 0
 1293 408 1091 672 884 827 c 2
 844 857 l 1
 844 1048 l 1
 890 1077 l 2
 1127 1228 1404 1338 1678 1394 c 1
EndSplineSet
Colour: ffff
EndChar

StartChar: exclam
Encoding: 33 33 246
Width: 613
VWidth: 1647
Flags: HMW
LayerCount: 2
Fore
SplineSet
406 391 m 1
 206 391 l 1
 206 1434 l 1
 406 1434 l 1
 406 391 l 1
EndSplineSet
Refer: 0 46 N 1 0 0 1 80 0 2
Colour: ffff
EndChar

StartChar: uni066B
Encoding: 1643 1643 247
Width: 787
VWidth: 1854
Flags: HMW
LayerCount: 2
Fore
SplineSet
267 -303 m 1
 81 -231 l 1
 529 913 l 1
 715 841 l 1
 267 -303 l 1
EndSplineSet
PairPos2: "'kern' Horizontal Kerning in Arabic lookup 3 per glyph data 1" uni066B dx=-50 dy=0 dh=-50 dv=0 dx=0 dy=0 dh=0 dv=0
PairPos2: "'kern' Horizontal Kerning in Arabic lookup 3 per glyph data 1" uni06F2 dx=-100 dy=0 dh=-100 dv=0 dx=0 dy=0 dh=0 dv=0
PairPos2: "'kern' Horizontal Kerning in Arabic lookup 3 per glyph data 1" uni06F3 dx=-75 dy=0 dh=-75 dv=0 dx=0 dy=0 dh=0 dv=0
PairPos2: "'kern' Horizontal Kerning in Arabic lookup 3 per glyph data 1" uni06F0 dx=-50 dy=0 dh=-50 dv=0 dx=0 dy=0 dh=0 dv=0
PairPos2: "'kern' Horizontal Kerning in Arabic lookup 3 per glyph data 1" uni06F7 dx=-100 dy=0 dh=-100 dv=0 dx=0 dy=0 dh=0 dv=0
PairPos2: "'kern' Horizontal Kerning in Arabic lookup 3 per glyph data 0" uni0667 dx=-100 dy=0 dh=-100 dv=0 dx=0 dy=0 dh=0 dv=0
PairPos2: "'kern' Horizontal Kerning in Arabic lookup 3 per glyph data 0" uni0662 dx=-100 dy=0 dh=-100 dv=0 dx=0 dy=0 dh=0 dv=0
PairPos2: "'kern' Horizontal Kerning in Arabic lookup 3 per glyph data 0" uni0663 dx=-150 dy=0 dh=-150 dv=0 dx=0 dy=0 dh=0 dv=0
Colour: ffff
EndChar

StartChar: uniE000
Encoding: 57344 57344 248
Width: 120
VWidth: 1854
Flags: HMW
LayerCount: 2
Fore
SplineSet
0 175 m 0
 120 175 l 1
 120 -25 l 1
 0 -25 l 0
 -55 -25 -100 20 -100 75 c 0
 -100 130 -55 175 0 175 c 0
EndSplineSet
Colour: ffff
EndChar

StartChar: uniE001
Encoding: 57345 57345 249
Width: 320
VWidth: 1854
Flags: HMW
LayerCount: 2
Fore
SplineSet
0 175 m 0
 320 175 l 1
 320 -25 l 1
 0 -25 l 0
 -55 -25 -100 20 -100 75 c 0
 -100 130 -55 175 0 175 c 0
EndSplineSet
Colour: ffff
EndChar

StartChar: uniE002
Encoding: 57346 57346 250
Width: 450
VWidth: 1854
Flags: HMW
LayerCount: 2
Fore
SplineSet
0 175 m 0
 450 175 l 1
 450 -25 l 1
 0 -25 l 0
 -55 -25 -100 20 -100 75 c 0
 -100 130 -55 175 0 175 c 0
EndSplineSet
Colour: ffff
EndChar

StartChar: simpledot
Encoding: 1114131 -1 251
Width: 2374
VWidth: 1854
Flags: HMW
LayerCount: 2
Fore
SplineSet
1035.20019531 132 m 1
 1187 283.799804688 l 1
 1338.79980469 132 l 1
 1187 -19.7998046875 l 1
 1035.20019531 132 l 1
EndSplineSet
Colour: ff0000
EndChar

StartChar: hyphen
Encoding: 45 45 252
Width: 993
VWidth: 1647
Flags: HMW
LayerCount: 2
Fore
SplineSet
873 588 m 1
 873 432 l 1
 120 432 l 1
 120 588 l 1
 873 588 l 1
EndSplineSet
Colour: ffff00
EndChar

StartChar: numbersign
Encoding: 35 35 254
Width: 1683
VWidth: 1819
Flags: HMW
LayerCount: 2
Fore
SplineSet
1057 878 m 1
 716 878 l 1
 627 568 l 1
 968 568 l 1
 1057 878 l 1
444 -23 m 1
 250 23 l 1
 367 414 l 1
 120 414 l 1
 120 568 l 1
 420 568 l 1
 509 878 l 1
 212 878 l 1
 212 1034 l 1
 562 1034 l 1
 681 1434 l 1
 875 1388 l 1
 769 1034 l 1
 1110 1034 l 1
 1229 1434 l 1
 1423 1388 l 1
 1317 1034 l 1
 1563 1034 l 1
 1563 878 l 1
 1264 878 l 1
 1175 568 l 1
 1471 568 l 1
 1471 414 l 1
 1122 414 l 1
 992 -23 l 1
 798 23 l 1
 915 414 l 1
 574 414 l 1
 444 -23 l 1
EndSplineSet
Colour: ffff00
EndChar

StartChar: ampersand
Encoding: 38 38 257
Width: 1138
VWidth: 1819
Flags: HMW
LayerCount: 2
Fore
SplineSet
974 149 m 1
 1065 28 l 1
 897 -68 l 1
 826 28 l 1
 739 -18 634 -42 520 -42 c 0
 250 -42 50 136 50 376 c 0
 50 564 166 684 290 764 c 1
 225 851 l 1
 166 923 140 1023 140 1103 c 0
 140 1277 273 1454 519 1454 c 0
 747 1454 889 1277 889 1113 c 0
 889 898 711 789 568 712 c 1
 851 314 l 1
 874 364 888 425 888 496 c 1
 1088 496 l 1
 1088 363 1050 243 974 149 c 1
716 164 m 1
 400 617 l 1
 307 555 250 492 250 376 c 0
 250 232 344 122 520 122 c 0
 600 122 665 138 716 164 c 1
458 859 m 1
 604 937 689 996 689 1113 c 0
 689 1191 631 1288 519 1288 c 0
 403 1288 340 1207 340 1103 c 0
 340 1049 357 994 391 949 c 2
 458 859 l 1
EndSplineSet
Colour: ffff00
EndChar

StartChar: quotesingle
Encoding: 39 39 258
Width: 400
VWidth: 1819
Flags: HMW
LayerCount: 2
Fore
SplineSet
130 1411 m 1
 270 1411 l 1
 270 896 l 1
 130 896 l 1
 130 1411 l 1
EndSplineSet
Colour: ff00
EndChar

StartChar: plus
Encoding: 43 43 259
Width: 993
VWidth: 1647
Flags: HMW
LayerCount: 2
Fore
SplineSet
873 588 m 1
 873 432 l 1
 586 432 l 1
 586 134 l 1
 406 134 l 1
 406 432 l 1
 120 432 l 1
 120 588 l 1
 406 588 l 1
 406 886 l 1
 586 886 l 1
 586 588 l 1
 873 588 l 1
EndSplineSet
Colour: ffff00
EndChar

StartChar: comma
Encoding: 44 44 260
Width: 476
VWidth: 1670
Flags: HMW
LayerCount: 2
Fore
SplineSet
217 -242 m 1
 156 -195 l 1
 185 -163 268 -67 268 42 c 1
 180 42 133 82 133 163 c 0
 133 231 183 276 243 276 c 0
 320 276 369 225 369 122 c 0
 369 -50 283 -162 217 -242 c 1
EndSplineSet
EndChar

StartChar: question
Encoding: 63 63 262
Width: 1067
VWidth: 1854
Flags: HMW
LayerCount: 2
Fore
SplineSet
304 960 m 1
 106 936 l 1
 101 967 100 997 100 1024 c 0
 100 1236 242 1434 528 1434 c 0
 813 1434 954 1229 954 1022 c 0
 954 866 866 785 779 705 c 0
 695 628 613 550 613 405 c 1
 413 405 l 1
 413 599 511 682 603 757 c 0
 684 824 760 887 760 1017 c 0
 760 1143 672 1268 528 1268 c 0
 374 1268 300 1174 300 1024 c 0
 300 1001 301 981 304 960 c 1
EndSplineSet
Refer: 0 46 N -1 0 0 1 742 0 2
Colour: ffff00
EndChar

StartChar: at
Encoding: 64 64 263
Width: 2061
VWidth: 1819
Flags: HMW
LayerCount: 2
Fore
SplineSet
1046 922 m 0
 886 922 702 789 702 452 c 0
 702 188 842 122 963 122 c 0
 1068 122 1217 205 1241 479 c 2
 1273 851 l 1
 1220 887 1165 922 1046 922 c 0
1046 1088 m 0
 1239 1088 1358 1023 1445 953 c 2
 1480 925 l 1
 1426 304 l 2
 1425 296 1425 290 1425 279 c 0
 1425 171 1473 132 1554 132 c 0
 1689 132 1811 289 1811 530 c 0
 1811 978 1450 1324 1031 1324 c 0
 612 1324 250 978 250 530 c 0
 250 82 611 -262 1031 -262 c 0
 1104 -262 1174 -252 1242 -233 c 1
 1304 -399 l 1
 1218 -424 1126 -438 1031 -438 c 0
 479 -438 50 6 50 530 c 0
 50 1054 478 1498 1031 1498 c 0
 1584 1498 2011 1054 2011 530 c 0
 2011 273 1879 -44 1554 -44 c 0
 1427 -44 1335 11 1281 90 c 1
 1195 3 1083 -44 963 -44 c 0
 728 -44 502 112 502 452 c 0
 502 845 742 1088 1046 1088 c 0
EndSplineSet
Colour: ffff00
EndChar

StartChar: A
Encoding: 65 65 264
Width: 1343
VWidth: 1819
Flags: HMW
LayerCount: 2
Fore
SplineSet
226 -22 m 1
 14 -22 l 1
 577 1434 l 1
 767 1434 l 1
 1329 -22 l 1
 1117 -22 l 1
 975 378 l 1
 368 378 l 1
 226 -22 l 1
426 532 m 1
 917 532 l 1
 672 1183 l 1
 426 532 l 1
EndSplineSet
Colour: ffff00
EndChar

StartChar: B
Encoding: 66 66 265
Width: 1286
VWidth: 1819
Flags: HMW
LayerCount: 2
Fore
SplineSet
685 784 m 2
 813 784 923 872 923 1024 c 0
 923 1177 811 1268 685 1268 c 2
 320 1268 l 1
 320 784 l 1
 685 784 l 2
320 628 m 1
 320 142 l 1
 748 142 l 2
 876 142 986 229 986 381 c 0
 986 535 873 628 748 628 c 2
 320 628 l 1
120 1434 m 1
 685 1434 l 2
 931 1434 1123 1253 1123 1024 c 0
 1123 905 1072 801 988 728 c 1
 1109 655 1186 526 1186 381 c 0
 1186 151 992 -22 748 -22 c 2
 120 -22 l 1
 120 1434 l 1
EndSplineSet
Colour: ffff00
EndChar

StartChar: C
Encoding: 67 67 266
Width: 1303
VWidth: 1819
Flags: HMW
LayerCount: 2
Fore
SplineSet
1031 1171 m 1
 956 1239 860 1288 731 1288 c 0
 415 1288 250 1046 250 706 c 0
 250 366 415 122 731 122 c 0
 860 122 955 173 1031 241 c 1
 1175 119 l 1
 1065 19 912 -42 731 -42 c 0
 265 -42 50 322 50 706 c 0
 50 1090 265 1454 731 1454 c 0
 912 1454 1064 1393 1175 1293 c 1
 1031 1171 l 1
EndSplineSet
Colour: ffff00
EndChar

StartChar: D
Encoding: 68 68 267
Width: 1292
VWidth: 1819
Flags: HMW
LayerCount: 2
Fore
SplineSet
560 1268 m 2
 320 1268 l 1
 320 142 l 1
 560 142 l 2
 883 142 1042 350 1042 706 c 0
 1042 1062 883 1268 560 1268 c 2
560 1434 m 2
 1031 1434 1242 1096 1242 706 c 0
 1242 316 1031 -22 560 -22 c 2
 120 -22 l 1
 120 1434 l 1
 560 1434 l 2
EndSplineSet
Colour: ffff00
EndChar

StartChar: E
Encoding: 69 69 268
Width: 1151
VWidth: 1819
Flags: HMW
LayerCount: 2
Fore
SplineSet
1001 142 m 1
 1001 -22 l 1
 120 -22 l 1
 120 1434 l 1
 1001 1434 l 1
 1001 1268 l 1
 320 1268 l 1
 320 784 l 1
 1001 784 l 1
 1001 628 l 1
 320 628 l 1
 320 142 l 1
 1001 142 l 1
EndSplineSet
Colour: ffff00
EndChar

StartChar: F
Encoding: 70 70 269
Width: 1151
VWidth: 1819
Flags: HMW
LayerCount: 2
Fore
SplineSet
320 -22 m 1
 120 -22 l 1
 120 1434 l 1
 1001 1434 l 1
 1001 1268 l 1
 320 1268 l 1
 320 784 l 1
 885 784 l 1
 885 628 l 1
 320 628 l 1
 320 -22 l 1
EndSplineSet
Colour: ffff00
EndChar

StartChar: G
Encoding: 71 71 270
Width: 1400
VWidth: 1819
Flags: HMW
LayerCount: 2
Fore
SplineSet
1202 1273 m 1
 1058 1151 l 1
 988 1214 863 1268 731 1268 c 0
 415 1268 250 1046 250 706 c 0
 250 366 415 142 731 142 c 0
 1027 142 1080 266 1080 460 c 2
 1080 590 l 1
 703 589 l 1
 701 743 l 1
 1280 746 l 1
 1280 460 l 2
 1280 210 1145 -22 731 -22 c 0
 265 -22 50 322 50 706 c 0
 50 1090 265 1434 731 1434 c 0
 909 1434 1086 1378 1202 1273 c 1
EndSplineSet
Colour: ffff00
EndChar

StartChar: H
Encoding: 72 72 271
Width: 1309
VWidth: 1819
Flags: HMW
LayerCount: 2
Fore
SplineSet
989 1434 m 1
 1189 1434 l 1
 1189 -22 l 1
 989 -22 l 1
 989 650 l 1
 320 650 l 1
 320 -22 l 1
 120 -22 l 1
 120 1434 l 1
 320 1434 l 1
 320 806 l 1
 989 806 l 1
 989 1434 l 1
EndSplineSet
Colour: ffff00
EndChar

StartChar: I
Encoding: 73 73 272
Width: 440
VWidth: 1819
Flags: HMW
LayerCount: 2
Fore
SplineSet
320 -22 m 1
 120 -22 l 1
 120 1434 l 1
 320 1434 l 1
 320 -22 l 1
EndSplineSet
Colour: ffff00
EndChar

StartChar: J
Encoding: 74 74 273
Width: 840
VWidth: 1819
Flags: HMW
LayerCount: 2
Fore
SplineSet
48 11 m 5
 152 161 l 5
 186 143 231 122 286 122 c 4
 422 122 520 176 520 380 c 6
 520 1434 l 1
 720 1434 l 1
 720 380 l 6
 720 92 520 -42 286 -42 c 4
 203 -42 120 -27 48 11 c 5
EndSplineSet
Colour: ffff00
EndChar

StartChar: K
Encoding: 75 75 274
Width: 1276
VWidth: 1819
Flags: HMW
LayerCount: 2
Fore
SplineSet
946 1434 m 1
 1206 1434 l 1
 569 734 l 1
 1202 -22 l 1
 950 -22 l 1
 438 595 l 1
 320 470 l 1
 320 -22 l 1
 120 -22 l 1
 120 1434 l 1
 320 1434 l 1
 320 745 l 1
 946 1434 l 1
EndSplineSet
Colour: ffff00
EndChar

StartChar: L
Encoding: 76 76 275
Width: 1101
VWidth: 1819
Flags: HMW
LayerCount: 2
Fore
SplineSet
1001 142 m 1
 1001 -22 l 1
 120 -22 l 1
 120 1434 l 1
 320 1434 l 1
 320 142 l 1
 1001 142 l 1
EndSplineSet
Colour: ffff00
EndChar

StartChar: M
Encoding: 77 77 276
Width: 1755
VWidth: 1819
Flags: HMW
LayerCount: 2
Fore
SplineSet
320 -22 m 1
 120 -22 l 1
 120 1434 l 1
 337 1434 l 1
 855 170 l 1
 1420 1434 l 1
 1635 1434 l 1
 1635 -22 l 1
 1435 -22 l 1
 1435 1065 l 1
 954 -22 l 1
 748 -22 l 1
 320 1037 l 1
 320 -22 l 1
EndSplineSet
Colour: ffff00
EndChar

StartChar: N
Encoding: 78 78 277
Width: 1356
VWidth: 1819
Flags: HMW
LayerCount: 2
Fore
SplineSet
1036 1434 m 1
 1236 1434 l 1
 1236 -22 l 1
 1029 -22 l 1
 320 1131 l 1
 320 -22 l 1
 120 -22 l 1
 120 1434 l 1
 327 1434 l 1
 1036 280 l 1
 1036 1434 l 1
EndSplineSet
Colour: ffff00
EndChar

StartChar: O
Encoding: 79 79 278
Width: 1462
VWidth: 1819
Flags: HMW
LayerCount: 2
Fore
SplineSet
731 1288 m 0
 415 1288 250 1046 250 706 c 0
 250 366 415 122 731 122 c 0
 1047 122 1212 366 1212 706 c 0
 1212 1046 1047 1288 731 1288 c 0
731 1454 m 0
 1197 1454 1412 1090 1412 706 c 0
 1412 322 1197 -42 731 -42 c 0
 265 -42 50 322 50 706 c 0
 50 1090 265 1454 731 1454 c 0
EndSplineSet
Colour: ffff00
EndChar

StartChar: P
Encoding: 80 80 279
Width: 1173
VWidth: 1819
Flags: HMW
LayerCount: 2
Fore
SplineSet
320 1268 m 1
 320 784 l 1
 685 784 l 2
 813 784 923 872 923 1024 c 0
 923 1177 811 1268 685 1268 c 2
 320 1268 l 1
320 -22 m 1
 120 -22 l 1
 120 1434 l 1
 685 1434 l 2
 931 1434 1123 1253 1123 1024 c 0
 1123 794 929 618 685 618 c 2
 320 618 l 1
 320 -22 l 1
EndSplineSet
Colour: ffff00
EndChar

StartChar: R
Encoding: 82 82 281
Width: 1223
VWidth: 1819
Flags: HMW
LayerCount: 2
Fore
SplineSet
320 784 m 1
 685 784 l 2
 813 784 923 872 923 1024 c 0
 923 1177 811 1268 685 1268 c 2
 320 1268 l 1
 320 784 l 1
120 1434 m 1
 685 1434 l 2
 931 1434 1123 1253 1123 1024 c 0
 1123 892 1060 778 959 705 c 1
 1060 629 1123 512 1123 381 c 2
 1123 -22 l 1
 923 -22 l 1
 923 381 l 2
 923 525 810 628 685 628 c 2
 320 628 l 1
 320 -22 l 1
 120 -22 l 1
 120 1434 l 1
EndSplineSet
Colour: ffff00
EndChar

StartChar: S
Encoding: 83 83 282
Width: 1146
VWidth: 1819
Flags: HMW
LayerCount: 2
Fore
SplineSet
1066 1005 m 1
 866 1005 l 1
 866 1166 749 1288 560 1288 c 0
 375 1288 280 1184 280 1023 c 0
 280 901 397 843 612 785 c 0
 806 733 1096 654 1096 379 c 0
 1096 104 847 -42 587 -42 c 0
 315 -42 50 122 50 406 c 1
 250 406 l 1
 250 244 389 122 587 122 c 0
 781 122 896 226 896 389 c 0
 896 522 773 581 552 639 c 0
 363 689 80 767 80 1033 c 0
 80 1290 291 1454 560 1454 c 0
 841 1454 1066 1270 1066 1005 c 1
EndSplineSet
Colour: ffff00
EndChar

StartChar: T
Encoding: 84 84 283
Width: 1300
VWidth: 1819
Flags: HMW
LayerCount: 2
Fore
SplineSet
750 -22 m 1
 550 -22 l 1
 550 1268 l 1
 100 1268 l 1
 100 1434 l 1
 1200 1434 l 1
 1200 1268 l 1
 750 1268 l 1
 750 -22 l 1
EndSplineSet
Colour: ffff00
EndChar

StartChar: U
Encoding: 85 85 284
Width: 1316
VWidth: 1819
Flags: HMW
LayerCount: 2
Fore
SplineSet
996 1434 m 1
 1196 1434 l 1
 1196 458 l 2
 1196 163 954 -42 658 -42 c 0
 362 -42 120 163 120 458 c 2
 120 1434 l 1
 320 1434 l 1
 320 458 l 2
 320 251 474 122 658 122 c 0
 842 122 996 251 996 458 c 2
 996 1434 l 1
EndSplineSet
Colour: ffff00
EndChar

StartChar: V
Encoding: 86 86 285
Width: 1343
VWidth: 1819
Flags: HMW
LayerCount: 2
Fore
SplineSet
1117 1434 m 1
 1329 1434 l 1
 766 -22 l 1
 576 -22 l 1
 14 1434 l 1
 226 1434 l 1
 671 229 l 1
 1117 1434 l 1
EndSplineSet
Colour: ffff00
EndChar

StartChar: W
Encoding: 87 87 286
Width: 1932
VWidth: 1819
Flags: HMW
LayerCount: 2
Back
SplineSet
1709 1434 m 1
 1915 1434 l 1
 1501 -22 l 1
 1284 -22 l 1
 966 1156 l 1
 647 -22 l 1
 430 -22 l 1
 17 1434 l 1
 223 1434 l 1
 539 256 l 1
 858 1434 l 1
 1074 1434 l 1
 1392 256 l 1
 1709 1434 l 1
EndSplineSet
Fore
SplineSet
1709 1434 m 1
 1915 1434 l 1
 1501 -22 l 1
 1284 -22 l 1
 966 1186 l 1
 647 -22 l 1
 430 -22 l 1
 17 1434 l 1
 223 1434 l 1
 539 226 l 5
 858 1434 l 1
 1074 1434 l 1
 1392 226 l 5
 1709 1434 l 1
EndSplineSet
Colour: ffff00
EndChar

StartChar: X
Encoding: 88 88 287
Width: 1186
VWidth: 1819
Flags: HMW
LayerCount: 2
Fore
SplineSet
1181 -22 m 1
 951 -22 l 1
 593 578 l 1
 235 -22 l 1
 5 -22 l 1
 477 705 l 1
 5 1434 l 1
 235 1434 l 1
 593 833 l 1
 951 1434 l 1
 1181 1434 l 1
 709 705 l 1
 1181 -22 l 1
EndSplineSet
Colour: ffff00
EndChar

StartChar: Y
Encoding: 89 89 288
Width: 1186
VWidth: 1819
Flags: HMW
LayerCount: 2
Fore
SplineSet
952 1434 m 1
 1180 1434 l 1
 693 648 l 1
 693 -22 l 1
 493 -22 l 1
 493 648 l 1
 5 1434 l 1
 234 1434 l 1
 593 805 l 1
 952 1434 l 1
EndSplineSet
Colour: ffff00
EndChar

StartChar: Z
Encoding: 90 90 289
Width: 1400
VWidth: 1819
Flags: HMW
LayerCount: 2
Fore
SplineSet
150 1268 m 1
 150 1434 l 1
 1250 1434 l 1
 1250 1279 l 1
 358 142 l 1
 1250 142 l 1
 1250 -22 l 1
 150 -22 l 1
 150 132 l 1
 1042 1268 l 1
 150 1268 l 1
EndSplineSet
Colour: ffff00
EndChar

StartChar: bracketleft
Encoding: 91 91 290
Width: 642
VWidth: 1819
Flags: HMW
LayerCount: 2
Fore
SplineSet
542 142 m 1
 542 -22 l 1
 120 -22 l 1
 120 1434 l 1
 542 1434 l 1
 542 1268 l 1
 320 1268 l 1
 320 142 l 1
 542 142 l 1
EndSplineSet
Colour: ffff00
EndChar

StartChar: backslash
Encoding: 92 92 291
Width: 1019
VWidth: 1819
Flags: HMW
LayerCount: 2
Fore
SplineSet
958 45 m 1
 780 -45 l 1
 61 1366 l 1
 239 1456 l 1
 958 45 l 1
EndSplineSet
Colour: ffff
EndChar

StartChar: bracketright
Encoding: 93 93 292
Width: 642
VWidth: 1819
Flags: HMW
LayerCount: 2
Fore
SplineSet
100 1268 m 1
 100 1434 l 1
 522 1434 l 1
 522 -22 l 1
 100 -22 l 1
 100 142 l 1
 322 142 l 1
 322 1268 l 1
 100 1268 l 1
EndSplineSet
Colour: ffff00
EndChar

StartChar: asciicircum
Encoding: 94 94 293
Width: 704
VWidth: 1819
Flags: HMW
LayerCount: 2
Fore
SplineSet
623 1174 m 1
 545 1112 l 1
 352 1356 l 1
 159 1112 l 1
 81 1174 l 1
 308 1461 l 1
 396 1461 l 1
 623 1174 l 1
EndSplineSet
Colour: ff00
EndChar

StartChar: underscore
Encoding: 95 95 294
Width: 666
VWidth: 1819
Flags: HMW
LayerCount: 2
Fore
SplineSet
666 175 m 1
 666 -25 l 1
 0 -25 l 1
 0 175 l 1
 666 175 l 1
EndSplineSet
Colour: ffff
EndChar

StartChar: grave
Encoding: 96 96 295
Width: 524
VWidth: 1819
Flags: HMW
LayerCount: 2
Fore
SplineSet
403 1194 m 1
 319 1140 l 1
 121 1456 l 1
 205 1510 l 1
 403 1194 l 1
EndSplineSet
Colour: ff00
EndChar

StartChar: a
Encoding: 97 97 296
Width: 1056
VWidth: 1819
Flags: HMW
LayerCount: 2
Fore
SplineSet
320 751 m 1
 120 751 l 1
 120 976 337 1086 527 1086 c 0
 718 1086 936 976 936 751 c 2
 936 322 l 2
 936 191 952 43 971 -22 c 1
 777 -22 l 1
 752 63 736 179 736 322 c 2
 736 751 l 2
 736 856 645 920 526 920 c 0
 408 920 320 856 320 751 c 1
EndSplineSet
Refer: 430 57355 N 1 0 0 1 0 0 2
Colour: ffff00
EndChar

StartChar: b
Encoding: 98 98 297
Width: 1158
VWidth: 1819
Flags: HMW
LayerCount: 2
Fore
SplineSet
320 -22 m 1
 120 -22 l 1
 120 1434 l 1
 320 1434 l 1
 320 -22 l 1
EndSplineSet
Refer: 434 57359 N 1 0 0 1 0 0 2
Colour: ffff00
EndChar

StartChar: c
Encoding: 99 99 298
Width: 1074
VWidth: 1819
Flags: HMW
LayerCount: 2
Fore
SplineSet
784 291 m 1
 964 215 l 1
 889 78 744 -42 544 -42 c 0
 196 -42 50 255 50 521 c 0
 50 787 195 1086 544 1086 c 0
 743 1086 889 966 964 830 c 1
 784 754 l 1
 735 842 661 920 544 920 c 0
 357 920 250 751 250 521 c 0
 250 291 356 122 544 122 c 0
 662 122 735 202 784 291 c 1
EndSplineSet
Colour: ffff00
EndChar

StartChar: d
Encoding: 100 100 299
Width: 1158
VWidth: 1819
Flags: HMW
LayerCount: 2
Fore
SplineSet
1038 -22 m 1
 838 -22 l 1
 838 1434 l 1
 1038 1434 l 1
 1038 -22 l 1
EndSplineSet
Refer: 434 57359 N -1 0 0 -1 1158 1043 2
Colour: ffff00
EndChar

StartChar: e
Encoding: 101 101 300
Width: 1095
VWidth: 1819
Flags: HMW
LayerCount: 2
Fore
SplineSet
256 598 m 1
 838 598 l 1
 810 787 710 920 544 920 c 0
 379 920 283 788 256 598 c 1
256 444 m 1
 287 208 427 122 601 122 c 0
 698 122 805 149 910 190 c 1
 976 55 l 1
 847 -8 715 -40 593 -40 c 0
 293 -40 50 150 50 521 c 0
 50 787 195 1086 544 1086 c 0
 891 1086 1045 789 1045 521 c 2
 1045 444 l 1
 256 444 l 1
EndSplineSet
Colour: ffff00
EndChar

StartChar: f
Encoding: 102 102 301
Width: 784
VWidth: 1819
Flags: HMW
LayerCount: 2
Fore
SplineSet
496 1444 m 1
 571 1444 635 1417 683 1375 c 1
 683 1268 l 1
 496 1268 l 2
 451 1268 420 1239 420 1194 c 2
 420 -22 l 1
 220 -22 l 1
 220 1181 l 2
 220 1317 333 1444 496 1444 c 1
EndSplineSet
Refer: 429 57354 N 1 0 0 1 0 410 2
Colour: ffff00
EndChar

StartChar: g
Encoding: 103 103 302
Width: 1158
VWidth: 1819
Flags: HMW
LayerCount: 2
Fore
SplineSet
838 1065 m 1
 1038 1065 l 1
 1038 62 l 2
 1038 -306 793 -462 516 -462 c 0
 371 -462 217 -419 85 -341 c 1
 141 -204 l 1
 238 -259 366 -294 486 -294 c 0
 672 -294 838 -210 838 12 c 2
 838 1065 l 1
EndSplineSet
Refer: 434 57359 N -1 0 0 -1 1158 1043 2
Colour: ffff00
EndChar

StartChar: h
Encoding: 104 104 303
Width: 1108
VWidth: 1819
Flags: HMW
LayerCount: 2
Fore
SplineSet
320 -22 m 1
 120 -22 l 1
 120 1434 l 1
 320 1434 l 1
 320 -22 l 1
EndSplineSet
Refer: 432 57357 N 1 0 0 1 20 0 2
Colour: ffff00
EndChar

StartChar: k
Encoding: 107 107 306
Width: 1000
VWidth: 1819
Flags: HMW
LayerCount: 2
Fore
SplineSet
750 1066 m 1
 1004 1066 l 1
 530 521 l 1
 970 -22 l 1
 722 -22 l 1
 401 379 l 1
 320 289 l 1
 320 -22 l 1
 120 -22 l 1
 120 1434 l 1
 320 1434 l 1
 320 571 l 1
 750 1066 l 1
EndSplineSet
Colour: ffff00
EndChar

StartChar: l
Encoding: 108 108 307
Width: 440
VWidth: 1819
Flags: HMW
LayerCount: 2
Fore
SplineSet
320 -22 m 1
 120 -22 l 1
 120 1434 l 1
 320 1434 l 1
 320 -22 l 1
EndSplineSet
Colour: ffff00
EndChar

StartChar: m
Encoding: 109 109 308
Width: 1616
VWidth: 1819
Flags: HMW
LayerCount: 2
Fore
SplineSet
120 1066 m 1
 320 1066 l 1
 320 -22 l 1
 120 -22 l 1
 120 1066 l 1
EndSplineSet
Refer: 431 57356 N 1 0 0 1 -548 0 2
Refer: 431 57356 N 1 0 0 1 40 0 2
Colour: ffff00
EndChar

StartChar: n
Encoding: 110 110 309
Width: 1128
VWidth: 1819
Flags: HMW
LayerCount: 2
Fore
SplineSet
320 -22 m 1
 120 -22 l 1
 120 1066 l 1
 320 1066 l 1
 320 -22 l 1
EndSplineSet
Refer: 432 57357 N 1 0 0 1 20 0 2
Colour: ffff00
EndChar

StartChar: o
Encoding: 111 111 310
Width: 1088
VWidth: 1819
Flags: HMW
LayerCount: 2
Fore
SplineSet
544 1086 m 0
 893 1086 1038 787 1038 521 c 0
 1038 255 892 -42 544 -42 c 0
 196 -42 50 255 50 521 c 0
 50 787 195 1086 544 1086 c 0
544 920 m 0
 357 920 250 751 250 521 c 0
 250 291 356 122 544 122 c 0
 732 122 838 291 838 521 c 0
 838 751 731 920 544 920 c 0
EndSplineSet
Colour: ffff00
EndChar

StartChar: p
Encoding: 112 112 311
Width: 1158
VWidth: 1819
Flags: HMW
LayerCount: 2
Fore
SplineSet
120 1066 m 1
 320 1066 l 1
 320 -442 l 1
 120 -442 l 1
 120 1066 l 1
EndSplineSet
Refer: 434 57359 N 1 0 0 1 0 0 2
Colour: ffff00
EndChar

StartChar: q
Encoding: 113 113 312
Width: 1158
VWidth: 1819
Flags: HMW
LayerCount: 2
Fore
SplineSet
838 1066 m 1
 1038 1066 l 1
 1038 -442 l 1
 838 -442 l 1
 838 1066 l 1
EndSplineSet
Refer: 434 57359 N -1 0 0 -1 1158 1043 2
Colour: ffff00
EndChar

StartChar: r
Encoding: 114 114 313
Width: 774
VWidth: 1819
Flags: HMW
LayerCount: 2
Fore
SplineSet
120 1066 m 1
 320 1066 l 1
 320 -22 l 1
 120 -22 l 1
 120 1066 l 1
EndSplineSet
Refer: 433 57358 N 1 0 0 1 20 0 2
Colour: ffff00
EndChar

StartChar: s
Encoding: 115 115 314
Width: 959
VWidth: 1819
Flags: HMW
LayerCount: 2
Fore
SplineSet
892 734 m 1
 692 734 l 1
 692 845 626 920 479 920 c 0
 331 920 265 845 265 753 c 0
 265 670 313.925435923 638.391558076 491 617 c 0
 640 599 909 562 909 322 c 0
 909 77 693 -42 479 -42 c 0
 265 -42 50 77 50 322 c 1
 250 322 l 1
 250 203 325 122 479 122 c 0
 633 122 709 203 709 306 c 0
 709 399 642.031814962 441.260422469 463 463 c 0
 323 480 65 512 65 734 c 0
 65 971 273 1086 479 1086 c 0
 686 1086 892 971 892 734 c 1
EndSplineSet
Colour: ffff00
EndChar

StartChar: t
Encoding: 116 116 315
Width: 834
VWidth: 1819
Flags: HMW
LayerCount: 2
Fore
SplineSet
270 231 m 2
 270 1279 l 1
 470 1279 l 1
 470 218 l 2
 470 172 501 144 546 144 c 2
 733 144 l 1
 733 37 l 1
 685 -5 621 -32 546 -32 c 1
 383 -32 270 95 270 231 c 2
EndSplineSet
Refer: 429 57354 N 1.08562 0 0 1 -8.56164 410 2
Colour: ffff00
EndChar

StartChar: u
Encoding: 117 117 316
Width: 1128
VWidth: 1819
Flags: HMW
LayerCount: 2
Fore
SplineSet
808 1066 m 1
 1008 1066 l 1
 1008 -22 l 1
 808 -22 l 1
 808 1066 l 1
EndSplineSet
Refer: 432 57357 N -1 0 0 -1 1108 1044 2
Colour: ffff00
EndChar

StartChar: v
Encoding: 118 118 317
Width: 1041
VWidth: 1819
Flags: HMW
LayerCount: 2
Fore
SplineSet
827 1066 m 1
 1038 1066 l 1
 625 -22 l 1
 418 -22 l 1
 3 1066 l 1
 214 1066 l 1
 521 205 l 1
 827 1066 l 1
EndSplineSet
Colour: ffff00
EndChar

StartChar: w
Encoding: 119 119 318
Width: 1459
VWidth: 1819
Flags: HMW
LayerCount: 2
Back
SplineSet
1244 1066 m 1
 1451 1066 l 1
 1141 -22 l 1
 938 -22 l 1
 730 779 l 1
 522 -22 l 1
 319 -22 l 1
 8 1066 l 1
 215 1066 l 1
 420 285 l 1
 621 1066 l 1
 838 1066 l 1
 1040 285 l 1
 1244 1066 l 1
EndSplineSet
Fore
SplineSet
1244 1066 m 1
 1451 1066 l 1
 1141 -22 l 1
 938 -22 l 1
 730 809 l 1
 522 -22 l 1
 319 -22 l 1
 8 1066 l 1
 215 1066 l 1
 420 255 l 1
 621 1066 l 1
 838 1066 l 1
 1040 255 l 1
 1244 1066 l 1
EndSplineSet
Colour: ffff00
EndChar

StartChar: x
Encoding: 120 120 319
Width: 1127
VWidth: 1819
Flags: HMW
LayerCount: 2
Fore
SplineSet
879 1066 m 1
 1124 1066 l 1
 686 506 l 1
 1099 -22 l 1
 854 -22 l 1
 564 401 l 1
 273 -22 l 1
 27 -22 l 1
 441 506 l 1
 3 1066 l 1
 248 1066 l 1
 564 612 l 1
 879 1066 l 1
EndSplineSet
Colour: ffff00
EndChar

StartChar: y
Encoding: 121 121 320
Width: 1057
VWidth: 1819
Flags: HMW
LayerCount: 2
Fore
SplineSet
834 1066 m 1
 1046 1066 l 1
 651 37 l 0
 568 -177 465 -442 145 -442 c 2
 91 -442 l 1
 91 -266 l 1
 145 -266 l 2
 282 -266 350 -176 426 5 c 1
 11 1066 l 1
 223 1066 l 1
 531 227 l 1
 834 1066 l 1
EndSplineSet
Colour: ffff00
EndChar

StartChar: z
Encoding: 122 122 321
Width: 1021
VWidth: 1819
Flags: HMW
LayerCount: 2
Fore
SplineSet
100 900 m 1
 100 1066 l 1
 921 1066 l 1
 921 912 l 1
 313 142 l 1
 921 142 l 1
 921 -22 l 1
 100 -22 l 1
 100 132 l 1
 707 900 l 1
 100 900 l 1
EndSplineSet
Colour: ffff00
EndChar

StartChar: bar
Encoding: 124 124 322
Width: 440
VWidth: 1819
Flags: HMW
LayerCount: 2
Fore
SplineSet
120 1434 m 1
 320 1434 l 1
 320 -442 l 1
 120 -442 l 1
 120 1434 l 1
EndSplineSet
Colour: ffff
EndChar

StartChar: asciitilde
Encoding: 126 126 323
Width: 868
VWidth: 1819
Flags: HMW
LayerCount: 2
Fore
SplineSet
709 1362 m 1
 801 1322 l 1
 748 1198 663 1134 581 1134 c 0
 515 1134 461 1158 404 1202 c 0
 352 1241 331 1249 288 1249 c 0
 259 1249 204 1230 160 1127 c 1
 68 1167 l 1
 122 1294 209 1349 288 1349 c 0
 353 1349 404 1327 464 1282 c 0
 515 1244 539 1234 581 1234 c 0
 607 1234 664 1258 709 1362 c 1
EndSplineSet
Colour: ff00
EndChar

StartChar: cent
Encoding: 162 162 325
Width: 1074
VWidth: 1819
Flags: HMW
LayerCount: 2
Fore
SplineSet
644 -386 m 1
 444 -386 l 1
 444 65 l 1
 644 65 l 1
 644 -386 l 1
644 978 m 1
 444 978 l 1
 444 1434 l 1
 644 1434 l 1
 644 978 l 1
EndSplineSet
Refer: 298 99 N 1 0 0 1 0 0 2
Colour: ffff00
EndChar

StartChar: sterling
Encoding: 163 163 326
Width: 1254
VWidth: 1819
Flags: HMW
LayerCount: 2
Fore
SplineSet
729 1139 m 1
 715 1214 653 1268 594 1268 c 0
 529 1268 457 1202 457 1108 c 2
 457 272 l 2
 457 227 450 183 433 142 c 1
 1134 142 l 1
 1134 -22 l 1
 120 -22 l 1
 120 142 l 0
 165 142 191 151 208 160 c 0
 235 175 257 205 257 272 c 2
 257 1108 l 2
 257 1278 395 1434 594 1434 c 0
 769 1434 901 1312 927 1167 c 1
 729 1139 l 1
EndSplineSet
Refer: 429 57354 N 1 0 0 1 20 0 2
Colour: ffff00
EndChar

StartChar: currency
Encoding: 164 164 327
Width: 1263
VWidth: 1819
Flags: HMW
LayerCount: 2
Fore
SplineSet
834 124 m 1
 992 230 l 1
 1222 -33 l 1
 1064 -139 l 1
 834 124 l 1
992 811 m 1
 834 917 l 1
 1064 1180 l 1
 1222 1074 l 1
 992 811 l 1
271 230 m 1
 429 124 l 1
 199 -139 l 1
 41 -33 l 1
 271 230 l 1
429 917 m 1
 271 811 l 1
 41 1074 l 1
 199 1180 l 1
 429 917 l 1
EndSplineSet
Refer: 310 111 N 1 0 0 1 88 0 2
Colour: ffff00
EndChar

StartChar: brokenbar
Encoding: 166 166 329
Width: 440
VWidth: 1819
Flags: HMW
LayerCount: 2
Fore
SplineSet
320 -22 m 1
 120 -22 l 1
 120 519 l 1
 320 519 l 1
 320 -22 l 1
320 875 m 1
 120 875 l 1
 120 1434 l 1
 320 1434 l 1
 320 875 l 1
EndSplineSet
Colour: ffff
EndChar

StartChar: section
Encoding: 167 167 330
Width: 952
VWidth: 1819
Flags: HMW
LayerCount: 2
Fore
SplineSet
468 854 m 1
 343 852 250 798 250 682 c 0
 250 601 309 580 484 556 c 1
 615 558 702 605 702 718 c 0
 702 806 641 828 468 854 c 1
52 276 m 1
 252 276 l 1
 252 159 344 110 476 110 c 0
 609 110 702 160 702 276 c 0
 702 328 639 357 460 382 c 0
 307 403 50 444 50 682 c 0
 50 794 100 878 174 935 c 1
 103 975 50 1037 50 1136 c 0
 50 1378 283 1476 476 1476 c 0
 669 1476 901 1378 901 1136 c 1
 701 1136 l 1
 701 1252 609 1302 476 1302 c 0
 343 1302 250 1252 250 1136 c 0
 250 1084 314 1055 493 1028 c 0
 649 1005 902 958 902 718 c 0
 902 608 854 528 783 474 c 1
 851 434 902 372 902 276 c 0
 902 34 669 -66 476 -66 c 0
 282 -66 52 35 52 276 c 1
EndSplineSet
Colour: ffff00
EndChar

StartChar: copyright
Encoding: 169 169 332
Width: 1670
VWidth: 1819
Flags: HMW
LayerCount: 2
Fore
SplineSet
1020 564 m 1
 1182 462 l 1
 1099 361 970 302 835 302 c 0
 571 302 395 510 395 729 c 0
 395 948 570 1158 835 1158 c 0
 970 1158 1099 1098 1182 997 c 1
 1020 895 l 1
 973 952 902 982 835 982 c 0
 708 982 595 876 595 729 c 0
 595 582 707 476 835 476 c 0
 902 476 973 507 1020 564 c 1
50 728 m 0
 50 1145 391 1498 835 1498 c 0
 1279 1498 1620 1145 1620 728 c 0
 1620 312 1279 -44 835 -44 c 0
 391 -44 50 312 50 728 c 0
250 728 m 0
 250 388 523 132 835 132 c 0
 1147 132 1420 388 1420 728 c 0
 1420 1067 1147 1324 835 1324 c 0
 523 1324 250 1067 250 728 c 0
EndSplineSet
Colour: ffff00
EndChar

StartChar: ordfeminine
Encoding: 170 170 333
Width: 747
VWidth: 1819
Flags: HMW
LayerCount: 2
Fore
SplineSet
490 1061 m 1
 490 1148 l 1
 462 1152 439 1153 411 1153 c 0
 261 1153 200 1110 200 1031 c 0
 200 984 231 944 310 944 c 0
 398 944 456 980 490 1061 c 1
628 932 m 1
 566 854 l 1
 546 870 527 892 514 922 c 1
 461 871 391 844 310 844 c 0
 189 844 100 922 100 1031 c 0
 100 1196 251 1253 411 1253 c 0
 439 1253 464 1251 490 1248 c 1
 490 1307 l 2
 490 1372 437 1405 350 1405 c 0
 264 1405 213 1373 213 1307 c 1
 113 1307 l 1
 113 1453 244 1505 350 1505 c 0
 455 1505 590 1454 590 1307 c 2
 590 1052 l 2
 590 970 613 944 628 932 c 1
EndSplineSet
Colour: ff00
EndChar

StartChar: logicalnot
Encoding: 172 172 334
Width: 1073
VWidth: 1819
Flags: HMW
LayerCount: 2
Fore
SplineSet
100 422 m 1
 100 598 l 1
 953 598 l 1
 953 238 l 1
 753 238 l 1
 753 422 l 1
 100 422 l 1
EndSplineSet
Colour: ffff00
EndChar

StartChar: registered
Encoding: 174 174 336
Width: 1670
VWidth: 1819
Flags: HMW
LayerCount: 2
Fore
SplineSet
50 728 m 0
 50 1145 391 1498 835 1498 c 0
 1279 1498 1620 1145 1620 728 c 0
 1620 312 1279 -44 835 -44 c 0
 391 -44 50 312 50 728 c 0
250 728 m 0
 250 388 523 132 835 132 c 0
 1147 132 1420 388 1420 728 c 0
 1420 1067 1147 1324 835 1324 c 0
 523 1324 250 1067 250 728 c 0
720 722 m 1
 866 722 l 2
 953 722 1017 772 1017 854 c 0
 1017 937 953 988 866 988 c 2
 720 988 l 1
 720 722 l 1
1185 396 m 1
 1023 294 l 1
 815 548 l 1
 720 548 l 1
 720 345 l 1
 520 345 l 1
 520 1162 l 1
 866 1162 l 2
 1057 1162 1217 1033 1217 854 c 0
 1217 730 1140 632 1032 583 c 1
 1185 396 l 1
EndSplineSet
Colour: ffff00
EndChar

StartChar: degree
Encoding: 176 176 338
Width: 646
VWidth: 1819
Flags: HMW
LayerCount: 2
Fore
SplineSet
565 1428 m 0
 565 1294 457 1186 323 1186 c 0
 189 1186 81 1294 81 1428 c 0
 81 1562 189 1670 323 1670 c 0
 457 1670 565 1562 565 1428 c 0
465 1428 m 0
 465 1508 403 1570 323 1570 c 0
 243 1570 181 1508 181 1428 c 0
 181 1348 243 1286 323 1286 c 0
 403 1286 465 1348 465 1428 c 0
EndSplineSet
Colour: ff00
EndChar

StartChar: uni00B2
Encoding: 178 178 340
Width: 658
VWidth: 1819
Flags: HMW
LayerCount: 2
Fore
SplineSet
100 869 m 1
 100 969 l 1
 378 1214 l 0
 406 1242 418 1256 418 1303 c 0
 418 1373 370 1405 309 1405 c 0
 248 1405 200 1373 200 1303 c 1
 100 1303 l 1
 100 1439 210 1505 309 1505 c 0
 408 1505 518 1439 518 1303 c 0
 518 1226 482 1178 448 1144 c 2
 243 969 l 1
 508 969 l 1
 508 869 l 1
 100 869 l 1
EndSplineSet
Colour: ff00
EndChar

StartChar: uni00B3
Encoding: 179 179 341
Width: 606
VWidth: 1819
Flags: HMW
LayerCount: 2
Fore
SplineSet
200 1321 m 1
 100 1321 l 1
 100 1429 197 1505 303 1505 c 0
 409 1505 506 1429 506 1321 c 0
 506 1267 480 1219 442 1187 c 1
 479 1156 506 1107 506 1053 c 0
 506 945 409 869 303 869 c 0
 197 869 100 945 100 1053 c 1
 200 1053 l 1
 200 1011 241 969 303 969 c 0
 365 969 406 1011 406 1053 c 0
 406 1095 365 1137 303 1137 c 2
 242 1137 l 1
 242 1237 l 1
 303 1237 l 2
 365 1237 406 1279 406 1321 c 0
 406 1363 365 1405 303 1405 c 0
 241 1405 200 1363 200 1321 c 1
EndSplineSet
Colour: ff00
EndChar

StartChar: acute
Encoding: 180 180 342
Width: 517
VWidth: 1819
Flags: HMW
LayerCount: 2
Fore
SplineSet
315 1509 m 1
 399 1457 l 1
 202 1141 l 1
 118 1193 l 1
 315 1509 l 1
EndSplineSet
Colour: ff00
EndChar

StartChar: mu
Encoding: 181 181 343
Width: 1108
VWidth: 1819
Flags: HMW
LayerCount: 2
Fore
SplineSet
788 1066 m 1
 988 1066 l 1
 988 -22 l 1
 788 -22 l 1
 788 114 l 1
 707 29 592 -23 464 -23 c 0
 407 -23 360 -14 320 -0 c 1
 320 -809 l 1
 120 -809 l 1
 120 366 l 1
 120 1066 l 1
 320 1066 l 1
 320 366 l 2
 320 251 360 153 504 153 c 0
 676 153 788 251 788 420 c 2
 788 1066 l 1
EndSplineSet
EndChar

StartChar: paragraph
Encoding: 182 182 344
Width: 1236
VWidth: 1819
Flags: HMW
LayerCount: 2
Fore
SplineSet
658 1268 m 1
 516 1268 l 2
 386 1268 250 1157 250 951 c 0
 250 745 386 634 516 634 c 2
 658 634 l 1
 658 1268 l 1
1116 -442 m 1
 946 -442 l 1
 946 1268 l 1
 828 1268 l 1
 828 -442 l 1
 658 -442 l 1
 658 470 l 1
 516 470 l 2
 246 470 50 687 50 951 c 0
 50 1215 246 1434 516 1434 c 2
 1116 1434 l 1
 1116 -442 l 1
EndSplineSet
Colour: ffff00
EndChar

StartChar: cedilla
Encoding: 184 184 346
Width: 723
VWidth: 1819
Flags: HMW
LayerCount: 2
Back
SplineSet
242 -346 m 1
 252 -367 281 -386 334 -386 c 0
 419 -386 473 -341 473 -299 c 0
 473 -160 400 -114 309 -80 c 1
 389 80 l 1
 520 30 673 -78 673 -299 c 0
 673 -477 481 -560 334 -560 c 0
 231 -560 110 -521 58 -416 c 1
 242 -346 l 1
EndSplineSet
Fore
SplineSet
164 -349 m 1
 205 -392 269 -409 342 -409 c 0
 436 -409 510 -364 510 -318 c 0
 510 -231 416 -110 321 -37 c 1
 377 47 l 1
 504 -45 600 -176 600 -318 c 0
 600 -462 454 -509 342 -509 c 0
 247 -509 167 -482 105 -413 c 1
 164 -349 l 1
EndSplineSet
Colour: ffff00
EndChar

StartChar: uni00B9
Encoding: 185 185 347
Width: 457
VWidth: 1819
Flags: HMW
LayerCount: 2
Fore
SplineSet
89 1263 m 1
 89 1363 l 1
 229 1363 l 1
 230 1455 l 1
 330 1455 l 1
 330 829 l 1
 230 829 l 1
 230 1263 l 1
 89 1263 l 1
EndSplineSet
Colour: ff00
EndChar

StartChar: onequarter
Encoding: 188 188 349
Width: 1965
VWidth: 1819
Flags: HMW
LayerCount: 2
Fore
SplineSet
150 1224 m 1
 150 1378 l 1
 182 1378 l 2
 353 1378 371 1398 371 1590 c 1
 571 1590 l 1
 571 530 l 1
 371 530 l 1
 371 1248 l 1
 315 1230 252 1224 182 1224 c 2
 150 1224 l 1
1815 14 m 1
 1815 -142 l 1
 1719 -142 l 1
 1719 -358 l 1
 1519 -358 l 1
 1519 -142 l 1
 1005 -142 l 1
 1005 -15 l 1
 1523 788 l 1
 1719 788 l 1
 1719 14 l 1
 1815 14 l 1
1519 14 m 1
 1519 492 l 1
 1206 14 l 1
 1519 14 l 1
650 -4 m 1
 484 92 l 1
 1514 1459 l 1
 1680 1363 l 1
 650 -4 l 1
EndSplineSet
Colour: ffff00
EndChar

StartChar: onehalf
Encoding: 189 189 350
Width: 2096
VWidth: 1819
Flags: HMW
LayerCount: 2
Fore
SplineSet
150 1224 m 1
 150 1378 l 1
 182 1378 l 2
 353 1378 371 1398 371 1590 c 1
 571 1590 l 1
 571 530 l 1
 371 530 l 1
 371 1248 l 1
 315 1230 252 1224 182 1224 c 2
 150 1224 l 1
647 -4 m 1
 481 92 l 1
 1512 1459 l 1
 1678 1363 l 1
 647 -4 l 1
2006 -240 m 1
 2006 -406 l 1
 1219 -406 l 1
 1219 -257 l 1
 1722 229 l 0
 1777 280 1806 316 1806 418 c 0
 1806 567 1707 630 1612 630 c 0
 1518 630 1420 568 1420 418 c 1
 1220 418 l 1
 1220 658 1412 794 1612 794 c 0
 1811 794 2006 659 2006 418 c 0
 2006 272 1941 178 1868 109 c 2
 1509 -240 l 1
 2006 -240 l 1
EndSplineSet
Colour: ffff00
EndChar

StartChar: threequarters
Encoding: 190 190 351
Width: 2140
VWidth: 2047
Flags: HMW
LayerCount: 2
Fore
SplineSet
1990 14 m 1
 1990 -142 l 1
 1894 -142 l 1
 1894 -358 l 1
 1694 -358 l 1
 1694 -142 l 1
 1180 -142 l 1
 1180 -15 l 1
 1698 788 l 1
 1894 788 l 1
 1894 14 l 1
 1990 14 l 1
1694 14 m 1
 1694 492 l 1
 1380 14 l 1
 1694 14 l 1
426 964 m 2
 340 964 l 1
 340 1120 l 1
 426 1120 l 2
 565 1120 635 1167 635 1303 c 0
 635 1392 548 1478 443 1478 c 0
 349 1478 250 1425 250 1275 c 1
 50 1275 l 1
 50 1515 243 1642 443 1642 c 0
 656 1642 835 1492 835 1303 c 0
 835 1195 797 1104 720 1042 c 1
 795 981 835 890 835 782 c 0
 835 593 656 442 443 442 c 0
 243 442 50 569 50 809 c 1
 250 809 l 1
 250 659 349 608 443 608 c 0
 548 608 635 693 635 782 c 0
 635 917 566 964 426 964 c 2
825 -4 m 1
 659 92 l 1
 1690 1459 l 1
 1856 1363 l 1
 825 -4 l 1
EndSplineSet
Colour: ffff00
EndChar

StartChar: AE
Encoding: 198 198 359
Width: 1907
VWidth: 1819
Flags: HMW
LayerCount: 2
Fore
SplineSet
823 1213 m 1
 474 498 l 1
 823 498 l 1
 823 1213 l 1
1757 142 m 1
 1757 -22 l 1
 823 -22 l 1
 823 342 l 1
 398 342 l 1
 232 -22 l 1
 14 -22 l 1
 713 1434 l 1
 1757 1434 l 1
 1757 1268 l 1
 1023 1268 l 1
 1023 770 l 1
 1757 770 l 1
 1757 616 l 1
 1023 616 l 1
 1023 142 l 1
 1757 142 l 1
EndSplineSet
Colour: ffff00
EndChar

StartChar: Thorn
Encoding: 222 222 383
Width: 1079
VWidth: 1819
Flags: HMW
LayerCount: 2
Fore
SplineSet
300 448 m 1
 537 448 l 2
 707 448 829 532 829 707 c 0
 829 882 707 966 537 966 c 2
 300 966 l 1
 300 448 l 1
300 -22 m 1
 100 -22 l 1
 100 1434 l 1
 300 1434 l 1
 300 1120 l 1
 537 1120 l 2
 789 1120 1029 988 1029 707 c 0
 1029 426 789 294 537 294 c 2
 300 294 l 1
 300 -22 l 1
EndSplineSet
Colour: ffff00
EndChar

StartChar: germandbls
Encoding: 223 223 384
Width: 1099
VWidth: 1819
Flags: HMW
LayerCount: 2
Fore
SplineSet
517 -22 m 1
 517 152 l 1
 825 152 849 171 849 251 c 0
 849 322 807 363 735 414 c 0
 663 465 554 545 554 690 c 0
 554 800 598 849 641 894 c 0
 679.620123499 934.416408313 715 973 715 1052 c 0
 715 1199 644 1288 507 1288 c 0
 365 1288 300 1201 300 1052 c 2
 300 -22 l 1
 100 -22 l 1
 100 1052 l 2
 100 1253 225 1454 507 1454 c 0
 782 1454 915 1255 915 1052 c 0
 915 949 870.80775182 896.29592513 828 848 c 0
 789 804 754 763 754 690 c 0
 754 631 787 603 861 550 c 0
 941 493 1049 402 1049 251 c 0
 1049 -3 783 -22 517 -22 c 1
EndSplineSet
Colour: ffff00
EndChar

StartChar: ae
Encoding: 230 230 391
Width: 1830
VWidth: 1819
Flags: HMW
LayerCount: 2
Fore
SplineSet
941 598 m 1
 1523 598 l 1
 1495 787 1395 900 1229 900 c 0
 1064 900 968 788 941 598 c 1
941 444 m 1
 967 244 1087 142 1255 142 c 0
 1341 142 1448 156 1569 211 c 1
 1661 55 l 1
 1518 -10 1381 -42 1255 -42 c 0
 1054 -42 901 67 815 210 c 1
 734 57 617 -42 423 -42 c 0
 233 -42 102 86 102 270 c 0
 102 543 391 612 635 612 c 0
 669 612 703 610 736 607 c 1
 736 731 l 2
 736 836 646 900 527 900 c 0
 409 900 320 836 320 731 c 1
 120 731 l 1
 120 956 307 1086 527 1086 c 0
 684 1086 793 1017 872 918 c 1
 952 1007 1069 1086 1229 1086 c 0
 1576 1086 1730 789 1730 521 c 2
 1730 444 l 1
 941 444 l 1
736 489 m 0
 702 493 666 496 635 496 c 0
 460 496 293 425 293 273 c 0
 293 196 370 140 451 140 c 0
 625 140 736 237 736 376 c 2
 736 483 l 2
 736 485 736 487 736 489 c 0
EndSplineSet
EndChar

StartChar: eth
Encoding: 240 240 401
Width: 1088
VWidth: 1819
Flags: HMW
LayerCount: 2
Fore
SplineSet
355 1099 m 1
 740 1411 l 1025
257 1411 m 0
 623 1343 929 837 937 555 c 1024
EndSplineSet
Refer: 310 111 N 1 0 0 1 0 0 2
EndChar

StartChar: dotlessi
Encoding: 305 305 417
Width: 400
VWidth: 1819
Flags: HMW
LayerCount: 2
Fore
SplineSet
100 1066 m 1
 300 1066 l 1
 300 -22 l 1
 100 -22 l 1
 100 1066 l 1
EndSplineSet
Colour: ffff00
EndChar

StartChar: OE
Encoding: 338 338 418
Width: 1685
VWidth: 1819
Flags: HMW
LayerCount: 2
Fore
SplineSet
654 157 m 1
 654 1254 l 1
 388 1222 250 1017 250 706 c 0
 250 395 388 190 654 157 c 1
1535 1434 m 1
 1535 1268 l 1
 854 1268 l 1
 854 784 l 1
 1535 784 l 1
 1535 628 l 1
 854 628 l 1
 854 142 l 1
 1535 142 l 1
 1535 -22 l 1
 731 -22 l 2
 265 -22 50 322 50 706 c 0
 50 1090 265 1434 731 1434 c 2
 1535 1434 l 1
EndSplineSet
Colour: ffff00
EndChar

StartChar: uniE003
Encoding: 57347 57347 420
Width: 1762
VWidth: 1819
Flags: HMW
LayerCount: 2
Fore
SplineSet
1560 1465 m 5
 1664 1357 l 5
 202 -54 l 5
 98 54 l 5
 1560 1465 l 5
EndSplineSet
Colour: ff00ff
EndChar

StartChar: uniE004
Encoding: 57348 57348 421
Width: 1088
VWidth: 1819
Flags: HMW
LayerCount: 2
Fore
SplineSet
209 -46 m 1
 91 46 l 1
 879 1059 l 1
 997 967 l 1
 209 -46 l 1
EndSplineSet
Colour: ff00ff
EndChar

StartChar: uniE005
Encoding: 57349 57349 423
Width: 1462
VWidth: 1819
Flags: HMW
LayerCount: 2
Fore
SplineSet
1369 19 m 5
 1255 -77 l 5
 786 483 l 5
 900 579 l 5
 1369 19 l 5
EndSplineSet
Colour: ff00ff
EndChar

StartChar: uniE006
Encoding: 57350 57350 424
Width: 1146
VWidth: 1819
Flags: HMW
LayerCount: 2
Fore
SplineSet
236 75 m 5
 236 225 l 5
 910 225 l 5
 910 75 l 5
 236 75 l 5
236 401 m 5
 236 551 l 5
 910 551 l 5
 910 401 l 5
 236 401 l 5
EndSplineSet
Colour: ff00ff
EndChar

StartChar: uniE007
Encoding: 57351 57351 425
Width: 869
VWidth: 1954
Flags: HMW
LayerCount: 2
Fore
SplineSet
612 1642 m 1
 574 1550 l 1
 549 1560 l 2
 521 1570 496 1577 472 1577 c 0
 390 1577 345 1522 345 1482 c 0
 345 1423 379 1409 449 1387 c 0
 508 1369 607 1336 607 1226 c 0
 607 1097 460 1037 344 1037 c 0
 278 1037 219 1049 169 1073 c 1
 212 1163 l 1
 246 1147 290 1137 344 1137 c 0
 446 1137 507 1191 507 1226 c 0
 507 1258 487 1270 419 1291 c 0
 353 1311 245 1351 245 1482 c 0
 245 1590 348 1677 472 1677 c 0
 514 1677 554 1666 586 1653 c 2
 612 1642 l 1
EndSplineSet
Colour: ffff
EndChar

StartChar: uniE008
Encoding: 57352 57352 426
Width: 1454
VWidth: 1819
Flags: HMW
LayerCount: 2
Fore
SplineSet
658 1137 m 0
 658 990 542 868 392 868 c 0
 243 868 125 990 125 1137 c 0
 125 1278 235 1411 392 1411 c 0
 549 1411 658 1277 658 1137 c 0
508 1137 m 0
 508 1205 457 1261 392 1261 c 0
 327 1261 275 1204 275 1137 c 0
 275 1070 327 1018 392 1018 c 0
 456 1018 508 1070 508 1137 c 0
EndSplineSet
Colour: ff00ff
EndChar

StartChar: uniE009
Encoding: 57353 57353 427
Width: 1146
VWidth: 1796
Flags: HMW
LayerCount: 2
Fore
SplineSet
498 1615 m 1
 648 1615 l 1
 648 -202 l 1
 498 -202 l 1
 498 1615 l 1
EndSplineSet
Colour: ff00ff
EndChar

StartChar: uni0237
Encoding: 567 567 428
Width: 400
VWidth: 1819
Flags: HMW
LayerCount: 2
Fore
SplineSet
100 -204 m 2
 100 -249 69 -276 24 -276 c 2
 -163 -276 l 1
 -163 -383 l 1
 -115 -425 -51 -452 24 -452 c 1
 187 -452 300 -325 300 -189 c 2
 300 1066 l 1
 100 1066 l 1
 100 -204 l 2
EndSplineSet
Colour: ffff00
EndChar

StartChar: uniE00A
Encoding: 57354 57354 429
Width: 1214
VWidth: 1819
Flags: HMW
LayerCount: 2
Fore
SplineSet
100 443 m 5
 100 593 l 5
 684 593 l 5
 684 443 l 5
 100 443 l 5
EndSplineSet
Colour: ff00ff
EndChar

StartChar: uniE00B
Encoding: 57355 57355 430
Width: 1108
VWidth: 1819
Flags: HMW
LayerCount: 2
Fore
SplineSet
806 472 m 1
 757 483 689 491 635 491 c 0
 460 491 293 425 293 273 c 0
 293 196 347 130 461 130 c 0
 595 130 736 237 736 376 c 1
 856 376 l 1
 856 114 635 -42 436 -42 c 0
 233 -42 102 86 102 270 c 0
 102 543 391 632 635 632 c 0
 717 632 796 622 864 604 c 1
 806 472 l 1
EndSplineSet
Colour: ffff00
EndChar

StartChar: uniE00C
Encoding: 57356 57356 431
Width: 1536
VWidth: 1819
Flags: HMW
LayerCount: 2
Back
SplineSet
868 692 m 1
 808 692 l 1
 808 864 905 1066 1122 1066 c 0
 1410 1066 1436 818 1436 692 c 2
 1436 -22 l 1
 1236 -22 l 1
 1236 692 l 2
 1236 850 1165 890 1052 890 c 0
 934 890 868 844 868 692 c 1
EndSplineSet
Fore
SplineSet
868 712 m 1
 808 712 l 1
 808 884 915 1086 1132 1086 c 0
 1420 1086 1456 838 1456 712 c 2
 1456 -22 l 1
 1256 -22 l 1
 1256 712 l 2
 1256 850 1175 910 1062 910 c 0
 944 910 868 844 868 712 c 1
EndSplineSet
Colour: ffff00
EndChar

StartChar: uniE00D
Encoding: 57357 57357 432
Width: 1068
VWidth: 1819
Flags: HMW
LayerCount: 2
Back
SplineSet
300 623 m 1
 240 623 l 1
 240 876 358 1066 604 1066 c 0
 918 1066 968 814 968 677 c 2
 968 -22 l 1
 768 -22 l 1
 768 623 l 2
 768 810 693 890 534 890 c 0
 377 890 300 805 300 623 c 1
EndSplineSet
Fore
SplineSet
300 643 m 1
 240 643 l 1
 240 896 368 1086 614 1086 c 0
 928 1086 988 834 988 697 c 2
 988 -22 l 1
 788 -22 l 1
 788 643 l 2
 788 820 708 910 544 910 c 0
 382 910 300 815 300 643 c 1
EndSplineSet
Colour: ffff00
EndChar

StartChar: uniE00E
Encoding: 57358 57358 433
Width: 754
VWidth: 1819
Flags: HMW
LayerCount: 2
Fore
SplineSet
300 531 m 1
 180 531 l 1
 180 774 316 1066 621 1066 c 2
 654 1066 l 1
 654 890 l 1
 581 890 l 2
 406 890 300 742 300 531 c 1
EndSplineSet
Colour: ffff00
EndChar

StartChar: uniE00F
Encoding: 57359 57359 434
Width: 1158
VWidth: 1819
Flags: HMW
LayerCount: 2
Back
SplineSet
674 1066 m 0
 1023 1066 1108 787 1108 521 c 0
 1108 255 1022 -22 674 -22 c 0
 366 -22 240 255 240 521 c 0
 240 787 365 1066 674 1066 c 0
614 890 m 0
 427 890 320 751 320 521 c 0
 320 291 426 152 614 152 c 0
 802 152 908 291 908 521 c 0
 908 751 801 890 614 890 c 0
EndSplineSet
Fore
SplineSet
674 -42 m 0
 360.9453125 -42 240 250.918945312 240 521 c 0
 240 790.219726562 360.076171875 1086 674 1086 c 0
 987.923828125 1086 1108 790.21875 1108 521 c 0
 1108 250.918945312 987.0546875 -42 674 -42 c 0
614 910 m 0
 424.849609375 910 320 750.295898438 320 521 c 0
 320 291.775390625 423.840820312 132 614 132 c 0
 804.159179688 132 908 291.775390625 908 521 c 0
 908 750.297851562 803.159179688 910 614 910 c 0
EndSplineSet
Colour: ffff00
EndChar

StartChar: quoteright
Encoding: 8217 8217 436
Width: 598
VWidth: 1854
Flags: HMW
LayerCount: 2
Fore
SplineSet
322 746 m 1
 256 794 l 1
 309 855 358 971 358 1066 c 0
 358 1177 120 1045 120 1231 c 0
 120 1330 169 1411 290 1411 c 0
 413 1411 478 1316 478 1179 c 0
 478 999 401 845 322 746 c 1
EndSplineSet
EndChar

StartChar: quoteleft
Encoding: 8216 8216 437
Width: 598
VWidth: 1854
Flags: HMW
LayerCount: 2
Fore
SplineSet
276 746 m 1
 197 845 120 999 120 1179 c 0
 120 1316 185 1411 308 1411 c 0
 429 1411 478 1330 478 1231 c 0
 478 1045 240 1177 240 1066 c 0
 240 971 289 855 342 794 c 1
 276 746 l 1
EndSplineSet
EndChar

StartChar: uniFB9F
Encoding: 64415 64415 462
Width: 1690
VWidth: 1854
Flags: HW
AnchorPoint: "Anchor-5" 827 773 basechar 0
AnchorPoint: "Anchor-3" 728 -502 basechar 0
LayerCount: 2
Fore
SplineSet
278 1 m 0
 278 -201 458 -328 729 -328 c 0
 1024 -328 1264 -177 1264 86 c 0
 1264 151 1249 227 1215 315 c 2
 1125 547 l 1
 1313 619 l 1
 1428 324 l 2
 1470 217 1509 174 1690 174 c 1
 1690 -26 l 1
 1604 -26 1525 -14 1460 12 c 1
 1416 -359 1055 -528 729 -528 c 0
 407 -528 78 -357 78 1 c 0
 78 184 164 413 269 599 c 1
 436 495 l 1
 345 334 278 132 278 1 c 0
EndSplineSet
Colour: ff
EndChar

StartChar: uniFD3E
Encoding: 64830 64830 464
Width: 598
VWidth: 1647
Flags: HW
LayerCount: 2
Fore
SplineSet
482 54 m 1
 314 -54 l 1
 175 163 100 410 100 706 c 0
 100 1002 175 1248 314 1465 c 1
 482 1357 l 1
 363 1170 300 968 300 706 c 0
 300 444 363 241 482 54 c 1
EndSplineSet
EndChar

StartChar: uniFD3F
Encoding: 64831 64831 465
Width: 598
VWidth: 1647
Flags: HW
LayerCount: 2
Fore
SplineSet
116 1357 m 1
 284 1465 l 1
 423 1248 498 1001 498 705 c 0
 498 409 423 163 284 -54 c 1
 116 54 l 1
 235 241 298 443 298 705 c 0
 298 967 235 1170 116 1357 c 1
EndSplineSet
EndChar
